%TF.GenerationSoftware,Altium Limited,Altium Designer,23.4.1 (23)*%
G04 Layer_Physical_Order=2*
G04 Layer_Color=16711680*
%FSLAX45Y45*%
%MOMM*%
%TF.SameCoordinates,D6ADF24A-3376-43E2-8D1E-8FFFCD63A60F*%
%TF.FilePolarity,Positive*%
%TF.FileFunction,Copper,L2,Bot,Signal*%
%TF.Part,Single*%
G01*
G75*
%TA.AperFunction,SMDPad,CuDef*%
%ADD25R,0.75000X0.80000*%
%ADD33R,0.80000X0.75000*%
%TA.AperFunction,Conductor*%
%ADD37C,0.25000*%
%ADD38C,0.25400*%
%ADD39C,0.30000*%
%ADD40C,0.50000*%
%TA.AperFunction,ComponentPad*%
%ADD46C,1.50800*%
%ADD47R,1.50800X1.50800*%
%ADD48R,1.20000X1.20000*%
%ADD49C,1.20000*%
%ADD50C,1.10000*%
%ADD51R,1.10000X1.10000*%
%ADD52C,0.60000*%
%ADD53R,1.65000X1.65000*%
%ADD54C,1.65000*%
%ADD55C,1.40000*%
%ADD56R,1.40000X1.40000*%
%ADD57R,1.57500X1.57500*%
%ADD58C,1.57500*%
%ADD59R,1.50800X1.50800*%
%TA.AperFunction,ViaPad*%
%ADD60C,5.50000*%
%ADD61C,0.60000*%
%TA.AperFunction,SMDPad,CuDef*%
%ADD62R,0.40000X0.30000*%
%ADD63R,2.80000X1.00000*%
%ADD64R,1.90000X1.30000*%
%ADD65R,1.20000X1.00000*%
%ADD66R,1.20000X0.70000*%
%ADD67R,0.80000X1.00000*%
%TA.AperFunction,Conductor*%
%ADD68C,0.80000*%
G36*
X9959216Y1998558D02*
X9946516Y1991483D01*
X9935949Y1993585D01*
X9800949D01*
X9787293Y1990869D01*
X9775715Y1983133D01*
X9767980Y1971556D01*
X9765263Y1957899D01*
Y1703099D01*
X9767980Y1689443D01*
X9775715Y1677866D01*
X9787293Y1670130D01*
X9800949Y1667414D01*
X9935949D01*
X9946516Y1669516D01*
X9959216Y1662441D01*
Y40783D01*
X7957104D01*
X7950841Y53483D01*
X7956777Y61219D01*
X7963326Y77031D01*
X7965560Y94000D01*
X7963326Y110968D01*
X7956777Y126780D01*
X7946358Y140358D01*
X7932780Y150777D01*
X7916968Y157326D01*
X7900000Y159560D01*
X7883031Y157326D01*
X7877837Y155175D01*
X7856340D01*
X7846175Y165340D01*
Y384001D01*
X7841519Y407411D01*
X7828258Y427258D01*
X7793391Y462124D01*
X7798652Y474824D01*
X7877838D01*
X7883031Y472673D01*
X7900000Y470439D01*
X7916968Y472673D01*
X7932780Y479223D01*
X7946358Y489641D01*
X7956777Y503219D01*
X7963327Y519031D01*
X7965561Y536000D01*
X7963327Y552968D01*
X7956777Y568780D01*
X7946358Y582358D01*
X7932780Y592777D01*
X7916968Y599326D01*
X7900000Y601560D01*
X7883031Y599326D01*
X7877838Y597175D01*
X7817340D01*
X7764257Y650258D01*
X7744411Y663519D01*
X7721000Y668175D01*
X7653284D01*
X7648424Y679909D01*
X7698257Y729742D01*
X7711519Y749589D01*
X7716175Y773000D01*
Y1012838D01*
X7718327Y1018031D01*
X7720561Y1035000D01*
X7718327Y1051968D01*
X7711777Y1067780D01*
X7701358Y1081358D01*
X7687780Y1091777D01*
X7671968Y1098327D01*
X7655000Y1100561D01*
X7638031Y1098327D01*
X7622220Y1091777D01*
X7608642Y1081358D01*
X7598223Y1067780D01*
X7591673Y1051968D01*
X7589439Y1035000D01*
X7591673Y1018031D01*
X7593825Y1012838D01*
Y798340D01*
X7560661Y765176D01*
X7403263D01*
X7394777Y777876D01*
X7397327Y784031D01*
X7399561Y801000D01*
X7397327Y817968D01*
X7390777Y833780D01*
X7380358Y847358D01*
X7366781Y857777D01*
X7350969Y864327D01*
X7334000Y866561D01*
X7317032Y864327D01*
X7301220Y857777D01*
X7290342Y849430D01*
X6469355D01*
X6459781Y856777D01*
X6443969Y863327D01*
X6427000Y865561D01*
X6419680Y864597D01*
X6414882Y868570D01*
X6412358Y882642D01*
X6422777Y896220D01*
X6429327Y912031D01*
X6431561Y929000D01*
X6429327Y945968D01*
X6422777Y961780D01*
X6412358Y975358D01*
X6398780Y985777D01*
X6382968Y992327D01*
X6366000Y994561D01*
X6349031Y992327D01*
X6333219Y985777D01*
X6319642Y975358D01*
X6309223Y961780D01*
X6302673Y945968D01*
X6300439Y929000D01*
X6302673Y912031D01*
X6305020Y906365D01*
Y749000D01*
X6308901Y729491D01*
X6319952Y712952D01*
X6361512Y671392D01*
X6363081Y661131D01*
Y657166D01*
X6352742Y650258D01*
X6297743Y595258D01*
X6284481Y575411D01*
X6279825Y552000D01*
Y461162D01*
X6277673Y455968D01*
X6275439Y439000D01*
X6277673Y422031D01*
X6284223Y406220D01*
X6294642Y392642D01*
X6308220Y382223D01*
X6324032Y375673D01*
X6341000Y373439D01*
X6357968Y375673D01*
X6373780Y382223D01*
X6387358Y392642D01*
X6397777Y406220D01*
X6404327Y422031D01*
X6406561Y439000D01*
X6404327Y455968D01*
X6402175Y461162D01*
Y526661D01*
X6421339Y545825D01*
X6586716D01*
X6591577Y534091D01*
X6583656Y526170D01*
X6570394Y506324D01*
X6568676Y497688D01*
X6559969Y493034D01*
X6543001Y495267D01*
X6526032Y493034D01*
X6510220Y486484D01*
X6496642Y476065D01*
X6486224Y462487D01*
X6479674Y446675D01*
X6477440Y429707D01*
X6478626Y420700D01*
X6470500Y408000D01*
X6470500D01*
Y258000D01*
X6615500D01*
Y363108D01*
X6625000Y371439D01*
X6641968Y373673D01*
X6646800Y375675D01*
X6659500Y367189D01*
Y254000D01*
X6804500D01*
Y404000D01*
X6801985D01*
X6793112Y416700D01*
X6794561Y427706D01*
X6792327Y444675D01*
X6786342Y459125D01*
X6790031Y469113D01*
X6791368Y471825D01*
X6932100D01*
X6937718Y460434D01*
X6936224Y458487D01*
X6929674Y442675D01*
X6927440Y425707D01*
X6928889Y414700D01*
X6921500Y402000D01*
X6921500D01*
Y252000D01*
X7066500D01*
Y402000D01*
X7065986D01*
X7057112Y414700D01*
X7058561Y425707D01*
X7056328Y442675D01*
X7049778Y458487D01*
X7048284Y460434D01*
X7053901Y471825D01*
X7610661D01*
X7723825Y358661D01*
Y140000D01*
X7728481Y116589D01*
X7741742Y96743D01*
X7785002Y53483D01*
X7781125Y40783D01*
X40784D01*
Y4459216D01*
X1604527D01*
X1609387Y4447483D01*
X1511534Y4349630D01*
X1500483Y4333091D01*
X1496603Y4313582D01*
Y3522699D01*
X1471884Y3497980D01*
X1420000D01*
X1400491Y3494099D01*
X1383952Y3483048D01*
X1302884Y3401980D01*
X1290336D01*
X1282781Y3407777D01*
X1266969Y3414327D01*
X1250000Y3416561D01*
X1233032Y3414327D01*
X1217220Y3407777D01*
X1203642Y3397358D01*
X1193223Y3383780D01*
X1186673Y3367969D01*
X1184439Y3351000D01*
X1186673Y3334032D01*
X1193223Y3318220D01*
X1203642Y3304642D01*
X1217220Y3294223D01*
X1233032Y3287673D01*
X1250000Y3285439D01*
X1266969Y3287673D01*
X1282781Y3294223D01*
X1290336Y3300021D01*
X1324000D01*
X1343509Y3303901D01*
X1360048Y3314952D01*
X1382080Y3336984D01*
X1395489Y3332433D01*
X1395673Y3331032D01*
X1402223Y3315220D01*
X1412642Y3301642D01*
X1426220Y3291223D01*
X1442032Y3284673D01*
X1459000Y3282439D01*
X1475969Y3284673D01*
X1491780Y3291223D01*
X1499336Y3297021D01*
X1537000D01*
X1556509Y3300901D01*
X1573048Y3311952D01*
X1657048Y3395952D01*
X1668099Y3412491D01*
X1671980Y3432000D01*
Y4262884D01*
X1735116Y4326021D01*
X3836883D01*
X3864020Y4298883D01*
Y3440336D01*
X3858223Y3432781D01*
X3851673Y3416969D01*
X3849439Y3400000D01*
X3851673Y3383032D01*
X3858223Y3367220D01*
X3868641Y3353642D01*
X3882220Y3343223D01*
X3898031Y3336673D01*
X3915000Y3334439D01*
X3931968Y3336673D01*
X3947780Y3343223D01*
X3961358Y3353642D01*
X3971777Y3367220D01*
X3978327Y3383032D01*
X3980560Y3400000D01*
X3978327Y3416969D01*
X3971777Y3432781D01*
X3965979Y3440336D01*
Y4320000D01*
X3962099Y4339509D01*
X3951048Y4356048D01*
X3935809Y4371287D01*
X3940669Y4383020D01*
X4390664D01*
X4398220Y4377223D01*
X4414031Y4370673D01*
X4431000Y4368439D01*
X4447968Y4370673D01*
X4463780Y4377223D01*
X4477358Y4387642D01*
X4487777Y4401220D01*
X4494327Y4417032D01*
X4496560Y4434000D01*
X4494913Y4446516D01*
X4503113Y4459216D01*
X5611000D01*
X5611000Y3770314D01*
X7621001Y3770315D01*
Y4459216D01*
X9959216D01*
Y1998558D01*
D02*
G37*
%LPC*%
G36*
X3118000Y4220000D02*
X2938000D01*
Y4040000D01*
X3118000D01*
Y4220000D01*
D02*
G37*
G36*
X8644000Y4243353D02*
X8615180Y4239558D01*
X8588324Y4228434D01*
X8565262Y4210738D01*
X8547566Y4187676D01*
X8536442Y4160820D01*
X8532648Y4132000D01*
X8536442Y4103180D01*
X8547566Y4076324D01*
X8565262Y4053262D01*
X8588324Y4035566D01*
X8615180Y4024442D01*
X8644000Y4020648D01*
X8672820Y4024442D01*
X8699677Y4035566D01*
X8722738Y4053262D01*
X8740434Y4076324D01*
X8751559Y4103180D01*
X8755353Y4132000D01*
X8751559Y4160820D01*
X8740434Y4187676D01*
X8722738Y4210738D01*
X8699677Y4228434D01*
X8672820Y4239558D01*
X8644000Y4243353D01*
D02*
G37*
G36*
X8394000D02*
X8365180Y4239558D01*
X8338323Y4228434D01*
X8315261Y4210738D01*
X8297566Y4187676D01*
X8286441Y4160820D01*
X8282647Y4132000D01*
X8286441Y4103180D01*
X8297566Y4076324D01*
X8315261Y4053262D01*
X8338323Y4035566D01*
X8365180Y4024442D01*
X8394000Y4020648D01*
X8422820Y4024442D01*
X8449676Y4035566D01*
X8472738Y4053262D01*
X8490434Y4076324D01*
X8501558Y4103180D01*
X8505352Y4132000D01*
X8501558Y4160820D01*
X8490434Y4187676D01*
X8472738Y4210738D01*
X8449676Y4228434D01*
X8422820Y4239558D01*
X8394000Y4243353D01*
D02*
G37*
G36*
X9600000Y4410958D02*
X9551355Y4407130D01*
X9503908Y4395739D01*
X9458828Y4377066D01*
X9417223Y4351571D01*
X9380119Y4319881D01*
X9348429Y4282777D01*
X9322934Y4241172D01*
X9304261Y4196091D01*
X9292870Y4148644D01*
X9289041Y4100000D01*
X9292870Y4051355D01*
X9304261Y4003908D01*
X9322934Y3958828D01*
X9348429Y3917223D01*
X9380119Y3880119D01*
X9417223Y3848429D01*
X9458828Y3822934D01*
X9503908Y3804261D01*
X9551355Y3792870D01*
X9600000Y3789041D01*
X9648644Y3792870D01*
X9696091Y3804261D01*
X9741172Y3822934D01*
X9782777Y3848429D01*
X9819881Y3880119D01*
X9851571Y3917223D01*
X9877066Y3958828D01*
X9895739Y4003908D01*
X9907130Y4051355D01*
X9910958Y4100000D01*
X9907130Y4148644D01*
X9895739Y4196091D01*
X9877066Y4241172D01*
X9851571Y4282777D01*
X9819881Y4319881D01*
X9782777Y4351571D01*
X9741172Y4377066D01*
X9696091Y4395739D01*
X9648644Y4407130D01*
X9600000Y4410958D01*
D02*
G37*
G36*
X400000D02*
X351355Y4407130D01*
X303908Y4395739D01*
X258828Y4377066D01*
X217223Y4351571D01*
X180119Y4319881D01*
X148429Y4282777D01*
X122934Y4241172D01*
X104261Y4196091D01*
X92870Y4148644D01*
X89041Y4100000D01*
X92870Y4051355D01*
X104261Y4003908D01*
X122934Y3958828D01*
X148429Y3917223D01*
X180119Y3880119D01*
X217223Y3848429D01*
X258828Y3822934D01*
X303908Y3804261D01*
X351355Y3792870D01*
X400000Y3789041D01*
X448645Y3792870D01*
X496091Y3804261D01*
X541172Y3822934D01*
X582777Y3848429D01*
X619881Y3880119D01*
X651571Y3917223D01*
X677066Y3958828D01*
X695739Y4003908D01*
X707130Y4051355D01*
X710958Y4100000D01*
X707130Y4148644D01*
X695739Y4196091D01*
X677066Y4241172D01*
X651571Y4282777D01*
X619881Y4319881D01*
X582777Y4351571D01*
X541172Y4377066D01*
X496091Y4395739D01*
X448645Y4407130D01*
X400000Y4410958D01*
D02*
G37*
G36*
X2129000Y3587000D02*
X1949000D01*
Y3407000D01*
X2129000D01*
Y3587000D01*
D02*
G37*
G36*
X3129000Y3379000D02*
X2919000D01*
Y3354647D01*
X2779002D01*
X2779000Y3354647D01*
X2759421Y3352069D01*
X2741176Y3344512D01*
X2725509Y3332491D01*
X2725509Y3332490D01*
X2450666Y3057647D01*
X399002D01*
X399000Y3057647D01*
X379421Y3055069D01*
X361177Y3047512D01*
X345509Y3035490D01*
X345509Y3035489D01*
X217509Y2907491D01*
X205488Y2891824D01*
X197931Y2873579D01*
X195353Y2854000D01*
Y2129000D01*
X197931Y2109421D01*
X205488Y2091176D01*
X217509Y2075509D01*
X294353Y1998666D01*
Y1863400D01*
X259600D01*
Y1642600D01*
X480400D01*
Y1863400D01*
X445647D01*
Y2030000D01*
X443069Y2049579D01*
X435512Y2067824D01*
X423490Y2083491D01*
X346647Y2160334D01*
Y2822666D01*
X430334Y2906353D01*
X2482000D01*
X2501579Y2908930D01*
X2519824Y2916488D01*
X2535490Y2928509D01*
X2810334Y3203353D01*
X2919000D01*
Y3169000D01*
X3129000D01*
Y3379000D01*
D02*
G37*
G36*
X472000Y3451000D02*
X282000D01*
Y3261001D01*
X472000D01*
Y3451000D01*
D02*
G37*
G36*
X3024000Y2871906D02*
X2996590Y2868297D01*
X2971047Y2857717D01*
X2949113Y2840887D01*
X2932283Y2818953D01*
X2921703Y2793410D01*
X2918094Y2766000D01*
X2921703Y2738590D01*
X2932283Y2713047D01*
X2949113Y2691113D01*
X2971047Y2674283D01*
X2996590Y2663703D01*
X3024000Y2660094D01*
X3051410Y2663703D01*
X3076953Y2674283D01*
X3098887Y2691113D01*
X3115717Y2713047D01*
X3126297Y2738590D01*
X3129906Y2766000D01*
X3126297Y2793410D01*
X3115717Y2818953D01*
X3098887Y2840887D01*
X3076953Y2857717D01*
X3051410Y2868297D01*
X3024000Y2871906D01*
D02*
G37*
G36*
X8144000Y4243353D02*
X8115180Y4239558D01*
X8088324Y4228434D01*
X8065262Y4210738D01*
X8047566Y4187676D01*
X8036442Y4160820D01*
X8032647Y4132000D01*
X8036442Y4103180D01*
X8047566Y4076324D01*
X8065262Y4053262D01*
X8082825Y4039786D01*
Y3585340D01*
X8000414Y3502928D01*
X7995220Y3500777D01*
X7981642Y3490358D01*
X7971223Y3476780D01*
X7964673Y3460968D01*
X7962439Y3444000D01*
X7962486Y3443646D01*
X7960825Y3435294D01*
Y2973162D01*
X7958673Y2967968D01*
X7956439Y2951000D01*
X7958673Y2934031D01*
X7959825Y2931252D01*
Y2911500D01*
X7946000D01*
Y2853016D01*
X7869786Y2776801D01*
X7856525Y2756955D01*
X7851868Y2733544D01*
Y2368527D01*
X7839168Y2364216D01*
X7833687Y2371358D01*
X7820110Y2381777D01*
X7819634Y2381974D01*
Y2793855D01*
X7856707Y2830927D01*
X7869969Y2832673D01*
X7885780Y2839223D01*
X7899358Y2849642D01*
X7909777Y2863220D01*
X7916327Y2879032D01*
X7918561Y2896000D01*
X7916327Y2912969D01*
X7909777Y2928781D01*
X7899358Y2942358D01*
X7885780Y2952777D01*
X7881203Y2954673D01*
X7878223Y2969654D01*
X7895246Y2986677D01*
X7905744Y3002389D01*
X7909430Y3020922D01*
Y3367000D01*
X7905744Y3385534D01*
X7895246Y3401246D01*
X7830625Y3465867D01*
X7814913Y3476365D01*
X7796379Y3480051D01*
X7687022D01*
X7680586Y3495589D01*
X7670167Y3509167D01*
X7658597Y3518046D01*
X7658071Y3526087D01*
X7659452Y3532147D01*
X7661589Y3533032D01*
X7675167Y3543451D01*
X7685586Y3557029D01*
X7692136Y3572840D01*
X7694370Y3589809D01*
X7692136Y3606777D01*
X7685586Y3622589D01*
X7675167Y3636167D01*
X7661589Y3646586D01*
X7645777Y3653136D01*
X7628809Y3655370D01*
X7611841Y3653136D01*
X7596029Y3646586D01*
X7582451Y3636167D01*
X7581745Y3635247D01*
X7567046Y3632323D01*
X7551334Y3621825D01*
X7527064Y3597555D01*
X7516566Y3581843D01*
X7512880Y3563310D01*
Y3436921D01*
X7516566Y3418387D01*
X7527064Y3402675D01*
X7577364Y3352376D01*
X7593076Y3341877D01*
X7611610Y3338191D01*
X7757318D01*
X7767570Y3327940D01*
Y3167881D01*
X7754870Y3163570D01*
X7747358Y3173358D01*
X7737725Y3180751D01*
X7740327Y3187031D01*
X7742561Y3204000D01*
X7740327Y3220968D01*
X7733777Y3236780D01*
X7723358Y3250358D01*
X7709780Y3260777D01*
X7693968Y3267327D01*
X7677000Y3269561D01*
X7660031Y3267327D01*
X7644220Y3260777D01*
X7630642Y3250358D01*
X7620223Y3236780D01*
X7613673Y3220968D01*
X7611883Y3207374D01*
X7501954Y3097445D01*
X7491456Y3081733D01*
X7487769Y3063200D01*
Y2064261D01*
X7414539Y1991031D01*
X5874330D01*
Y3147480D01*
X5885780Y3152223D01*
X5899358Y3162642D01*
X5909777Y3176220D01*
X5916327Y3192031D01*
X5918561Y3209000D01*
X5916327Y3225968D01*
X5909777Y3241780D01*
X5899358Y3255358D01*
X5891522Y3261371D01*
X5891287Y3261815D01*
Y3276185D01*
X5891522Y3276629D01*
X5899358Y3282642D01*
X5909777Y3296219D01*
X5916327Y3312031D01*
X5918561Y3329000D01*
X5916327Y3345968D01*
X5909777Y3361780D01*
X5899358Y3375358D01*
X5885780Y3385777D01*
X5869968Y3392327D01*
X5853000Y3394561D01*
X5836032Y3392327D01*
X5820220Y3385777D01*
X5806642Y3375358D01*
X5796680Y3362376D01*
X5795383Y3362278D01*
X5783980Y3367147D01*
Y3387807D01*
X5780099Y3407316D01*
X5769048Y3423855D01*
X5694474Y3498428D01*
X5677935Y3509479D01*
X5658426Y3513360D01*
X5621336D01*
X5613780Y3519158D01*
X5597968Y3525707D01*
X5581000Y3527941D01*
X5564032Y3525707D01*
X5548220Y3519158D01*
X5534642Y3508739D01*
X5524223Y3495161D01*
X5517673Y3479349D01*
X5515439Y3462380D01*
X5517673Y3445412D01*
X5524223Y3429600D01*
X5534642Y3416022D01*
X5548220Y3405603D01*
X5564032Y3399054D01*
X5581000Y3396820D01*
X5597968Y3399054D01*
X5613780Y3405603D01*
X5621336Y3411401D01*
X5637310D01*
X5682020Y3366690D01*
Y2875776D01*
X5670820Y2869789D01*
X5667612Y2871932D01*
X5649000Y2875635D01*
X5648999Y2875634D01*
X5636392D01*
X5625780Y2883777D01*
X5623729Y2884627D01*
Y2898373D01*
X5625780Y2899223D01*
X5639358Y2909642D01*
X5649777Y2923219D01*
X5656327Y2939031D01*
X5658561Y2956000D01*
X5656327Y2972968D01*
X5649777Y2988780D01*
X5639358Y3002358D01*
X5625780Y3012777D01*
X5625229Y3013005D01*
Y3026752D01*
X5628780Y3028223D01*
X5642358Y3038642D01*
X5652777Y3052219D01*
X5659327Y3068031D01*
X5661561Y3085000D01*
X5659327Y3101968D01*
X5652777Y3117780D01*
X5642358Y3131358D01*
X5628780Y3141777D01*
X5612968Y3148327D01*
X5596000Y3150561D01*
X5579032Y3148327D01*
X5563220Y3141777D01*
X5552608Y3133634D01*
X5270392D01*
X5259780Y3141777D01*
X5243968Y3148327D01*
X5227000Y3150561D01*
X5210031Y3148327D01*
X5194219Y3141777D01*
X5180642Y3131358D01*
X5170223Y3117780D01*
X5163673Y3101968D01*
X5161439Y3085000D01*
X5163673Y3068031D01*
X5170223Y3052219D01*
X5180642Y3038642D01*
X5189253Y3032034D01*
X5189531Y3027487D01*
X5186911Y3018034D01*
X5174220Y3012777D01*
X5160642Y3002358D01*
X5150223Y2988780D01*
X5143673Y2972968D01*
X5141439Y2956000D01*
X5143673Y2939031D01*
X5150223Y2923219D01*
X5160642Y2909642D01*
X5174220Y2899223D01*
X5190032Y2892673D01*
X5207000Y2890439D01*
X5223968Y2892673D01*
X5239780Y2899223D01*
X5250392Y2907366D01*
X5549608D01*
X5560220Y2899223D01*
X5562271Y2898373D01*
Y2884627D01*
X5560220Y2883777D01*
X5546642Y2873358D01*
X5536223Y2859780D01*
X5529673Y2843968D01*
X5527439Y2827000D01*
X5529673Y2810031D01*
X5536223Y2794219D01*
X5546642Y2780642D01*
X5550692Y2777533D01*
X5545661Y2765386D01*
X5538191Y2766370D01*
X5521223Y2764136D01*
X5505411Y2757586D01*
X5497855Y2751789D01*
X5255336D01*
X5247780Y2757586D01*
X5231968Y2764136D01*
X5215000Y2766370D01*
X5198032Y2764136D01*
X5182220Y2757586D01*
X5168642Y2747167D01*
X5158223Y2733589D01*
X5151673Y2717777D01*
X5149439Y2700809D01*
X5151673Y2683840D01*
X5158223Y2668029D01*
X5168642Y2654451D01*
X5182220Y2644032D01*
X5196902Y2637950D01*
X5198631Y2633698D01*
X5200105Y2624399D01*
X5196142Y2621358D01*
X5185723Y2607780D01*
X5179173Y2591968D01*
X5176939Y2575000D01*
X5179173Y2558031D01*
X5185723Y2542219D01*
X5196142Y2528642D01*
X5209720Y2518223D01*
X5225532Y2511673D01*
X5242500Y2509439D01*
X5259469Y2511673D01*
X5275281Y2518223D01*
X5284855Y2525569D01*
X5488342D01*
X5499220Y2517223D01*
X5515032Y2510673D01*
X5532000Y2508439D01*
X5548969Y2510673D01*
X5564781Y2517223D01*
X5578358Y2527642D01*
X5588777Y2541220D01*
X5595327Y2557031D01*
X5597561Y2574000D01*
X5595327Y2590968D01*
X5588777Y2606780D01*
X5578358Y2620358D01*
X5567367Y2628792D01*
X5567051Y2638297D01*
X5568470Y2642995D01*
X5570972Y2644032D01*
X5584549Y2654451D01*
X5594968Y2668029D01*
X5601518Y2683840D01*
X5603752Y2700809D01*
X5601518Y2717777D01*
X5594968Y2733589D01*
X5584549Y2747167D01*
X5580499Y2750275D01*
X5585531Y2762423D01*
X5593000Y2761439D01*
X5609968Y2763673D01*
X5622665Y2768933D01*
X5631730Y2764851D01*
X5635366Y2761570D01*
Y2389016D01*
X5624806Y2381960D01*
X5621968Y2383136D01*
X5605000Y2385370D01*
X5588031Y2383136D01*
X5572220Y2376586D01*
X5558642Y2366167D01*
X5558076Y2365430D01*
X5461158D01*
X5450280Y2373777D01*
X5434468Y2380327D01*
X5417500Y2382561D01*
X5400531Y2380327D01*
X5384719Y2373777D01*
X5371142Y2363358D01*
X5360723Y2349780D01*
X5354173Y2333968D01*
X5351939Y2317000D01*
X5354173Y2300031D01*
X5360723Y2284219D01*
X5371142Y2270642D01*
X5384719Y2260223D01*
X5400531Y2253673D01*
X5417500Y2251439D01*
X5434468Y2253673D01*
X5450280Y2260223D01*
X5461158Y2268570D01*
X5565003D01*
X5572220Y2263032D01*
X5578344Y2260495D01*
X5578806Y2259609D01*
X5579634Y2246214D01*
X5570451Y2239167D01*
X5569969Y2238539D01*
X4959607D01*
X4952780Y2243777D01*
X4936969Y2250327D01*
X4920000Y2252561D01*
X4903032Y2250327D01*
X4887220Y2243777D01*
X4873642Y2233358D01*
X4863223Y2219780D01*
X4856673Y2203968D01*
X4854439Y2187000D01*
X4856673Y2170031D01*
X4863223Y2154220D01*
X4873642Y2140642D01*
X4887220Y2130223D01*
X4903032Y2123673D01*
X4920000Y2121439D01*
X4936969Y2123673D01*
X4952780Y2130223D01*
X4966358Y2140642D01*
X4966840Y2141270D01*
X5577202D01*
X5584029Y2136032D01*
X5599840Y2129482D01*
X5616809Y2127248D01*
X5622665Y2128019D01*
X5635366Y2116881D01*
Y1809001D01*
X5635365Y1809000D01*
X5639068Y1790388D01*
X5649610Y1774610D01*
X5678911Y1745309D01*
X5678912Y1745309D01*
X5694690Y1734766D01*
X5713302Y1731064D01*
X5713303Y1731064D01*
X7193912D01*
X7204409Y1718364D01*
X7203439Y1711000D01*
X7204034Y1706479D01*
X7195661Y1696930D01*
X6278298D01*
X6266769Y1705777D01*
X6250957Y1712327D01*
X6233989Y1714561D01*
X6217020Y1712327D01*
X6201209Y1705777D01*
X6187630Y1695358D01*
X6177212Y1681780D01*
X6170662Y1665968D01*
X6168428Y1649000D01*
X6169202Y1643121D01*
X6160828Y1633572D01*
X5663204D01*
X5658968Y1635327D01*
X5642000Y1637561D01*
X5625031Y1635327D01*
X5619838Y1633175D01*
X4969340D01*
X4839175Y1763340D01*
Y3264000D01*
X4834519Y3287411D01*
X4821257Y3307257D01*
X4752928Y3375586D01*
X4750777Y3380780D01*
X4740358Y3394358D01*
X4726780Y3404777D01*
X4710968Y3411327D01*
X4694000Y3413561D01*
X4677031Y3411327D01*
X4661219Y3404777D01*
X4647641Y3394358D01*
X4637223Y3380780D01*
X4630673Y3364968D01*
X4628439Y3348000D01*
X4630673Y3331031D01*
X4637223Y3315220D01*
X4647641Y3301642D01*
X4661219Y3291223D01*
X4666414Y3289071D01*
X4716824Y3238660D01*
Y1738000D01*
X4721481Y1714589D01*
X4734742Y1694743D01*
X4900743Y1528742D01*
X4920589Y1515481D01*
X4944000Y1510825D01*
X5183561D01*
X5189824Y1498125D01*
X5185723Y1492780D01*
X5179173Y1476968D01*
X5177308Y1462799D01*
X5167939Y1453430D01*
X4649999D01*
Y1613000D01*
X4470000D01*
Y1453430D01*
X1992061D01*
X1615245Y1830246D01*
X1599533Y1840744D01*
X1581000Y1844431D01*
X1527658D01*
X1516780Y1852777D01*
X1500968Y1859327D01*
X1484000Y1861561D01*
X1467031Y1859327D01*
X1451220Y1852777D01*
X1437642Y1842359D01*
X1427223Y1828781D01*
X1420673Y1812969D01*
X1418439Y1796000D01*
X1420673Y1779032D01*
X1427223Y1763220D01*
X1437642Y1749642D01*
X1451220Y1739223D01*
X1467031Y1732673D01*
X1484000Y1730440D01*
X1500968Y1732673D01*
X1516780Y1739223D01*
X1527658Y1747570D01*
X1560939D01*
X1580378Y1728130D01*
X1575118Y1715430D01*
X1411799D01*
X1393265Y1711744D01*
X1377553Y1701246D01*
X1319755Y1643447D01*
X1309256Y1627735D01*
X1305570Y1609201D01*
Y1047315D01*
X1309256Y1028781D01*
X1319755Y1013069D01*
X1385069Y947755D01*
X1385069Y947755D01*
X1400781Y937256D01*
X1419315Y933569D01*
X1419316Y933570D01*
X1440342D01*
X1451220Y925223D01*
X1467032Y918673D01*
X1484000Y916439D01*
X1500969Y918673D01*
X1516781Y925223D01*
X1530358Y935642D01*
X1540777Y949220D01*
X1547327Y965032D01*
X1549561Y982000D01*
X1547327Y998969D01*
X1540777Y1014780D01*
X1530358Y1028358D01*
X1516781Y1038777D01*
X1500969Y1045327D01*
X1484000Y1047561D01*
X1467032Y1045327D01*
X1451220Y1038777D01*
X1440342Y1030431D01*
X1439375D01*
X1402431Y1067375D01*
Y1231771D01*
X1414674Y1234032D01*
X1421223Y1218220D01*
X1431642Y1204642D01*
X1445220Y1194223D01*
X1461032Y1187674D01*
X1478000Y1185440D01*
X1494969Y1187674D01*
X1510781Y1194223D01*
X1518336Y1200021D01*
X1636883D01*
X1690020Y1146883D01*
Y772000D01*
X1693901Y752491D01*
X1704952Y735952D01*
X1804952Y635952D01*
X1821491Y624901D01*
X1841000Y621020D01*
X5245000D01*
X5264509Y624901D01*
X5281048Y635952D01*
X5711117Y1066020D01*
X5944000D01*
X5963509Y1069901D01*
X5980048Y1080952D01*
X6316117Y1417021D01*
X7326664D01*
X7334220Y1411223D01*
X7350032Y1404673D01*
X7367000Y1402439D01*
X7383968Y1404673D01*
X7399780Y1411223D01*
X7413358Y1421642D01*
X7423777Y1435220D01*
X7430327Y1451032D01*
X7432561Y1468000D01*
X7430327Y1484969D01*
X7424713Y1498522D01*
X7429930Y1511222D01*
X7635296D01*
X7639532Y1509467D01*
X7656500Y1507233D01*
X7673469Y1509467D01*
X7676745Y1510825D01*
X9022250D01*
X9025031Y1509673D01*
X9041999Y1507439D01*
X9058968Y1509673D01*
X9061749Y1510825D01*
X9241500D01*
X9264911Y1515481D01*
X9284757Y1528742D01*
X9367757Y1611742D01*
X9381019Y1631589D01*
X9385675Y1655000D01*
Y2430500D01*
X9381019Y2453911D01*
X9367757Y2473758D01*
X9313424Y2528091D01*
X9318284Y2539824D01*
X9400661D01*
X9433825Y2506660D01*
Y1355000D01*
X9438481Y1331589D01*
X9451743Y1311743D01*
X9616125Y1147360D01*
Y1003662D01*
X9613973Y998469D01*
X9611739Y981500D01*
X9613973Y964532D01*
X9620523Y948720D01*
X9630942Y935142D01*
X9644520Y924723D01*
X9660332Y918173D01*
X9677300Y915939D01*
X9694269Y918173D01*
X9710080Y924723D01*
X9723658Y935142D01*
X9734077Y948720D01*
X9740627Y964532D01*
X9742861Y981500D01*
X9740627Y998469D01*
X9738476Y1003662D01*
Y1172700D01*
X9733819Y1196111D01*
X9720558Y1215957D01*
X9556175Y1380340D01*
Y2532000D01*
X9551519Y2555411D01*
X9538258Y2575258D01*
X9469258Y2644257D01*
X9449411Y2657519D01*
X9426000Y2662175D01*
X9158162D01*
X9152968Y2664327D01*
X9136000Y2666561D01*
X9119032Y2664327D01*
X9103220Y2657777D01*
X9089642Y2647358D01*
X9079223Y2633780D01*
X9072673Y2617968D01*
X9070439Y2601000D01*
X9072673Y2584031D01*
X9079223Y2568219D01*
X9089642Y2554642D01*
X9083759Y2543147D01*
X9075424Y2532284D01*
X9068874Y2516472D01*
X9066640Y2499504D01*
X9068874Y2482536D01*
X9075424Y2466724D01*
X9085843Y2453146D01*
X9099421Y2442727D01*
X9115233Y2436177D01*
X9132201Y2433943D01*
X9149170Y2436177D01*
X9157975Y2439825D01*
X9228660D01*
X9263324Y2405161D01*
Y1680340D01*
X9216160Y1633175D01*
X9066574D01*
X9058968Y1636326D01*
X9041999Y1638560D01*
X9025031Y1636326D01*
X9017424Y1633175D01*
X8081175D01*
Y1894520D01*
X8090156Y1903500D01*
X8094999D01*
Y1903500D01*
X8095001D01*
Y1903500D01*
X8235999D01*
Y1903050D01*
X8425999D01*
Y2013049D01*
Y2144415D01*
X8482048D01*
X8482049Y2144414D01*
X8500660Y2148117D01*
X8516439Y2158659D01*
X8574389Y2216610D01*
X8574390Y2216610D01*
X8584932Y2232388D01*
X8588634Y2251000D01*
Y2548911D01*
X8595777Y2558219D01*
X8602327Y2574031D01*
X8604561Y2591000D01*
X8602327Y2607968D01*
X8595777Y2623780D01*
X8585358Y2637358D01*
X8571780Y2647777D01*
X8555968Y2654327D01*
X8539000Y2656561D01*
X8522031Y2654327D01*
X8512256Y2650277D01*
X8509327Y2651969D01*
X8502777Y2667780D01*
X8492358Y2681358D01*
X8478780Y2691777D01*
X8462969Y2698327D01*
X8446000Y2700561D01*
X8438699Y2699600D01*
X8425999Y2710124D01*
Y2768049D01*
Y2862364D01*
X8661199D01*
X8674855Y2865080D01*
X8686433Y2872816D01*
X8694168Y2884393D01*
X8696885Y2898049D01*
Y2973199D01*
X8694168Y2986856D01*
X8686433Y2998433D01*
X8674855Y3006168D01*
X8661199Y3008885D01*
X8419899D01*
X8406243Y3006168D01*
X8394665Y2998433D01*
X8386930Y2986856D01*
X8384213Y2973199D01*
Y2908049D01*
X8246000D01*
Y2911500D01*
X8108700D01*
X8096001Y2911500D01*
Y2911501D01*
X8095999D01*
Y2911500D01*
X8082175D01*
Y2926424D01*
X8085327Y2934031D01*
X8087561Y2951000D01*
X8085327Y2967968D01*
X8083175Y2973162D01*
Y3409132D01*
X8084777Y3411219D01*
X8086929Y3416414D01*
X8187257Y3516742D01*
X8200519Y3536589D01*
X8205175Y3560000D01*
Y4039786D01*
X8222738Y4053262D01*
X8240434Y4076324D01*
X8251558Y4103180D01*
X8255353Y4132000D01*
X8251558Y4160820D01*
X8240434Y4187676D01*
X8222738Y4210738D01*
X8199676Y4228434D01*
X8172820Y4239558D01*
X8144000Y4243353D01*
D02*
G37*
G36*
X588000Y2392514D02*
X557326Y2388476D01*
X528743Y2376636D01*
X504198Y2357802D01*
X485364Y2333257D01*
X473524Y2304674D01*
X469486Y2274000D01*
X473524Y2243326D01*
X485364Y2214743D01*
X504198Y2190198D01*
X528743Y2171364D01*
X557326Y2159525D01*
X588000Y2155486D01*
X618673Y2159525D01*
X647257Y2171364D01*
X671802Y2190198D01*
X690636Y2214743D01*
X702475Y2243326D01*
X706514Y2274000D01*
X702475Y2304674D01*
X690636Y2333257D01*
X671802Y2357802D01*
X647257Y2376636D01*
X618673Y2388476D01*
X588000Y2392514D01*
D02*
G37*
G36*
X9181000Y3008885D02*
X8864399D01*
X8850743Y3006168D01*
X8839165Y2998433D01*
X8831430Y2986856D01*
X8828713Y2973199D01*
Y2898049D01*
X8831430Y2884393D01*
X8839165Y2872816D01*
X8850743Y2865080D01*
X8864399Y2862364D01*
X8923651D01*
X8932628Y2849663D01*
X8931332Y2843149D01*
Y2783435D01*
X8830999D01*
X8817343Y2780719D01*
X8805765Y2772983D01*
X8798030Y2761406D01*
X8795313Y2747749D01*
Y1923049D01*
X8798030Y1909393D01*
X8805765Y1897816D01*
X8817343Y1890080D01*
X8830999Y1887364D01*
X8990999D01*
X9004655Y1890080D01*
X9016233Y1897816D01*
X9023968Y1909393D01*
X9026685Y1923049D01*
Y2737464D01*
X9726980D01*
X9740636Y2740180D01*
X9752214Y2747916D01*
X9759949Y2759493D01*
X9762666Y2773149D01*
Y2843149D01*
X9759949Y2856806D01*
X9752214Y2868383D01*
X9740636Y2876118D01*
X9726980Y2878835D01*
X9224367D01*
X9215390Y2891535D01*
X9216686Y2898049D01*
Y2973199D01*
X9213969Y2986856D01*
X9206234Y2998433D01*
X9194656Y3006168D01*
X9181000Y3008885D01*
D02*
G37*
G36*
X3512000Y1952000D02*
X3322000D01*
Y1762000D01*
X3512000D01*
Y1952000D01*
D02*
G37*
G36*
X370000Y1614353D02*
X341180Y1610558D01*
X314323Y1599434D01*
X291262Y1581738D01*
X273566Y1558676D01*
X262441Y1531820D01*
X258647Y1503000D01*
X262441Y1474180D01*
X273566Y1447324D01*
X291262Y1424262D01*
X314323Y1406566D01*
X341180Y1395442D01*
X370000Y1391647D01*
X398820Y1395442D01*
X425676Y1406566D01*
X448738Y1424262D01*
X466434Y1447324D01*
X477558Y1474180D01*
X481352Y1503000D01*
X477558Y1531820D01*
X466434Y1558676D01*
X448738Y1581738D01*
X425676Y1599434D01*
X398820Y1610558D01*
X370000Y1614353D01*
D02*
G37*
G36*
Y1364353D02*
X341180Y1360558D01*
X314323Y1349434D01*
X291262Y1331738D01*
X273566Y1308676D01*
X262441Y1281820D01*
X258647Y1253000D01*
X262441Y1224180D01*
X273566Y1197324D01*
X291262Y1174262D01*
X314323Y1156566D01*
X341180Y1145442D01*
X370000Y1141647D01*
X398820Y1145442D01*
X425676Y1156566D01*
X448738Y1174262D01*
X466434Y1197324D01*
X477558Y1224180D01*
X481352Y1253000D01*
X477558Y1281820D01*
X466434Y1308676D01*
X448738Y1331738D01*
X425676Y1349434D01*
X398820Y1360558D01*
X370000Y1364353D01*
D02*
G37*
G36*
Y1114353D02*
X341180Y1110558D01*
X314323Y1099434D01*
X291262Y1081738D01*
X273566Y1058676D01*
X262441Y1031820D01*
X258647Y1003000D01*
X262441Y974180D01*
X273566Y947324D01*
X291262Y924262D01*
X314323Y906566D01*
X341180Y895442D01*
X370000Y891647D01*
X398820Y895442D01*
X425676Y906566D01*
X448738Y924262D01*
X466434Y947324D01*
X477558Y974180D01*
X481352Y1003000D01*
X477558Y1031820D01*
X466434Y1058676D01*
X448738Y1081738D01*
X425676Y1099434D01*
X398820Y1110558D01*
X370000Y1114353D01*
D02*
G37*
G36*
X6039000Y995561D02*
X6022032Y993327D01*
X6006220Y986777D01*
X5992642Y976358D01*
X5982223Y962780D01*
X5975673Y946968D01*
X5973439Y930000D01*
X5975673Y913031D01*
X5982223Y897219D01*
X5990570Y886342D01*
Y779658D01*
X5982223Y768780D01*
X5975673Y752969D01*
X5973439Y736000D01*
X5975673Y719032D01*
X5982223Y703220D01*
X5992642Y689642D01*
X6006220Y679223D01*
X6022032Y672673D01*
X6039000Y670439D01*
X6055969Y672673D01*
X6071780Y679223D01*
X6085358Y689642D01*
X6095777Y703220D01*
X6102327Y719032D01*
X6104561Y736000D01*
X6102327Y752969D01*
X6095777Y768780D01*
X6087431Y779658D01*
Y886342D01*
X6095777Y897219D01*
X6102327Y913031D01*
X6104561Y930000D01*
X6102327Y946968D01*
X6095777Y962780D01*
X6085358Y976358D01*
X6071780Y986777D01*
X6055969Y993327D01*
X6039000Y995561D01*
D02*
G37*
G36*
X5030400Y474400D02*
X4809600D01*
Y253600D01*
X5030400D01*
Y474400D01*
D02*
G37*
G36*
X5170000Y475353D02*
X5141180Y471558D01*
X5114324Y460434D01*
X5091262Y442738D01*
X5073566Y419676D01*
X5062442Y392820D01*
X5058647Y364000D01*
X5062442Y335180D01*
X5073566Y308324D01*
X5091262Y285262D01*
X5114324Y267566D01*
X5141180Y256442D01*
X5170000Y252647D01*
X5198820Y256442D01*
X5225676Y267566D01*
X5248738Y285262D01*
X5266434Y308324D01*
X5277558Y335180D01*
X5281353Y364000D01*
X5277558Y392820D01*
X5266434Y419676D01*
X5248738Y442738D01*
X5225676Y460434D01*
X5198820Y471558D01*
X5170000Y475353D01*
D02*
G37*
G36*
X3870400Y471400D02*
X3649600D01*
Y250600D01*
X3870400D01*
Y471400D01*
D02*
G37*
G36*
X4010000Y472353D02*
X3981180Y468558D01*
X3954324Y457434D01*
X3931262Y439738D01*
X3913566Y416676D01*
X3902442Y389820D01*
X3898648Y361000D01*
X3902442Y332180D01*
X3913566Y305324D01*
X3931262Y282262D01*
X3954324Y264566D01*
X3981180Y253442D01*
X4010000Y249647D01*
X4038820Y253442D01*
X4065676Y264566D01*
X4088738Y282262D01*
X4106434Y305324D01*
X4117558Y332180D01*
X4121353Y361000D01*
X4117558Y389820D01*
X4106434Y416676D01*
X4088738Y439738D01*
X4065676Y457434D01*
X4038820Y468558D01*
X4010000Y472353D01*
D02*
G37*
G36*
X1158750Y475750D02*
X931250D01*
Y248250D01*
X1158750D01*
Y475750D01*
D02*
G37*
G36*
X1295000Y476731D02*
X1265306Y472822D01*
X1237635Y461360D01*
X1213873Y443127D01*
X1195640Y419366D01*
X1184178Y391695D01*
X1180269Y362000D01*
X1184178Y332305D01*
X1195640Y304634D01*
X1213873Y280873D01*
X1237635Y262640D01*
X1265306Y251178D01*
X1295000Y247269D01*
X1324695Y251178D01*
X1352366Y262640D01*
X1376128Y280873D01*
X1394361Y304634D01*
X1405822Y332305D01*
X1409732Y362000D01*
X1405822Y391695D01*
X1394361Y419366D01*
X1376128Y443127D01*
X1352366Y461360D01*
X1324695Y472822D01*
X1295000Y476731D01*
D02*
G37*
G36*
X2975750Y474750D02*
X2748250D01*
Y247250D01*
X2975750D01*
Y474750D01*
D02*
G37*
G36*
X2081749D02*
X1854250D01*
Y247250D01*
X2081749D01*
Y474750D01*
D02*
G37*
G36*
X9600000Y710958D02*
X9551355Y707130D01*
X9503908Y695739D01*
X9458828Y677066D01*
X9417223Y651571D01*
X9380119Y619881D01*
X9348429Y582777D01*
X9322934Y541172D01*
X9304261Y496091D01*
X9292870Y448645D01*
X9289041Y400000D01*
X9292870Y351355D01*
X9304261Y303908D01*
X9322934Y258828D01*
X9348429Y217223D01*
X9380119Y180119D01*
X9417223Y148429D01*
X9458828Y122934D01*
X9503908Y104261D01*
X9551355Y92870D01*
X9600000Y89041D01*
X9648644Y92870D01*
X9696091Y104261D01*
X9741172Y122934D01*
X9782777Y148429D01*
X9819881Y180119D01*
X9851571Y217223D01*
X9877066Y258828D01*
X9895739Y303908D01*
X9907130Y351355D01*
X9910958Y400000D01*
X9907130Y448645D01*
X9895739Y496091D01*
X9877066Y541172D01*
X9851571Y582777D01*
X9819881Y619881D01*
X9782777Y651571D01*
X9741172Y677066D01*
X9696091Y695739D01*
X9648644Y707130D01*
X9600000Y710958D01*
D02*
G37*
G36*
X400000D02*
X351355Y707130D01*
X303908Y695739D01*
X258828Y677066D01*
X217223Y651571D01*
X180119Y619881D01*
X148429Y582777D01*
X122934Y541172D01*
X104261Y496091D01*
X92870Y448645D01*
X89041Y400000D01*
X92870Y351355D01*
X104261Y303908D01*
X122934Y258828D01*
X148429Y217223D01*
X180119Y180119D01*
X217223Y148429D01*
X258828Y122934D01*
X303908Y104261D01*
X351355Y92870D01*
X400000Y89041D01*
X448645Y92870D01*
X496091Y104261D01*
X541172Y122934D01*
X582777Y148429D01*
X619881Y180119D01*
X651571Y217223D01*
X677066Y258828D01*
X695739Y303908D01*
X707130Y351355D01*
X710958Y400000D01*
X707130Y448645D01*
X695739Y496091D01*
X677066Y541172D01*
X651571Y582777D01*
X619881Y619881D01*
X582777Y651571D01*
X541172Y677066D01*
X496091Y695739D01*
X448645Y707130D01*
X400000Y710958D01*
D02*
G37*
%LPD*%
G36*
X8235999Y2691520D02*
X8226000Y2685000D01*
X8116000D01*
Y2585000D01*
X8226000D01*
X8235999Y2578480D01*
Y2563051D01*
X8425999D01*
Y2563050D01*
X8438699Y2570400D01*
X8446000Y2569439D01*
X8462969Y2571673D01*
X8463940Y2572076D01*
X8479507Y2564777D01*
X8482223Y2558219D01*
X8491366Y2546305D01*
Y2483624D01*
X8478665Y2475139D01*
X8470969Y2478327D01*
X8454000Y2480561D01*
X8438699Y2478546D01*
X8437383Y2478954D01*
X8425999Y2483049D01*
X8425998Y2483049D01*
X8425998Y2483048D01*
X8235999D01*
Y2472934D01*
X8227000Y2464000D01*
X8117000D01*
Y2376500D01*
X8103000D01*
Y2231500D01*
X8116000D01*
Y2180334D01*
X8053445D01*
X8006390Y2227390D01*
X7990612Y2237932D01*
X7978919Y2240258D01*
X7976794Y2242362D01*
X7971931Y2252767D01*
X7971921Y2254334D01*
X7976370Y2265075D01*
X7978604Y2282043D01*
X7976370Y2299012D01*
X7974219Y2304206D01*
Y2708204D01*
X8032515Y2766500D01*
X8083300D01*
X8095999Y2766500D01*
Y2766500D01*
X8096001D01*
Y2766500D01*
X8235999D01*
Y2691520D01*
D02*
G37*
G36*
X7780743Y1984743D02*
X7830743Y1934743D01*
X7850589Y1921481D01*
X7874000Y1916825D01*
X7945000D01*
Y1903500D01*
X7958825D01*
Y1633175D01*
X7680579D01*
X7673469Y1636121D01*
X7656500Y1638355D01*
X7639532Y1636121D01*
X7633379Y1633572D01*
X7610657D01*
X7605797Y1645306D01*
X7752246Y1791755D01*
X7762744Y1807467D01*
X7766431Y1826000D01*
X7766430Y1826001D01*
Y1983302D01*
X7779130Y1987155D01*
X7780743Y1984743D01*
D02*
G37*
G36*
X1874754Y1311755D02*
X1874754Y1311755D01*
X1890466Y1301256D01*
X1909000Y1297570D01*
X2158485D01*
X2163345Y1285836D01*
X2038755Y1161246D01*
X2028256Y1145534D01*
X2024570Y1127000D01*
Y939658D01*
X2016223Y928780D01*
X2009673Y912968D01*
X2007439Y896000D01*
X2009673Y879032D01*
X2016223Y863220D01*
X2026642Y849642D01*
X2040220Y839223D01*
X2056032Y832673D01*
X2073000Y830439D01*
X2089969Y832673D01*
X2105781Y839223D01*
X2119358Y849642D01*
X2129777Y863220D01*
X2136327Y879032D01*
X2138561Y896000D01*
X2136327Y912968D01*
X2129777Y928780D01*
X2121431Y939658D01*
Y1106940D01*
X2249060Y1234570D01*
X5360094D01*
X5365355Y1221870D01*
X5255660Y1112175D01*
X4946576D01*
X4938969Y1115327D01*
X4922000Y1117561D01*
X4905032Y1115327D01*
X4899838Y1113175D01*
X4523000D01*
X4499589Y1108519D01*
X4479742Y1095257D01*
X4392661Y1008176D01*
X4192176D01*
Y1028838D01*
X4194327Y1034032D01*
X4196561Y1051000D01*
X4194327Y1067969D01*
X4187777Y1083780D01*
X4177358Y1097358D01*
X4163781Y1107777D01*
X4147969Y1114327D01*
X4131000Y1116561D01*
X4114032Y1114327D01*
X4098220Y1107777D01*
X4084642Y1097358D01*
X4074223Y1083780D01*
X4067673Y1067969D01*
X4065439Y1051000D01*
X4067673Y1034032D01*
X4069825Y1028838D01*
Y1008176D01*
X3882176D01*
Y1029838D01*
X3884327Y1035032D01*
X3886561Y1052000D01*
X3884327Y1068969D01*
X3877777Y1084781D01*
X3867359Y1098358D01*
X3853781Y1108777D01*
X3837969Y1115327D01*
X3821000Y1117561D01*
X3804032Y1115327D01*
X3788220Y1108777D01*
X3774642Y1098358D01*
X3764223Y1084781D01*
X3757673Y1068969D01*
X3755440Y1052000D01*
X3757673Y1035032D01*
X3759825Y1029838D01*
Y1008176D01*
X3237868D01*
X3235780Y1009777D01*
X3219969Y1016327D01*
X3203000Y1018561D01*
X3186032Y1016327D01*
X3170220Y1009777D01*
X3156642Y999358D01*
X3146223Y985781D01*
X3139673Y969969D01*
X3137439Y953000D01*
X3139673Y936032D01*
X3146223Y920220D01*
X3156642Y906642D01*
X3170220Y896223D01*
X3186032Y889673D01*
X3196735Y888264D01*
X3209000Y885825D01*
X4400768D01*
X4406029Y873125D01*
X4327884Y794980D01*
X1917116D01*
X1861980Y850116D01*
Y1306569D01*
X1874680Y1311830D01*
X1874754Y1311755D01*
D02*
G37*
D25*
X6732000Y179000D02*
D03*
Y329000D02*
D03*
X6543000Y333000D02*
D03*
Y183000D02*
D03*
X6994000Y327000D02*
D03*
Y177000D02*
D03*
D33*
X8021000Y2839000D02*
D03*
X8171000D02*
D03*
X8028000Y2304000D02*
D03*
X8178000D02*
D03*
X8170000Y1976000D02*
D03*
X8020000D02*
D03*
D37*
X5825900Y1965227D02*
Y3176855D01*
X5853000Y3203955D01*
Y3209000D01*
X7536200Y2044200D02*
Y3063200D01*
X5848527Y1942600D02*
X7434600D01*
X7536200Y2044200D01*
X7672000Y1843639D02*
Y2895562D01*
X7269000Y1711000D02*
X7539360D01*
X7540500Y1648500D02*
X7718000Y1826000D01*
Y2877922D01*
X6234489Y1648500D02*
X7540500D01*
X7539360Y1711000D02*
X7672000Y1843639D01*
X5825900Y1965227D02*
X5848527Y1942600D01*
X7536200Y3063200D02*
X7677000Y3204000D01*
X6039000Y930000D02*
Y931000D01*
Y736000D02*
Y930000D01*
X7796379Y3431621D02*
X7861000Y3367000D01*
Y3020922D02*
Y3367000D01*
X7655954Y3431621D02*
X7796379D01*
X7624766Y3462809D02*
X7655954Y3431621D01*
X7816000Y3039562D02*
Y3348000D01*
X7611610Y3386621D02*
X7777379D01*
X7816000Y3348000D01*
X7623809Y3462809D02*
X7624766D01*
X7561310Y3436921D02*
X7611610Y3386621D01*
X7672000Y2895562D02*
X7816000Y3039562D01*
X7718000Y2877922D02*
X7861000Y3020922D01*
X7626580Y3587580D02*
X7628809Y3589809D01*
X7561310Y3563310D02*
X7585580Y3587580D01*
X7561310Y3436921D02*
Y3563310D01*
X7585580Y3587580D02*
X7626580D01*
X5188000Y1405000D02*
X5242500Y1459500D01*
Y1460000D01*
X1972000Y1405000D02*
X5188000D01*
X5242500Y2575000D02*
X5243500Y2574000D01*
X5532000D01*
X6233989Y1649000D02*
X6234489Y1648500D01*
X1581000Y1796000D02*
X1972000Y1405000D01*
X1484000Y1796000D02*
X1581000D01*
X1909000Y1346000D02*
X5335000D01*
X1588000Y1667000D02*
X1909000Y1346000D01*
X1411799Y1667000D02*
X1588000D01*
X6427000Y800000D02*
X6428000Y801000D01*
X7334000D01*
X6993001Y328000D02*
Y425707D01*
Y328000D02*
X6994000Y327000D01*
X8172000Y2414000D02*
X8330048D01*
X8330999Y2413049D01*
X8332951Y2415000D02*
X8454000D01*
X8330999Y2413049D02*
X8332951Y2415000D01*
X5456489Y1467489D02*
X5915489D01*
X5335000Y1346000D02*
X5456489Y1467489D01*
X5482000Y1394000D02*
X6042929D01*
X2229000Y1283000D02*
X5371000D01*
X5482000Y1394000D01*
X5284000Y932000D02*
X5557000Y1205000D01*
X5133000Y932000D02*
X5284000D01*
X5557000Y1205000D02*
X5750000D01*
X5417500Y2317000D02*
X5602191D01*
X5605000Y2319809D01*
X1354000Y1047315D02*
Y1609201D01*
Y1047315D02*
X1419315Y982000D01*
X1484000D01*
X1354000Y1609201D02*
X1411799Y1667000D01*
X2073000Y896000D02*
Y1127000D01*
X2229000Y1283000D01*
D38*
X5593000Y2827000D02*
X5649000D01*
X5684000Y1809000D02*
Y2792000D01*
X5649000Y2827000D02*
X5684000Y2792000D01*
X5780700Y3256700D02*
X5853000Y3329000D01*
X5780700Y1946505D02*
Y3256700D01*
X5853000Y3329000D02*
Y3329000D01*
X5684000Y1809000D02*
X5713302Y1779698D01*
X7524059D02*
X7626800Y1882439D01*
X5829805Y1897400D02*
X7453322D01*
X7581400Y2025478D02*
Y3007400D01*
X7453322Y1897400D02*
X7581400Y2025478D01*
X5713302Y1779698D02*
X7524059D01*
X7626800Y1882439D02*
Y2938800D01*
X4922905Y2189904D02*
X5613904D01*
X5616809Y2192809D01*
X5780700Y1946505D02*
X5829805Y1897400D01*
X6543001Y333000D02*
Y429707D01*
X6543000Y333000D02*
X6543001Y333000D01*
X7731000Y3043000D02*
X7731000D01*
X7626800Y2938800D02*
X7731000Y3043000D01*
X7581400Y3007400D02*
X7701000Y3127000D01*
X7771000Y2814000D02*
X7853000Y2896000D01*
X7771000Y2350692D02*
Y2814000D01*
X4920000Y2187000D02*
X4922905Y2189904D01*
X7771000Y2350692D02*
X7787329Y2334363D01*
Y2325000D02*
Y2334363D01*
X7914719Y2193000D02*
X7972000D01*
X7912000Y2190281D02*
X7914719Y2193000D01*
X7972000D02*
X8033300Y2131700D01*
X8151421D01*
X8171000Y2112121D01*
Y2084000D02*
Y2112121D01*
Y1977000D02*
Y2084000D01*
X8540000Y2251000D02*
Y2590000D01*
X8539000Y2591000D02*
X8540000Y2590000D01*
X8482049Y2193049D02*
X8540000Y2251000D01*
X8330999Y2193049D02*
X8482049D01*
X8171952Y2838049D02*
X8330999D01*
X8171000Y2839000D02*
X8171952Y2838049D01*
X8170000Y1976000D02*
X8171000Y1977000D01*
Y2084000D02*
X8171951Y2083049D01*
X8330999D01*
X8329050Y2635000D02*
X8330999Y2633051D01*
X8171000Y2635000D02*
X8329050D01*
X8330950Y2193000D02*
X8330999Y2193049D01*
X8171000Y2193000D02*
X8330950D01*
X8330999Y2633051D02*
X8444051D01*
X8446000Y2635000D01*
X5227000Y3085000D02*
X5596000D01*
X5207000Y2956000D02*
X5593000D01*
D39*
X6356000Y749000D02*
Y930000D01*
X4349000Y744000D02*
X4568000Y963000D01*
X5025000D01*
X1896000Y744000D02*
X4349000D01*
X5799000Y1845000D02*
X7480822D01*
X7483424Y1842398D01*
X5733000Y1911000D02*
Y3387807D01*
X5658426Y3462380D02*
X5733000Y3387807D01*
Y1911000D02*
X5799000Y1845000D01*
X5581000Y3462380D02*
X5658426D01*
X6295000Y1468000D02*
X7367000D01*
X5944000Y1117000D02*
X6295000Y1468000D01*
X5690000Y1117000D02*
X5944000D01*
X5215000Y2700809D02*
X5538191D01*
X5245000Y672000D02*
X5690000Y1117000D01*
X1841000Y672000D02*
X5245000D01*
X1741000Y772000D02*
X1841000Y672000D01*
X1811000Y829000D02*
X1896000Y744000D01*
X1811000Y829000D02*
Y1315000D01*
X1741000Y772000D02*
Y1168000D01*
X1657999Y1251000D02*
X1741000Y1168000D01*
X1478000Y1251000D02*
X1657999D01*
X7989000Y2084000D02*
X8087000D01*
X7899000Y2065281D02*
X7902719Y2068999D01*
X7974000D01*
X7989000Y2084000D01*
X8027000Y2212000D02*
Y2303000D01*
X8028000Y2304000D01*
X8046000Y2193000D02*
X8087000D01*
X8027000Y2212000D02*
X8046000Y2193000D01*
X8087000Y2635000D02*
Y2712999D01*
X6356000Y749000D02*
X6399000Y706000D01*
X6666000D01*
X6729000Y330000D02*
Y427706D01*
X3858000Y4377000D02*
X3915000Y4320000D01*
Y3400000D02*
Y4320000D01*
X1547582Y4313582D02*
X1668000Y4434000D01*
X4431000D01*
X1547582Y3501582D02*
Y4313582D01*
X1493000Y3447000D02*
X1547582Y3501582D01*
X1250000Y3351000D02*
X1324000D01*
X1420000Y3447000D01*
X1493000D01*
X1459000Y3348000D02*
X1537000D01*
X1621000Y3432000D01*
Y4284000D01*
X1714000Y4377000D01*
X3858000D01*
X1482600Y1523000D02*
X1603000D01*
X1811000Y1315000D01*
D40*
X8028000Y3444000D02*
X8144000Y3560000D01*
Y4132000D01*
X8022000Y2951000D02*
Y3435294D01*
X8028000Y3441294D01*
Y3444000D01*
X8021000Y2950000D02*
X8022000Y2951000D01*
X8330047Y2304000D02*
X8331091Y2302956D01*
X8019000Y1572000D02*
X9241500D01*
X4418000Y947000D02*
X4523000Y1052000D01*
X4922000D01*
X4923000Y1051000D02*
X5281000D01*
X4922000Y1052000D02*
X4923000Y1051000D01*
X4136000Y947000D02*
X4418000D01*
X8021000Y2839000D02*
Y2950000D01*
X7913043Y2733544D02*
X8018500Y2839000D01*
X7913043Y2282043D02*
Y2733544D01*
X8018500Y2839000D02*
X8021000D01*
X7912087Y2281087D02*
X7913043Y2282043D01*
X8020000Y1573000D02*
Y1947000D01*
X8019000Y1572000D02*
X8020000Y1573000D01*
X7657294Y1572000D02*
X8019000D01*
X7874000Y1978000D02*
X8005000D01*
X7656103Y1572397D02*
X7656500Y1572794D01*
X5642397Y1572397D02*
X7656103D01*
X5642000Y1572000D02*
X5642397Y1572397D01*
X4944000Y1572000D02*
X5642000D01*
X7656500Y1572794D02*
X7657294Y1572000D01*
X7586000Y704000D02*
X7655000Y773000D01*
X6675071Y704000D02*
X7586000D01*
X7655000Y773000D02*
Y1035000D01*
X9495000Y1355000D02*
Y2532000D01*
X9677300Y981500D02*
Y1172700D01*
X9495000Y1355000D02*
X9677300Y1172700D01*
X9324500Y1655000D02*
Y2430500D01*
X9241500Y1572000D02*
X9324500Y1655000D01*
X9426000Y2601000D02*
X9495000Y2532000D01*
X9136000Y2601000D02*
X9426000D01*
X7792000Y536000D02*
X7900000D01*
X6396000Y607000D02*
X7721000D01*
X7792000Y536000D01*
X7785000Y140000D02*
Y384001D01*
X7636000Y533000D02*
X7785000Y384001D01*
X6677000Y533000D02*
X7636000D01*
X8330999Y1700707D02*
Y1818048D01*
Y1700707D02*
X8334000Y1697706D01*
Y1695000D02*
Y1697706D01*
X8005000Y1978000D02*
X8007500Y1980500D01*
Y1988500D01*
X7824000Y2028000D02*
X7874000Y1978000D01*
X7824000Y2028000D02*
Y2237000D01*
X7868087Y2281087D02*
X7912087D01*
X7824000Y2237000D02*
X7868087Y2281087D01*
X8007500Y1988500D02*
X8020000Y1976000D01*
X8331091Y2302956D02*
X8436338D01*
X8461294Y2278000D01*
X8464000D01*
X6666000Y706000D02*
X6667913Y704087D01*
X6674984D02*
X6675071Y704000D01*
X6667913Y704087D02*
X6674984D01*
X7785000Y140000D02*
X7831000Y94000D01*
X7900000D01*
X6626913Y482913D02*
X6677000Y533000D01*
X6626913Y438913D02*
Y482913D01*
X6625000Y437000D02*
X6626913Y438913D01*
X6341000Y552000D02*
X6396000Y607000D01*
X6341000Y439000D02*
Y552000D01*
X9132201Y2499504D02*
X9133697Y2501000D01*
X9254000D01*
X8178000Y2304000D02*
X8330047D01*
X4778000Y1738000D02*
X4944000Y1572000D01*
X4778000Y1738000D02*
Y3264000D01*
X5521500Y1291500D02*
X5642000D01*
X5281000Y1051000D02*
X5521500Y1291500D01*
X9254000Y2501000D02*
X9324500Y2430500D01*
X4694000Y3348000D02*
X4778000Y3264000D01*
X4131000Y952000D02*
Y1051000D01*
X3203000Y953000D02*
X3209000Y947000D01*
X3821000Y963000D02*
X3837000Y947000D01*
X3821000Y963000D02*
Y1052000D01*
X3837000Y947000D02*
X4136000D01*
X4131000Y952000D02*
X4136000Y947000D01*
X3209000D02*
X3837000D01*
D46*
X370000Y1003000D02*
D03*
Y1253000D02*
D03*
Y1503000D02*
D03*
X4010000Y361000D02*
D03*
X4260000D02*
D03*
X5420000Y364000D02*
D03*
X5170000D02*
D03*
X8644000Y4132000D02*
D03*
X8394000D02*
D03*
X8144000D02*
D03*
D47*
X370000Y1753000D02*
D03*
D48*
X3417000Y1857000D02*
D03*
X377000Y3356000D02*
D03*
D49*
X2917000Y1857000D02*
D03*
X877000Y3356000D02*
D03*
D50*
X3278000Y4130000D02*
D03*
X4310000Y1523000D02*
D03*
X2289000Y3497000D02*
D03*
D51*
X3028000Y4130000D02*
D03*
X4560000Y1523000D02*
D03*
X2039000Y3497000D02*
D03*
D52*
X6463989Y3014809D02*
D03*
X6323989D02*
D03*
X6603989D02*
D03*
X6323989Y2874809D02*
D03*
X6463989D02*
D03*
X6603989D02*
D03*
X6393989Y3084809D02*
D03*
X6533989D02*
D03*
X6393989Y2944809D02*
D03*
X6533989D02*
D03*
X6393989Y2804809D02*
D03*
X6533989D02*
D03*
D53*
X588000Y2624000D02*
D03*
D54*
Y2274000D02*
D03*
D55*
X3024000Y2766000D02*
D03*
Y3020000D02*
D03*
D56*
Y3274000D02*
D03*
D57*
X1967999Y361000D02*
D03*
X1045000Y362000D02*
D03*
X2862000Y361000D02*
D03*
D58*
X2218000D02*
D03*
X3112000D02*
D03*
X1295000Y362000D02*
D03*
D59*
X3760000Y361000D02*
D03*
X4920000Y364000D02*
D03*
X8894000Y4132000D02*
D03*
D60*
X400000Y400000D02*
D03*
Y4100000D02*
D03*
X9600000D02*
D03*
Y400000D02*
D03*
D61*
X8028000Y3444000D02*
D03*
X7808000Y3611000D02*
D03*
X8484401Y2813870D02*
D03*
X7818000Y1839000D02*
D03*
X9789000Y2112000D02*
D03*
X9783000Y2580000D02*
D03*
X4922000Y1052000D02*
D03*
X8022000Y2951000D02*
D03*
X7483424Y1842398D02*
D03*
X5616809Y2192809D02*
D03*
X6543001Y429707D02*
D03*
X8267000Y3476000D02*
D03*
X9056000Y3141000D02*
D03*
X7913043Y2282043D02*
D03*
X7701000Y3127000D02*
D03*
X7677000Y3204000D02*
D03*
X7731000Y3043000D02*
D03*
X7853000Y2896000D02*
D03*
X4920000Y2187000D02*
D03*
X5593000Y2827000D02*
D03*
X5853000Y3329000D02*
D03*
Y3209000D02*
D03*
X7787329Y2325000D02*
D03*
X8546000Y1006647D02*
D03*
X8161000Y1008647D02*
D03*
X7656500Y1572794D02*
D03*
X7655000Y1035000D02*
D03*
X9041999Y1572999D02*
D03*
X7367000Y1468000D02*
D03*
X5025000Y963000D02*
D03*
X5242500Y1460000D02*
D03*
Y2575000D02*
D03*
X5215000Y2700809D02*
D03*
X5538191D02*
D03*
X1478000Y1251000D02*
D03*
X8860000Y1648000D02*
D03*
X9677300Y981500D02*
D03*
X8334000Y1695000D02*
D03*
X5532000Y2574000D02*
D03*
X7912000Y2190281D02*
D03*
X7899000Y2065281D02*
D03*
X8087000Y2712999D02*
D03*
X8464000Y2278000D02*
D03*
X5642000Y1572000D02*
D03*
X6233989Y1649000D02*
D03*
X1484000Y1796000D02*
D03*
X6427000Y800000D02*
D03*
X6666000Y706000D02*
D03*
X6625000Y437000D02*
D03*
X6892001Y430999D02*
D03*
X6341000Y439000D02*
D03*
X9128000Y1801000D02*
D03*
X8539000Y2591000D02*
D03*
X9136000Y2601000D02*
D03*
X9132201Y2499504D02*
D03*
X6243000Y420000D02*
D03*
X6993001Y425707D02*
D03*
X6729000Y427706D02*
D03*
X8454000Y2415000D02*
D03*
X8446000Y2635000D02*
D03*
X7900000Y94000D02*
D03*
X7912000Y244000D02*
D03*
X5915489Y1467489D02*
D03*
X7912000Y686000D02*
D03*
X5133000Y932000D02*
D03*
X5750000Y1205000D02*
D03*
X6042929Y1394000D02*
D03*
X6366000Y929000D02*
D03*
X7334000Y801000D02*
D03*
X6039000Y930000D02*
D03*
Y736000D02*
D03*
X7489000Y836000D02*
D03*
X7900000Y536000D02*
D03*
X5642000Y1291500D02*
D03*
X5417500Y2317000D02*
D03*
X6968001Y3711000D02*
D03*
X7068001D02*
D03*
X7168001D02*
D03*
X7268002D02*
D03*
X7368002D02*
D03*
X7608002D02*
D03*
X6268001D02*
D03*
X6368001D02*
D03*
X6468001D02*
D03*
X6568001D02*
D03*
X6668001D02*
D03*
X6768001D02*
D03*
X6868001D02*
D03*
X5618000D02*
D03*
X5868000D02*
D03*
X5968000D02*
D03*
X6068000D02*
D03*
X6168001D02*
D03*
X5110000Y3214000D02*
D03*
X5365000Y3217000D02*
D03*
X5596000Y3085000D02*
D03*
X5227000D02*
D03*
X5593000Y2956000D02*
D03*
X5207000D02*
D03*
X2073000Y896000D02*
D03*
X5605000Y2319809D02*
D03*
X7628809Y3589809D02*
D03*
X7623809Y3462809D02*
D03*
X5581000Y3462380D02*
D03*
X4694000Y3348000D02*
D03*
X5518000Y4411000D02*
D03*
Y4311000D02*
D03*
Y4211000D02*
D03*
Y4111000D02*
D03*
Y4011000D02*
D03*
Y3911000D02*
D03*
Y3811000D02*
D03*
Y3711000D02*
D03*
X7708000Y4411000D02*
D03*
Y4311000D02*
D03*
Y4211000D02*
D03*
Y4111000D02*
D03*
Y4011000D02*
D03*
Y3911000D02*
D03*
Y3811000D02*
D03*
Y3711000D02*
D03*
X5418000Y4411000D02*
D03*
X7808000D02*
D03*
X5418000Y3711000D02*
D03*
Y3811000D02*
D03*
Y3911000D02*
D03*
Y4011000D02*
D03*
Y4111000D02*
D03*
Y4211000D02*
D03*
Y4311000D02*
D03*
X7808000Y3711000D02*
D03*
Y3811000D02*
D03*
Y3911000D02*
D03*
Y4011000D02*
D03*
Y4111000D02*
D03*
Y4211000D02*
D03*
Y4311000D02*
D03*
X1250000Y3351000D02*
D03*
X3915000Y3400000D02*
D03*
X4431000Y4434000D02*
D03*
X4131000Y1051000D02*
D03*
X2914000Y952000D02*
D03*
X1186600Y1517000D02*
D03*
X1186600Y1796000D02*
D03*
X1184600Y1252000D02*
D03*
X1459000Y3348000D02*
D03*
X1482600Y1523000D02*
D03*
X1484000Y982000D02*
D03*
X3203000Y953000D02*
D03*
X7269000Y1711000D02*
D03*
X4015000Y1040000D02*
D03*
X3709000Y1042000D02*
D03*
X3821000Y1052000D02*
D03*
D62*
X8171000Y2635000D02*
D03*
X8087000D02*
D03*
X8171000Y2084000D02*
D03*
X8087000D02*
D03*
X8171000Y2193000D02*
D03*
X8087000D02*
D03*
X8172000Y2414000D02*
D03*
X8088000D02*
D03*
D63*
X9796000Y2933000D02*
D03*
D64*
X9840999Y1582998D02*
D03*
D65*
X8760998Y2933050D02*
D03*
X8330999Y1818048D02*
D03*
D66*
Y2838049D02*
D03*
Y2523048D02*
D03*
Y2303049D02*
D03*
Y2083049D02*
D03*
Y2743050D02*
D03*
Y2413049D02*
D03*
Y1973049D02*
D03*
Y2193049D02*
D03*
Y2633051D02*
D03*
D67*
X9381000Y2933050D02*
D03*
D68*
X271000Y2129000D02*
Y2854000D01*
X399000Y2982000D02*
X2482000D01*
X271000Y2854000D02*
X399000Y2982000D01*
X271000Y2129000D02*
X370000Y2030000D01*
Y1753000D02*
Y2030000D01*
X2779000Y3279000D02*
X3024000D01*
X2482000Y2982000D02*
X2779000Y3279000D01*
%TF.MD5,be01e0899cf3ed315671609649fc9825*%
M02*
