G04 Layer_Physical_Order=2*
G04 Layer_Color=16440176*
%FSLAX45Y45*%
%MOMM*%
%TF.FileFunction,Copper,L2,Inr,Signal*%
%TF.Part,Single*%
G01*
G75*
%TA.AperFunction,ComponentPad*%
%ADD37R,1.40000X1.40000*%
%ADD38C,1.40000*%
%ADD39C,1.65000*%
%ADD40R,1.65000X1.65000*%
%ADD41C,0.60000*%
%ADD42C,1.20000*%
%ADD43R,1.20000X1.20000*%
%ADD44R,1.10000X1.10000*%
%ADD45C,1.10000*%
%TA.AperFunction,ViaPad*%
%ADD46C,5.50000*%
%TA.AperFunction,ComponentPad*%
%ADD47C,1.50000*%
%ADD49C,1.57500*%
%ADD50R,1.57500X1.57500*%
%ADD51C,1.50800*%
%ADD52R,1.50800X1.50800*%
%ADD53R,1.50800X1.50800*%
%TA.AperFunction,ViaPad*%
%ADD54C,0.60000*%
%TA.AperFunction,NonConductor*%
%ADD55C,0.20320*%
D37*
X3024000Y3274000D02*
D03*
D38*
Y3020000D02*
D03*
Y2766000D02*
D03*
D39*
X588000Y2274000D02*
D03*
X9627000Y1361000D02*
D03*
X9373001D02*
D03*
X9627000Y1615000D02*
D03*
X9373000D02*
D03*
X9627001Y1869000D02*
D03*
X9373000D02*
D03*
X9627000Y2123000D02*
D03*
X9373001Y2123000D02*
D03*
X9627000Y2377000D02*
D03*
X9373001Y2377000D02*
D03*
X9373000Y2631000D02*
D03*
X9627000D02*
D03*
X9373000Y2885000D02*
D03*
X9627000Y2885000D02*
D03*
Y3139000D02*
D03*
X5819000Y193000D02*
D03*
Y447000D02*
D03*
X6073000Y193000D02*
D03*
Y447000D02*
D03*
X6327000Y193000D02*
D03*
Y447000D02*
D03*
X6581000Y193000D02*
D03*
Y447000D02*
D03*
X6835000Y193000D02*
D03*
Y447000D02*
D03*
X7089000Y193000D02*
D03*
Y447000D02*
D03*
X7343000Y193000D02*
D03*
Y447000D02*
D03*
X7597000Y193000D02*
D03*
Y447000D02*
D03*
X7851000Y193000D02*
D03*
Y447000D02*
D03*
D40*
X588000Y2624000D02*
D03*
X9373001Y3139000D02*
D03*
D41*
X6533989Y2804809D02*
D03*
X6393989D02*
D03*
X6533989Y2944809D02*
D03*
X6393989D02*
D03*
X6533989Y3084809D02*
D03*
X6393989D02*
D03*
X6603989Y2874809D02*
D03*
X6463989D02*
D03*
X6323989D02*
D03*
X6603989Y3014809D02*
D03*
X6323989D02*
D03*
X6463989D02*
D03*
D42*
X2917000Y1857000D02*
D03*
X877000Y3356000D02*
D03*
D43*
X3417000Y1857000D02*
D03*
X377000Y3356000D02*
D03*
D44*
X3028000Y4130000D02*
D03*
X4560000Y1523000D02*
D03*
X2039000Y3497000D02*
D03*
D45*
X3278000Y4130000D02*
D03*
X4310000Y1523000D02*
D03*
X1845000Y393000D02*
D03*
X2345000Y393000D02*
D03*
X2289000Y3497000D02*
D03*
D46*
X400000Y400000D02*
D03*
Y4100000D02*
D03*
X9600000D02*
D03*
Y400000D02*
D03*
D47*
X1745000Y123001D02*
D03*
X2450000Y123001D02*
D03*
D49*
X3057000Y360000D02*
D03*
X1262001Y372000D02*
D03*
D50*
X2807000Y360000D02*
D03*
X1012000Y372000D02*
D03*
D51*
X9033000Y354000D02*
D03*
X8783000D02*
D03*
X8533000D02*
D03*
X8644000Y4132000D02*
D03*
X8394000D02*
D03*
X8144000D02*
D03*
X4350000Y362000D02*
D03*
X4100000D02*
D03*
X3850000D02*
D03*
X370000Y1503000D02*
D03*
Y1253000D02*
D03*
Y1003000D02*
D03*
X5139000Y362000D02*
D03*
X5389000D02*
D03*
D52*
X8283000Y354000D02*
D03*
X8894000Y4132000D02*
D03*
X3600000Y362000D02*
D03*
X4889000D02*
D03*
D53*
X370000Y1753000D02*
D03*
D54*
X7545000Y976000D02*
D03*
X8427000Y3538000D02*
D03*
X8667000Y3334000D02*
D03*
X8843000Y2827000D02*
D03*
X7840000Y2901000D02*
D03*
X7773000Y3107000D02*
D03*
X8544000Y1389000D02*
D03*
X7849000Y1673000D02*
D03*
X6968001Y3711000D02*
D03*
X7068001D02*
D03*
X7168001D02*
D03*
X7268002D02*
D03*
X7368002D02*
D03*
X7608002D02*
D03*
X6268001D02*
D03*
X6368001D02*
D03*
X6468001D02*
D03*
X6568001D02*
D03*
X6668001D02*
D03*
X6768001D02*
D03*
X6868001D02*
D03*
X5618000D02*
D03*
X5868000D02*
D03*
X5968000D02*
D03*
X6068000D02*
D03*
X6168001D02*
D03*
X5110000Y3214000D02*
D03*
X5365000Y3217000D02*
D03*
X8140000Y2013000D02*
D03*
X9010000Y1826000D02*
D03*
X9105500Y2645500D02*
D03*
X9030000Y2333000D02*
D03*
X8963000Y2683000D02*
D03*
X9180000Y2545000D02*
D03*
X5596000Y3085000D02*
D03*
X5227000D02*
D03*
X5593000Y2956000D02*
D03*
X5207000D02*
D03*
X5235809Y2188000D02*
D03*
X5194000Y2819000D02*
D03*
X5231000Y2700000D02*
D03*
X5615809Y2192809D02*
D03*
X2073000Y896000D02*
D03*
X5597000Y2700000D02*
D03*
X5605000Y2819000D02*
D03*
X4330000Y1050000D02*
D03*
X7039000Y724000D02*
D03*
X6085000Y850000D02*
D03*
X6373000Y794000D02*
D03*
X6386989Y703999D02*
D03*
X6374000Y623000D02*
D03*
X5478000Y2317000D02*
D03*
X5605000Y2319809D02*
D03*
X7281000Y645000D02*
D03*
X7628809Y3589809D02*
D03*
X7623809Y3462809D02*
D03*
X7982000Y1785000D02*
D03*
X7986990Y3029990D02*
D03*
X5581000Y3462380D02*
D03*
X4694000Y3348000D02*
D03*
X5518000Y4411000D02*
D03*
Y4311000D02*
D03*
Y4211000D02*
D03*
Y4111000D02*
D03*
Y4011000D02*
D03*
Y3911000D02*
D03*
Y3811000D02*
D03*
Y3711000D02*
D03*
X7708000Y4411000D02*
D03*
Y4311000D02*
D03*
Y4211000D02*
D03*
Y4111000D02*
D03*
Y4011000D02*
D03*
Y3911000D02*
D03*
Y3811000D02*
D03*
Y3711000D02*
D03*
X5418000Y4411000D02*
D03*
X7808000D02*
D03*
X5418000Y3711000D02*
D03*
Y3811000D02*
D03*
Y3911000D02*
D03*
Y4011000D02*
D03*
Y4111000D02*
D03*
Y4211000D02*
D03*
Y4311000D02*
D03*
X7808000Y3711000D02*
D03*
Y3811000D02*
D03*
Y3911000D02*
D03*
Y4011000D02*
D03*
Y4111000D02*
D03*
Y4211000D02*
D03*
Y4311000D02*
D03*
X1250000Y3351000D02*
D03*
X3915000Y3400000D02*
D03*
X4431000Y4434000D02*
D03*
X4131000Y1051000D02*
D03*
X2914000Y952000D02*
D03*
X1186600Y1517000D02*
D03*
X1186600Y1796000D02*
D03*
X1184600Y1252000D02*
D03*
X1459000Y3348000D02*
D03*
X7498000Y1786000D02*
D03*
X5665000Y1037000D02*
D03*
X5750000Y1110201D02*
D03*
X5642000Y1167000D02*
D03*
X7429985Y1172998D02*
D03*
X7351000Y1235000D02*
D03*
X1482600Y1523000D02*
D03*
X1485600Y1795000D02*
D03*
X1495600Y1257000D02*
D03*
X8192000Y3542000D02*
D03*
X1484000Y982000D02*
D03*
X3203000Y953000D02*
D03*
X7269000Y1711000D02*
D03*
X6573000Y1655000D02*
D03*
X5642000Y1572000D02*
D03*
X6045000Y1362000D02*
D03*
X5096990Y1301997D02*
D03*
X5169500Y1238000D02*
D03*
X5134000Y976000D02*
D03*
X4588000Y829000D02*
D03*
X4444000Y1047000D02*
D03*
X5232000Y1179000D02*
D03*
X4818300Y1365300D02*
D03*
X4015000Y1040000D02*
D03*
X3709000Y1042000D02*
D03*
X3821000Y1052000D02*
D03*
D55*
X-14208830Y7369011D02*
X-14012061Y7565781D01*
Y7575781D01*
%TF.MD5,e8c595816f1cf6430a03f03a9a092032*%
M02*
