%TF.GenerationSoftware,Altium Limited,Altium Designer,23.4.1 (23)*%
G04 Layer_Color=255*
%FSLAX45Y45*%
%MOMM*%
%TF.SameCoordinates,D6ADF24A-3376-43E2-8D1E-8FFFCD63A60F*%
%TF.FilePolarity,Positive*%
%TF.FileFunction,Pads,Top*%
%TF.Part,Single*%
G01*
G75*
%TA.AperFunction,SMDPad,CuDef*%
%ADD10R,0.70000X0.25000*%
%ADD11R,0.65000X0.40000*%
%ADD12R,0.65000X1.60000*%
%ADD13R,0.95000X0.85000*%
%ADD14R,1.50000X1.30000*%
%ADD15R,1.50000X3.50000*%
%ADD16R,1.34000X0.59000*%
%ADD17R,2.85000X3.10000*%
%ADD18R,2.28000X2.12000*%
%ADD19R,1.00000X1.60000*%
G04:AMPARAMS|DCode=20|XSize=2.33mm|YSize=3.07mm|CornerRadius=0.29125mm|HoleSize=0mm|Usage=FLASHONLY|Rotation=270.000|XOffset=0mm|YOffset=0mm|HoleType=Round|Shape=RoundedRectangle|*
%AMROUNDEDRECTD20*
21,1,2.33000,2.48750,0,0,270.0*
21,1,1.74750,3.07000,0,0,270.0*
1,1,0.58250,-1.24375,-0.87375*
1,1,0.58250,-1.24375,0.87375*
1,1,0.58250,1.24375,0.87375*
1,1,0.58250,1.24375,-0.87375*
%
%ADD20ROUNDEDRECTD20*%
%ADD21R,1.60000X1.40000*%
%TA.AperFunction,BGAPad,CuDef*%
%ADD22R,0.90000X0.90000*%
%TA.AperFunction,SMDPad,CuDef*%
%ADD23R,1.50000X0.90000*%
%ADD24R,0.90000X1.50000*%
%ADD25R,0.75000X0.80000*%
%ADD26R,1.00000X0.55000*%
%TA.AperFunction,ConnectorPad*%
%ADD27R,2.00000X0.61000*%
%ADD28R,3.60000X2.68000*%
%TA.AperFunction,SMDPad,CuDef*%
%ADD29R,0.30000X1.10000*%
%ADD30R,2.30000X3.10000*%
G04:AMPARAMS|DCode=31|XSize=1.21mm|YSize=0.59mm|CornerRadius=0.02655mm|HoleSize=0mm|Usage=FLASHONLY|Rotation=180.000|XOffset=0mm|YOffset=0mm|HoleType=Round|Shape=RoundedRectangle|*
%AMROUNDEDRECTD31*
21,1,1.21000,0.53690,0,0,180.0*
21,1,1.15690,0.59000,0,0,180.0*
1,1,0.05310,-0.57845,0.26845*
1,1,0.05310,0.57845,0.26845*
1,1,0.05310,0.57845,-0.26845*
1,1,0.05310,-0.57845,-0.26845*
%
%ADD31ROUNDEDRECTD31*%
%ADD32R,1.40000X1.00000*%
%ADD33R,0.80000X0.75000*%
%ADD34R,1.60000X1.00000*%
%ADD35R,3.10000X2.85000*%
%TA.AperFunction,ComponentPad*%
%ADD46C,1.50800*%
%ADD47R,1.50800X1.50800*%
%ADD48R,1.20000X1.20000*%
%ADD49C,1.20000*%
%ADD50C,1.10000*%
%ADD51R,1.10000X1.10000*%
%ADD52C,0.60000*%
%ADD53R,1.65000X1.65000*%
%ADD54C,1.65000*%
%ADD55C,1.40000*%
%ADD56R,1.40000X1.40000*%
%ADD57R,1.57500X1.57500*%
%ADD58C,1.57500*%
%ADD59R,1.50800X1.50800*%
%TA.AperFunction,ViaPad*%
%ADD60C,5.50000*%
D10*
X8433000Y3176000D02*
D03*
Y3126000D02*
D03*
Y3076000D02*
D03*
Y3026000D02*
D03*
Y2976000D02*
D03*
Y2926000D02*
D03*
D11*
X8885500Y3176000D02*
D03*
Y2926000D02*
D03*
D12*
Y3456000D02*
D03*
Y2646000D02*
D03*
D13*
X1455000Y3937001D02*
D03*
Y3777000D02*
D03*
X1250000Y3776000D02*
D03*
Y3936000D02*
D03*
D14*
X4062999Y3855600D02*
D03*
Y3627000D02*
D03*
Y3398400D02*
D03*
D15*
X4692919Y3627000D02*
D03*
D16*
X2199000Y1086000D02*
D03*
X2199001Y991000D02*
D03*
X2199000Y896000D02*
D03*
X2437000Y896000D02*
D03*
X2437000Y991000D02*
D03*
X2437000Y1086000D02*
D03*
D17*
X4022000Y2303000D02*
D03*
X4571999D02*
D03*
D18*
X1938500Y4265000D02*
D03*
X2371500D02*
D03*
D19*
X4566000Y2770000D02*
D03*
X4266000D02*
D03*
X2289000Y3953000D02*
D03*
X1989000D02*
D03*
X4264000Y2976000D02*
D03*
X4564000D02*
D03*
X4131388Y4262016D02*
D03*
X4431388D02*
D03*
D20*
X2185000Y1390500D02*
D03*
Y2063500D02*
D03*
D21*
X7991000Y1306000D02*
D03*
X8714000D02*
D03*
X7994000Y1006000D02*
D03*
X8714000Y1006000D02*
D03*
X8715000Y1947000D02*
D03*
X7992000D02*
D03*
X8715000Y1647001D02*
D03*
X7995000Y1647000D02*
D03*
D22*
X6463989Y2944809D02*
D03*
X6323989D02*
D03*
X6603989D02*
D03*
X6323989Y2804809D02*
D03*
X6463989D02*
D03*
X6603989D02*
D03*
X6323989Y3084809D02*
D03*
X6463989D02*
D03*
X6603989D02*
D03*
D23*
X5738989Y3716809D02*
D03*
Y3589809D02*
D03*
Y3462809D02*
D03*
Y3335809D02*
D03*
Y3208809D02*
D03*
Y3081809D02*
D03*
Y2954809D02*
D03*
Y2700809D02*
D03*
Y2573809D02*
D03*
Y2446809D02*
D03*
Y2319809D02*
D03*
Y2065809D02*
D03*
X7488989Y3208809D02*
D03*
Y3335809D02*
D03*
Y3462809D02*
D03*
Y3589809D02*
D03*
Y3716809D02*
D03*
Y2065809D02*
D03*
X5738989Y2192809D02*
D03*
Y2827809D02*
D03*
X7488989Y2700809D02*
D03*
Y2573809D02*
D03*
Y2446809D02*
D03*
Y2319809D02*
D03*
Y2192809D02*
D03*
Y3081809D02*
D03*
Y2954809D02*
D03*
Y2827809D02*
D03*
D24*
X6169489Y1940809D02*
D03*
X6296489D02*
D03*
X6423489D02*
D03*
X6550489D02*
D03*
X6677489D02*
D03*
X6804489D02*
D03*
X6931489D02*
D03*
X7058489D02*
D03*
X7185489D02*
D03*
X7312489D02*
D03*
X6042489D02*
D03*
X5915489D02*
D03*
D25*
X3000000Y802000D02*
D03*
Y952000D02*
D03*
X3118000D02*
D03*
Y802000D02*
D03*
X8144000Y3437000D02*
D03*
Y3287000D02*
D03*
X4131000Y812000D02*
D03*
X4131000Y962000D02*
D03*
X3821000Y813000D02*
D03*
Y963000D02*
D03*
X9057000Y924000D02*
D03*
Y1074000D02*
D03*
X9172000Y1075000D02*
D03*
Y925000D02*
D03*
X1277600Y1102000D02*
D03*
Y1252000D02*
D03*
X1391600Y1101000D02*
D03*
Y1251000D02*
D03*
X8730000Y684000D02*
D03*
Y534000D02*
D03*
X8013000Y686000D02*
D03*
Y536000D02*
D03*
X8730000Y92000D02*
D03*
Y242000D02*
D03*
X8013000Y94000D02*
D03*
Y244000D02*
D03*
X8126000Y686000D02*
D03*
Y536000D02*
D03*
X8126000Y94000D02*
D03*
Y244000D02*
D03*
X9020000Y2719000D02*
D03*
Y2569000D02*
D03*
X1389600Y1370000D02*
D03*
Y1520000D02*
D03*
X1983000Y1113000D02*
D03*
Y963000D02*
D03*
X1276501Y979800D02*
D03*
Y829800D02*
D03*
X1396500Y979800D02*
D03*
Y829800D02*
D03*
X1275600Y1796000D02*
D03*
X1275600Y1646000D02*
D03*
X1389600Y1796000D02*
D03*
X1389600Y1646000D02*
D03*
X3707000Y963000D02*
D03*
X3707000Y813000D02*
D03*
X4016000Y962001D02*
D03*
Y812000D02*
D03*
X1455000Y3456000D02*
D03*
Y3606000D02*
D03*
X1250000Y3463000D02*
D03*
Y3613000D02*
D03*
X1277600Y1520000D02*
D03*
Y1370000D02*
D03*
D26*
X897600Y1199000D02*
D03*
X1087600Y1264001D02*
D03*
Y1134000D02*
D03*
X899000Y898000D02*
D03*
X1089000Y963001D02*
D03*
Y833001D02*
D03*
X896600Y1707000D02*
D03*
X1086600Y1772000D02*
D03*
Y1642000D02*
D03*
X1087601Y1389000D02*
D03*
X1087600Y1519000D02*
D03*
X897600Y1454000D02*
D03*
D27*
X9300000Y2200000D02*
D03*
Y2100000D02*
D03*
Y2300000D02*
D03*
Y2000000D02*
D03*
Y1900000D02*
D03*
Y1800000D02*
D03*
Y2400000D02*
D03*
Y2500000D02*
D03*
Y2600000D02*
D03*
Y2700000D02*
D03*
D28*
X9580000Y2999000D02*
D03*
Y1501000D02*
D03*
D29*
X6192001Y548000D02*
D03*
X6242001D02*
D03*
X6292001D02*
D03*
X6342001D02*
D03*
X6392001D02*
D03*
X6442001D02*
D03*
X6492001D02*
D03*
X6592001D02*
D03*
X6642000D02*
D03*
X6692000D02*
D03*
X6742001D02*
D03*
X6792001D02*
D03*
X6842001D02*
D03*
X6892001D02*
D03*
X6942001D02*
D03*
X6992001D02*
D03*
X7042001D02*
D03*
X7092001D02*
D03*
X7142001D02*
D03*
X7192001D02*
D03*
X7242001D02*
D03*
X7292001D02*
D03*
X7342001D02*
D03*
X6542001D02*
D03*
D30*
X7509001Y378000D02*
D03*
X6025001D02*
D03*
D31*
X8286500Y93000D02*
D03*
Y282999D02*
D03*
X8537499D02*
D03*
X8537499Y188000D02*
D03*
X8537499Y93000D02*
D03*
X8537499Y725000D02*
D03*
Y535000D02*
D03*
X8537500Y630000D02*
D03*
X8286500Y725000D02*
D03*
Y535000D02*
D03*
D32*
X9326000Y1075000D02*
D03*
Y885000D02*
D03*
X9546000Y980000D02*
D03*
D33*
X7489000Y1040000D02*
D03*
X7339000D02*
D03*
X6272000Y818000D02*
D03*
X6122000D02*
D03*
X6271000Y930000D02*
D03*
X6121000D02*
D03*
X9176300Y722500D02*
D03*
X9326300D02*
D03*
X5338000Y3440000D02*
D03*
X5488000D02*
D03*
X9191000Y1421999D02*
D03*
X9041000D02*
D03*
X7992000Y2117000D02*
D03*
X7339000Y927000D02*
D03*
X7489000D02*
D03*
X5488008Y3329380D02*
D03*
X5338008D02*
D03*
X5486000Y3584000D02*
D03*
X5336000D02*
D03*
X4563000Y3144000D02*
D03*
X4413000D02*
D03*
X4431388Y4092016D02*
D03*
X4281388D02*
D03*
X8142000Y2117000D02*
D03*
D34*
X1823000Y815000D02*
D03*
Y1115000D02*
D03*
D35*
X2197000Y2992000D02*
D03*
Y2442000D02*
D03*
D46*
X370000Y1003000D02*
D03*
Y1253000D02*
D03*
Y1503000D02*
D03*
X4010000Y361000D02*
D03*
X4260000D02*
D03*
X5420000Y364000D02*
D03*
X5170000D02*
D03*
X8644000Y4132000D02*
D03*
X8394000D02*
D03*
X8144000D02*
D03*
D47*
X370000Y1753000D02*
D03*
D48*
X3417000Y1857000D02*
D03*
X377000Y3356000D02*
D03*
D49*
X2917000Y1857000D02*
D03*
X877000Y3356000D02*
D03*
D50*
X3278000Y4130000D02*
D03*
X4310000Y1523000D02*
D03*
X2289000Y3497000D02*
D03*
D51*
X3028000Y4130000D02*
D03*
X4560000Y1523000D02*
D03*
X2039000Y3497000D02*
D03*
D52*
X6463989Y3014809D02*
D03*
X6323989D02*
D03*
X6603989D02*
D03*
X6323989Y2874809D02*
D03*
X6463989D02*
D03*
X6603989D02*
D03*
X6393989Y3084809D02*
D03*
X6533989D02*
D03*
X6393989Y2944809D02*
D03*
X6533989D02*
D03*
X6393989Y2804809D02*
D03*
X6533989D02*
D03*
D53*
X588000Y2624000D02*
D03*
D54*
Y2274000D02*
D03*
D55*
X3024000Y2766000D02*
D03*
Y3020000D02*
D03*
D56*
Y3274000D02*
D03*
D57*
X1967999Y361000D02*
D03*
X1045000Y362000D02*
D03*
X2862000Y361000D02*
D03*
D58*
X2218000D02*
D03*
X3112000D02*
D03*
X1295000Y362000D02*
D03*
D59*
X3760000Y361000D02*
D03*
X4920000Y364000D02*
D03*
X8894000Y4132000D02*
D03*
D60*
X400000Y400000D02*
D03*
Y4100000D02*
D03*
X9600000D02*
D03*
Y400000D02*
D03*
%TF.MD5,4b861789f042af732e8f80068172d7c4*%
M02*
