%TF.GenerationSoftware,Altium Limited,Altium Designer,22.0.2 (36)*%
G04 Layer_Color=16711935*
%FSLAX45Y45*%
%MOMM*%
%TF.SameCoordinates,B6468D8F-76AC-4D1A-8A0B-9CDD1514F62C*%
%TF.FilePolarity,Positive*%
%TF.FileFunction,Other,3D_Top*%
%TF.Part,Single*%
G01*
G75*
%TA.AperFunction,NonConductor*%
%ADD113C,0.20000*%
%ADD114C,0.40000*%
%ADD115C,0.12700*%
%ADD117C,0.10000*%
%ADD122C,0.07000*%
D113*
X3450000Y361000D02*
G03*
X3450000Y361000I-10000J0D01*
G01*
X8453401Y3148870D02*
G03*
X8453401Y3148870I-10000J0D01*
G01*
X2564700Y373700D02*
G03*
X2564700Y373700I-10000J0D01*
G01*
X4610000Y364000D02*
G03*
X4610000Y364000I-10000J0D01*
G01*
X747700Y374700D02*
G03*
X747700Y374700I-10000J0D01*
G01*
X6187001Y668000D02*
G03*
X6187001Y668000I-10000J0D01*
G01*
X9293000Y1700000D02*
G03*
X9293000Y1700000I-10000J0D01*
G01*
X380000Y2073000D02*
G03*
X380000Y2073000I-10000J0D01*
G01*
X2086400Y1092100D02*
G03*
X2086400Y1092100I-10000J0D01*
G01*
X5603989Y3716809D02*
G03*
X5603989Y3716809I-10000J0D01*
G01*
X1670699Y373700D02*
G03*
X1670699Y373700I-10000J0D01*
G01*
X8663000Y83000D02*
G03*
X8663000Y83000I-10000J0D01*
G01*
X8663000Y525000D02*
G03*
X8663000Y525000I-10000J0D01*
G01*
X9224000Y4132000D02*
G03*
X9224000Y4132000I-10000J0D01*
G01*
D114*
X1775000Y4265000D02*
G03*
X1775000Y4265000I-20000J0D01*
G01*
D115*
X3567000Y1857000D02*
G03*
X3567000Y1857000I-400000J0D01*
G01*
X3468000Y4130000D02*
G03*
X3468000Y4130000I-315000J0D01*
G01*
X4750000Y1523000D02*
G03*
X4750000Y1523000I-315000J0D01*
G01*
X2479000Y3497000D02*
G03*
X2479000Y3497000I-315000J0D01*
G01*
X1027000Y3356000D02*
G03*
X1027000Y3356000I-400000J0D01*
G01*
X3515000Y701000D02*
X4505000D01*
X3515000Y126000D02*
Y701000D01*
Y126000D02*
X4505000D01*
Y701000D01*
X8554401Y2838870D02*
Y3258870D01*
X8839401D01*
Y2838870D02*
Y3258870D01*
X8554401Y2838870D02*
X8839401D01*
X3357000Y126000D02*
Y701000D01*
X2617000Y126000D02*
X3357000D01*
X2617000D02*
Y701000D01*
X3357000D01*
X4675000Y704000D02*
X5665000D01*
X4675000Y129000D02*
Y704000D01*
Y129000D02*
X5665000D01*
Y704000D01*
X800000Y702000D02*
X1540000D01*
X800000Y127000D02*
Y702000D01*
Y127000D02*
X1540000D01*
Y702000D01*
X5895501Y533000D02*
X7638501D01*
X7638501Y93000D01*
X5895501D02*
X7638501D01*
X5895501Y533000D02*
X5895501Y93000D01*
X9851000Y3067500D02*
Y3146000D01*
Y1354000D02*
Y1432500D01*
Y3146000D02*
X9940000D01*
X9851000Y1354000D02*
X9940000D01*
Y3146000D01*
X9400000Y3067500D02*
X9851000D01*
X9400000Y1432500D02*
X9851000D01*
X9940000Y1354000D02*
X10130000D01*
Y3146000D01*
X9940000D02*
X10130000D01*
X9400000Y1432500D02*
Y3067500D01*
X135000Y758000D02*
X710000D01*
X135000D02*
Y1998000D01*
X710000D01*
Y758000D02*
Y1998000D01*
X2238000Y1136000D02*
X2398001D01*
X2238000Y846000D02*
Y1136000D01*
Y846000D02*
X2398001D01*
Y1136000D01*
X1938750Y4446250D02*
X2371250D01*
Y4083750D02*
Y4446250D01*
X1938750Y4083750D02*
X2371250D01*
X1938750D02*
Y4446250D01*
X1880000Y2082000D02*
X2490000D01*
Y1372000D02*
Y2082000D01*
X1880000Y1372000D02*
X2490000D01*
X1880000D02*
Y2082000D01*
X5713989Y3865809D02*
X7513989D01*
X5713989D02*
Y4465809D01*
Y1915809D02*
Y3865809D01*
Y1915809D02*
X7513989D01*
Y3865809D01*
Y4465809D01*
X5713989D02*
X7513989D01*
X1723000Y701000D02*
X2463000D01*
X1723000Y126000D02*
Y701000D01*
Y126000D02*
X2463000D01*
Y701000D01*
X8492000Y43000D02*
X8492000Y333000D01*
X8331999Y43000D02*
Y333000D01*
Y43000D02*
X8492000D01*
X8331999Y333000D02*
X8492000D01*
Y485000D02*
X8492000Y775000D01*
X8332000Y485000D02*
Y775000D01*
Y485000D02*
X8492000D01*
X8332000Y775000D02*
X8492000D01*
X7899000Y3792000D02*
Y4367000D01*
X9139000D01*
Y3792000D02*
Y4367000D01*
X7899000Y3792000D02*
X9139000D01*
D117*
X9366000Y830000D02*
X9506000Y830000D01*
X9366000Y1130000D02*
X9506000D01*
Y830000D02*
Y1130000D01*
X9366000Y830000D02*
Y1130000D01*
D122*
X9432242Y1050809D02*
X9449170D01*
X9453402Y1055041D01*
Y1063505D01*
X9449170Y1067737D01*
X9432242D01*
X9428010Y1063505D01*
Y1055041D01*
X9436474Y1059273D02*
X9428010Y1050809D01*
Y1055041D02*
X9432242Y1050809D01*
X9428010Y1029649D02*
X9453402D01*
X9440706Y1042345D01*
Y1025417D01*
%TF.MD5,77c092ad2333ff0785a1860c1549d289*%
M02*
