%TF.GenerationSoftware,Altium Limited,Altium Designer,22.0.2 (36)*%
G04 Layer_Color=32768*
%FSLAX45Y45*%
%MOMM*%
%TF.SameCoordinates,B6468D8F-76AC-4D1A-8A0B-9CDD1514F62C*%
%TF.FilePolarity,Positive*%
%TF.FileFunction,Other,Courtyard_Top*%
%TF.Part,Single*%
G01*
G75*
%TA.AperFunction,NonConductor*%
%ADD113C,0.20000*%
%ADD117C,0.10000*%
%ADD121C,0.05000*%
D113*
X228000Y2824000D02*
X958000D01*
Y2074000D02*
Y2824000D01*
X228000Y2074000D02*
X958000D01*
X228000D02*
Y2824000D01*
X3595500Y2436000D02*
Y3606000D01*
X2846200Y2436000D02*
X3595500D01*
X2846200D02*
Y3606000D01*
X3595500D01*
D117*
X1468300Y3937001D02*
X1495000Y3910301D01*
X1415000Y3937001D02*
X1495000Y3937001D01*
X1415000Y3777000D02*
Y3937001D01*
Y3777000D02*
X1495000D01*
Y3937001D01*
X9436000Y930000D02*
Y1030000D01*
X9386000Y980000D02*
X9486000D01*
X9243500Y805000D02*
X9628500D01*
X9243500Y1155000D02*
X9628500D01*
X9628500Y805000D02*
X9628500Y1155000D01*
X9243500Y805000D02*
Y1155000D01*
X1263300Y3936000D02*
X1290000Y3909300D01*
X1210000Y3936000D02*
X1290000D01*
X1210000Y3776000D02*
Y3936000D01*
Y3776000D02*
X1290000Y3776000D01*
X1290000Y3936000D01*
D121*
X3592000Y1857000D02*
G03*
X3592000Y1857000I-425000J0D01*
G01*
X3499300Y4130000D02*
G03*
X3499300Y4130000I-346300J0D01*
G01*
X4781300Y1523000D02*
G03*
X4781300Y1523000I-346300J0D01*
G01*
X2510300Y3497000D02*
G03*
X2510300Y3497000I-346300J0D01*
G01*
X1052000Y3356000D02*
G03*
X1052000Y3356000I-425000J0D01*
G01*
X3490000Y726000D02*
X4530000D01*
Y101000D02*
Y726000D01*
X3490000Y101000D02*
X4530000D01*
X3490000D02*
Y726000D01*
X8484401Y2813870D02*
Y3283870D01*
X8864401D01*
Y2813870D02*
Y3283870D01*
X8484401Y2813870D02*
X8864401D01*
X2592000Y101000D02*
Y726000D01*
Y101000D02*
X3382000D01*
Y726000D01*
X2592000D02*
X3382000D01*
X4650000Y729000D02*
X5690000D01*
Y104000D02*
Y729000D01*
X4650000Y104000D02*
X5690000D01*
X4650000D02*
Y729000D01*
X775000Y727000D02*
X1565000D01*
Y102000D02*
Y727000D01*
X775000Y102000D02*
X1565000D01*
X775000D02*
Y727000D01*
X5870501Y628000D02*
X7663501D01*
Y68000D02*
Y628000D01*
X5870501Y68000D02*
X7663501D01*
X5870501D02*
Y628000D01*
X9175000Y1744500D02*
X9375000D01*
Y1329000D02*
Y1744500D01*
Y1329000D02*
X10155000D01*
Y3171000D01*
X9375000D02*
X10155000D01*
X9375000Y2755500D02*
Y3171000D01*
X9175000Y2755500D02*
X9375000D01*
X9175000Y1744500D02*
Y2755500D01*
X110000Y2023000D02*
X735000D01*
X110000Y733000D02*
Y2023000D01*
Y733000D02*
X735000D01*
Y2023000D01*
X2107000Y1161000D02*
X2529001D01*
X2107000Y821000D02*
Y1161000D01*
Y821000D02*
X2529001D01*
Y1161000D01*
X1799500Y4471250D02*
X2510500D01*
Y4058750D02*
Y4471250D01*
X1799500Y4058750D02*
X2510500D01*
X1799500D02*
Y4471250D01*
X2515000Y1249000D02*
Y2205000D01*
X1855000Y1249000D02*
X2515000D01*
X1855000D02*
Y2205000D01*
X2515000D01*
X5638989Y1840809D02*
X7588989D01*
Y4490809D01*
X5638989D02*
X7588989D01*
X5638989Y1840809D02*
Y4490809D01*
X1698000Y726000D02*
X2488000D01*
Y101000D02*
Y726000D01*
X1698000Y101000D02*
X2488000D01*
X1698000D02*
Y726000D01*
X8200999Y18000D02*
X8623000D01*
X8200999D02*
X8201000Y358000D01*
X8623000D01*
Y18000D02*
Y358000D01*
X8201000Y460000D02*
X8623000D01*
X8201000D02*
X8201000Y800000D01*
X8623000D01*
Y460000D02*
Y800000D01*
X9164000Y3767000D02*
Y4392000D01*
X7874000D02*
X9164000D01*
X7874000Y3767000D02*
Y4392000D01*
Y3767000D02*
X9164000D01*
%TF.MD5,2f7a1740929d9c68ee588a99b681e807*%
M02*
