%TF.GenerationSoftware,Altium Limited,Altium Designer,23.4.1 (23)*%
G04 Layer_Color=32896*
%FSLAX45Y45*%
%MOMM*%
%TF.SameCoordinates,D6ADF24A-3376-43E2-8D1E-8FFFCD63A60F*%
%TF.FilePolarity,Positive*%
%TF.FileFunction,Other,Test_Points_Bottom*%
%TF.Part,Single*%
G01*
G75*
%TA.AperFunction,NonConductor*%
%ADD120C,0.10000*%
%ADD123C,0.05000*%
D120*
X9018000Y2441000D02*
Y3661000D01*
X8298100Y2441000D02*
X9018000D01*
X8298100D02*
Y3661000D01*
X9018000D01*
X207000Y2052500D02*
X981700D01*
Y2839900D01*
X207000Y2052500D02*
Y2839900D01*
X981700D01*
X2679000Y3706000D02*
X3674000D01*
X2679000Y2336000D02*
Y3706000D01*
Y2336000D02*
X3674000D01*
Y3706000D01*
D123*
X1547500Y3689501D02*
Y4024500D01*
X1362500Y3689500D02*
X1547500Y3689501D01*
X1362500Y3689500D02*
Y4024500D01*
X1547500D01*
X3854500Y2668000D02*
X4739500D01*
Y1938000D02*
Y2668000D01*
X3854500Y1938000D02*
X4739500D01*
X3854500D02*
Y2668000D01*
X921100Y1067100D02*
X1191100D01*
Y1407100D01*
X921100D02*
X1191100D01*
X921100Y1067100D02*
Y1407100D01*
X922500Y766101D02*
X1192500D01*
X1192500Y1106100D01*
X922500D02*
X1192500D01*
X922500Y766101D02*
Y1106100D01*
X1157500Y4023500D02*
X1342500Y4023500D01*
X1157500Y3688500D02*
Y4023500D01*
Y3688500D02*
X1342500Y3688500D01*
Y4023500D01*
X920100Y1575100D02*
X1190100Y1575100D01*
Y1915100D01*
X920100D02*
X1190100D01*
X920100Y1575100D02*
Y1915100D01*
X1832000Y2274500D02*
X2562000D01*
Y3159500D01*
X1832000D02*
X2562000D01*
X1832000Y2274500D02*
Y3159500D01*
X921100Y1322100D02*
Y1662100D01*
X1191100D01*
Y1322100D02*
Y1662100D01*
X921100Y1322100D02*
X1191100D01*
%TF.MD5,a4ef512dc3afc9f098dcbb985a545e99*%
M02*
