%TF.GenerationSoftware,Altium Limited,Altium Designer,23.4.1 (23)*%
G04 Layer_Color=2752767*
%FSLAX45Y45*%
%MOMM*%
%TF.SameCoordinates,D6ADF24A-3376-43E2-8D1E-8FFFCD63A60F*%
%TF.FilePolarity,Positive*%
%TF.FileFunction,Drawing*%
%TF.Part,Single*%
G01*
G75*
%TA.AperFunction,NonConductor*%
%ADD117C,0.12700*%
%ADD139C,0.16933*%
%ADD140C,0.10160*%
D117*
X3366200Y1806200D02*
X3391600Y1857000D01*
X3366200Y1907800D01*
X3417000Y1882400D01*
X3467800Y1907800D01*
X3442400Y1857000D01*
X3467800Y1806200D01*
X3417000Y1831600D01*
X3366200Y1806200D01*
X2866200D02*
X2891600Y1857000D01*
X2866200Y1907800D01*
X2917000Y1882400D01*
X2967800Y1907800D01*
X2942400Y1857000D01*
X2967800Y1806200D01*
X2917000Y1831600D01*
X2866200Y1806200D01*
X3278000Y4079200D02*
X3303400Y4104600D01*
X3328800D01*
X3303400Y4130000D01*
X3328800Y4155400D01*
X3303400D01*
X3278000Y4180800D01*
X3252600Y4155400D01*
X3227200D01*
X3252600Y4130000D01*
X3227200Y4104600D01*
X3252600D01*
X3278000Y4079200D01*
X3028000Y4079200D02*
X3053400Y4104600D01*
X3078800D01*
X3053400Y4130000D01*
X3078800Y4155400D01*
X3053400D01*
X3028000Y4180800D01*
X3002600Y4155400D01*
X2977200D01*
X3002600Y4130000D01*
X2977200Y4104600D01*
X3002600D01*
X3028000Y4079200D01*
X6413189Y2964009D02*
X6438589D01*
X6463989Y2989409D01*
X6489389Y2964009D01*
X6514789D01*
Y2989409D01*
X6489389Y3014809D01*
X6514789Y3040209D01*
Y3065609D01*
X6489389D01*
X6463989Y3040209D01*
X6438589Y3065609D01*
X6413189D01*
Y3040209D01*
X6438589Y3014809D01*
X6413189Y2989409D01*
Y2964009D01*
X6273189D02*
X6298589D01*
X6323989Y2989409D01*
X6349389Y2964009D01*
X6374789D01*
Y2989409D01*
X6349389Y3014809D01*
X6374789Y3040209D01*
Y3065609D01*
X6349389D01*
X6323989Y3040209D01*
X6298589Y3065609D01*
X6273189D01*
Y3040209D01*
X6298589Y3014809D01*
X6273189Y2989409D01*
Y2964009D01*
X6553189D02*
X6578589D01*
X6603989Y2989409D01*
X6629389Y2964009D01*
X6654789D01*
Y2989409D01*
X6629389Y3014809D01*
X6654789Y3040209D01*
Y3065609D01*
X6629389D01*
X6603989Y3040209D01*
X6578589Y3065609D01*
X6553189D01*
Y3040209D01*
X6578589Y3014809D01*
X6553189Y2989409D01*
Y2964009D01*
X6273189Y2824009D02*
X6298589D01*
X6323989Y2849409D01*
X6349389Y2824009D01*
X6374789D01*
Y2849409D01*
X6349389Y2874809D01*
X6374789Y2900209D01*
Y2925609D01*
X6349389D01*
X6323989Y2900209D01*
X6298589Y2925609D01*
X6273189D01*
Y2900209D01*
X6298589Y2874809D01*
X6273189Y2849409D01*
Y2824009D01*
X6413189D02*
X6438589D01*
X6463989Y2849409D01*
X6489389Y2824009D01*
X6514789D01*
Y2849409D01*
X6489389Y2874809D01*
X6514789Y2900209D01*
Y2925609D01*
X6489389D01*
X6463989Y2900209D01*
X6438589Y2925609D01*
X6413189D01*
Y2900209D01*
X6438589Y2874809D01*
X6413189Y2849409D01*
Y2824009D01*
X6553189D02*
X6578589D01*
X6603989Y2849409D01*
X6629389Y2824009D01*
X6654789D01*
Y2849409D01*
X6629389Y2874809D01*
X6654789Y2900209D01*
Y2925609D01*
X6629389D01*
X6603989Y2900209D01*
X6578589Y2925609D01*
X6553189D01*
Y2900209D01*
X6578589Y2874809D01*
X6553189Y2849409D01*
Y2824009D01*
X6343189Y3034009D02*
X6368589D01*
X6393989Y3059409D01*
X6419389Y3034009D01*
X6444789D01*
Y3059409D01*
X6419389Y3084809D01*
X6444789Y3110209D01*
Y3135609D01*
X6419389D01*
X6393989Y3110209D01*
X6368589Y3135609D01*
X6343189D01*
Y3110209D01*
X6368589Y3084809D01*
X6343189Y3059409D01*
Y3034009D01*
X6483189D02*
X6508589D01*
X6533989Y3059409D01*
X6559389Y3034009D01*
X6584789D01*
Y3059409D01*
X6559389Y3084809D01*
X6584789Y3110209D01*
Y3135609D01*
X6559389D01*
X6533989Y3110209D01*
X6508589Y3135609D01*
X6483189D01*
Y3110209D01*
X6508589Y3084809D01*
X6483189Y3059409D01*
Y3034009D01*
X6343189Y2894009D02*
X6368589D01*
X6393989Y2919409D01*
X6419389Y2894009D01*
X6444789D01*
Y2919409D01*
X6419389Y2944809D01*
X6444789Y2970209D01*
Y2995609D01*
X6419389D01*
X6393989Y2970209D01*
X6368589Y2995609D01*
X6343189D01*
Y2970209D01*
X6368589Y2944809D01*
X6343189Y2919409D01*
Y2894009D01*
X6483189D02*
X6508589D01*
X6533989Y2919409D01*
X6559389Y2894009D01*
X6584789D01*
Y2919409D01*
X6559389Y2944809D01*
X6584789Y2970209D01*
Y2995609D01*
X6559389D01*
X6533989Y2970209D01*
X6508589Y2995609D01*
X6483189D01*
Y2970209D01*
X6508589Y2944809D01*
X6483189Y2919409D01*
Y2894009D01*
X6343189Y2754009D02*
X6368589D01*
X6393989Y2779409D01*
X6419389Y2754009D01*
X6444789D01*
Y2779409D01*
X6419389Y2804809D01*
X6444789Y2830209D01*
Y2855609D01*
X6419389D01*
X6393989Y2830209D01*
X6368589Y2855609D01*
X6343189D01*
Y2830209D01*
X6368589Y2804809D01*
X6343189Y2779409D01*
Y2754009D01*
X6483189D02*
X6508589D01*
X6533989Y2779409D01*
X6559389Y2754009D01*
X6584789D01*
Y2779409D01*
X6559389Y2804809D01*
X6584789Y2830209D01*
Y2855609D01*
X6559389D01*
X6533989Y2830209D01*
X6508589Y2855609D01*
X6483189D01*
Y2830209D01*
X6508589Y2804809D01*
X6483189Y2779409D01*
Y2754009D01*
X588000Y2573200D02*
X537200Y2674800D01*
X638800D01*
X588000Y2573200D01*
Y2593520D02*
X557520Y2654480D01*
X618480D01*
X588000Y2593520D01*
Y2223200D02*
X537200Y2324800D01*
X638800D01*
X588000Y2223200D01*
Y2243520D02*
X557520Y2304480D01*
X618480D01*
X588000Y2243520D01*
X2973200Y2715200D02*
Y2816800D01*
X3074800D01*
Y2715200D01*
X2973200D01*
Y2969200D02*
Y3070800D01*
X3074800D01*
Y2969200D01*
X2973200D01*
Y3223200D02*
Y3324800D01*
X3074800D01*
Y3223200D01*
X2973200D01*
X1967999Y310200D02*
X1917199Y411800D01*
X2018799D01*
X1967999Y310200D01*
X2218000D02*
X2167200Y411800D01*
X2268800D01*
X2218000Y310200D01*
X1045000Y311200D02*
X994200Y412800D01*
X1095800D01*
X1045000Y311200D01*
X2862000Y310200D02*
X2811200Y411800D01*
X2912800D01*
X2862000Y310200D01*
X3112000D02*
X3061200Y411800D01*
X3162800D01*
X3112000Y310200D01*
X1295000Y311200D02*
X1244200Y412800D01*
X1345800D01*
X1295000Y311200D01*
X4310000Y1472200D02*
X4335400Y1497600D01*
X4360800D01*
X4335400Y1523000D01*
X4360800Y1548400D01*
X4335400D01*
X4310000Y1573800D01*
X4284600Y1548400D01*
X4259200D01*
X4284600Y1523000D01*
X4259200Y1497600D01*
X4284600D01*
X4310000Y1472200D01*
X4560000Y1472200D02*
X4585400Y1497600D01*
X4610800D01*
X4585400Y1523000D01*
X4610800Y1548400D01*
X4585400D01*
X4560000Y1573800D01*
X4534600Y1548400D01*
X4509200D01*
X4534600Y1523000D01*
X4509200Y1497600D01*
X4534600D01*
X4560000Y1472200D01*
X400000Y349200D02*
X425400Y374600D01*
X450800D01*
X425400Y400000D01*
X450800Y425400D01*
X425400D01*
X400000Y450800D01*
X374600Y425400D01*
X349200D01*
X374600Y400000D01*
X349200Y374600D01*
X374600D01*
X400000Y349200D01*
Y369520D02*
X415240Y384760D01*
X430480D01*
X415240Y400000D01*
X430480Y415240D01*
X415240D01*
X400000Y430480D01*
X384760Y415240D01*
X369520D01*
X384760Y400000D01*
X369520Y384760D01*
X384760D01*
X400000Y369520D01*
Y4049200D02*
X425400Y4074600D01*
X450800D01*
X425400Y4100000D01*
X450800Y4125400D01*
X425400D01*
X400000Y4150800D01*
X374600Y4125400D01*
X349200D01*
X374600Y4100000D01*
X349200Y4074600D01*
X374600D01*
X400000Y4049200D01*
Y4069520D02*
X415240Y4084760D01*
X430480D01*
X415240Y4100000D01*
X430480Y4115240D01*
X415240D01*
X400000Y4130480D01*
X384760Y4115240D01*
X369520D01*
X384760Y4100000D01*
X369520Y4084760D01*
X384760D01*
X400000Y4069520D01*
X9600000Y4049200D02*
X9625400Y4074600D01*
X9650800D01*
X9625400Y4100000D01*
X9650800Y4125400D01*
X9625400D01*
X9600000Y4150800D01*
X9574600Y4125400D01*
X9549200D01*
X9574600Y4100000D01*
X9549200Y4074600D01*
X9574600D01*
X9600000Y4049200D01*
Y4069520D02*
X9615240Y4084760D01*
X9630480D01*
X9615240Y4100000D01*
X9630480Y4115240D01*
X9615240D01*
X9600000Y4130480D01*
X9584760Y4115240D01*
X9569520D01*
X9584760Y4100000D01*
X9569520Y4084760D01*
X9584760D01*
X9600000Y4069520D01*
Y349200D02*
X9625400Y374600D01*
X9650800D01*
X9625400Y400000D01*
X9650800Y425400D01*
X9625400D01*
X9600000Y450800D01*
X9574600Y425400D01*
X9549200D01*
X9574600Y400000D01*
X9549200Y374600D01*
X9574600D01*
X9600000Y349200D01*
Y369520D02*
X9615240Y384760D01*
X9630480D01*
X9615240Y400000D01*
X9630480Y415240D01*
X9615240D01*
X9600000Y430480D01*
X9584760Y415240D01*
X9569520D01*
X9584760Y400000D01*
X9569520Y384760D01*
X9584760D01*
X9600000Y369520D01*
X2039000Y3446200D02*
X2064400Y3471600D01*
X2089800D01*
X2064400Y3497000D01*
X2089800Y3522400D01*
X2064400D01*
X2039000Y3547800D01*
X2013600Y3522400D01*
X1988200D01*
X2013600Y3497000D01*
X1988200Y3471600D01*
X2013600D01*
X2039000Y3446200D01*
X2289000Y3446200D02*
X2314400Y3471600D01*
X2339800D01*
X2314400Y3497000D01*
X2339800Y3522400D01*
X2314400D01*
X2289000Y3547800D01*
X2263600Y3522400D01*
X2238200D01*
X2263600Y3497000D01*
X2238200Y3471600D01*
X2263600D01*
X2289000Y3446200D01*
X826200Y3305200D02*
X851600Y3356000D01*
X826200Y3406800D01*
X877000Y3381400D01*
X927800Y3406800D01*
X902400Y3356000D01*
X927800Y3305200D01*
X877000Y3330600D01*
X826200Y3305200D01*
X326200D02*
X351600Y3356000D01*
X326200Y3406800D01*
X377000Y3381400D01*
X427800Y3406800D01*
X402400Y3356000D01*
X427800Y3305200D01*
X377000Y3330600D01*
X326200Y3305200D01*
X7977200Y3393200D02*
X8002600D01*
X8028000Y3418600D01*
X8053400Y3393200D01*
X8078800D01*
Y3418600D01*
X8053400Y3444000D01*
X8078800Y3469400D01*
Y3494800D01*
X8053400D01*
X8028000Y3469400D01*
X8002600Y3494800D01*
X7977200D01*
Y3469400D01*
X8002600Y3444000D01*
X7977200Y3418600D01*
Y3393200D01*
X7757200Y3560200D02*
X7782600D01*
X7808000Y3585600D01*
X7833400Y3560200D01*
X7858800D01*
Y3585600D01*
X7833400Y3611000D01*
X7858800Y3636400D01*
Y3661800D01*
X7833400D01*
X7808000Y3636400D01*
X7782600Y3661800D01*
X7757200D01*
Y3636400D01*
X7782600Y3611000D01*
X7757200Y3585600D01*
Y3560200D01*
X8433601Y2763070D02*
X8459001D01*
X8484401Y2788470D01*
X8509801Y2763070D01*
X8535201D01*
Y2788470D01*
X8509801Y2813870D01*
X8535201Y2839270D01*
Y2864670D01*
X8509801D01*
X8484401Y2839270D01*
X8459001Y2864670D01*
X8433601D01*
Y2839270D01*
X8459001Y2813870D01*
X8433601Y2788470D01*
Y2763070D01*
X7767200Y1788200D02*
X7792600D01*
X7818000Y1813600D01*
X7843400Y1788200D01*
X7868800D01*
Y1813600D01*
X7843400Y1839000D01*
X7868800Y1864400D01*
Y1889800D01*
X7843400D01*
X7818000Y1864400D01*
X7792600Y1889800D01*
X7767200D01*
Y1864400D01*
X7792600Y1839000D01*
X7767200Y1813600D01*
Y1788200D01*
X9738200Y2061200D02*
X9763600D01*
X9789000Y2086600D01*
X9814400Y2061200D01*
X9839800D01*
Y2086600D01*
X9814400Y2112000D01*
X9839800Y2137400D01*
Y2162800D01*
X9814400D01*
X9789000Y2137400D01*
X9763600Y2162800D01*
X9738200D01*
Y2137400D01*
X9763600Y2112000D01*
X9738200Y2086600D01*
Y2061200D01*
X9732200Y2529200D02*
X9757600D01*
X9783000Y2554600D01*
X9808400Y2529200D01*
X9833800D01*
Y2554600D01*
X9808400Y2580000D01*
X9833800Y2605400D01*
Y2630800D01*
X9808400D01*
X9783000Y2605400D01*
X9757600Y2630800D01*
X9732200D01*
Y2605400D01*
X9757600Y2580000D01*
X9732200Y2554600D01*
Y2529200D01*
X4871200Y1001200D02*
X4896600D01*
X4922000Y1026600D01*
X4947400Y1001200D01*
X4972800D01*
Y1026600D01*
X4947400Y1052000D01*
X4972800Y1077400D01*
Y1102800D01*
X4947400D01*
X4922000Y1077400D01*
X4896600Y1102800D01*
X4871200D01*
Y1077400D01*
X4896600Y1052000D01*
X4871200Y1026600D01*
Y1001200D01*
X7971200Y2900200D02*
X7996600D01*
X8022000Y2925600D01*
X8047400Y2900200D01*
X8072800D01*
Y2925600D01*
X8047400Y2951000D01*
X8072800Y2976400D01*
Y3001800D01*
X8047400D01*
X8022000Y2976400D01*
X7996600Y3001800D01*
X7971200D01*
Y2976400D01*
X7996600Y2951000D01*
X7971200Y2925600D01*
Y2900200D01*
X7432624Y1791598D02*
X7458024D01*
X7483424Y1816998D01*
X7508824Y1791598D01*
X7534224D01*
Y1816998D01*
X7508824Y1842398D01*
X7534224Y1867798D01*
Y1893198D01*
X7508824D01*
X7483424Y1867798D01*
X7458024Y1893198D01*
X7432624D01*
Y1867798D01*
X7458024Y1842398D01*
X7432624Y1816998D01*
Y1791598D01*
X5566009Y2142009D02*
X5591409D01*
X5616809Y2167409D01*
X5642209Y2142009D01*
X5667609D01*
Y2167409D01*
X5642209Y2192809D01*
X5667609Y2218209D01*
Y2243609D01*
X5642209D01*
X5616809Y2218209D01*
X5591409Y2243609D01*
X5566009D01*
Y2218209D01*
X5591409Y2192809D01*
X5566009Y2167409D01*
Y2142009D01*
X6492201Y378907D02*
X6517601D01*
X6543001Y404307D01*
X6568401Y378907D01*
X6593801D01*
Y404307D01*
X6568401Y429707D01*
X6593801Y455107D01*
Y480507D01*
X6568401D01*
X6543001Y455107D01*
X6517601Y480507D01*
X6492201D01*
Y455107D01*
X6517601Y429707D01*
X6492201Y404307D01*
Y378907D01*
X8216200Y3425200D02*
X8241600D01*
X8267000Y3450600D01*
X8292400Y3425200D01*
X8317800D01*
Y3450600D01*
X8292400Y3476000D01*
X8317800Y3501400D01*
Y3526800D01*
X8292400D01*
X8267000Y3501400D01*
X8241600Y3526800D01*
X8216200D01*
Y3501400D01*
X8241600Y3476000D01*
X8216200Y3450600D01*
Y3425200D01*
X9005200Y3090200D02*
X9030600D01*
X9056000Y3115600D01*
X9081400Y3090200D01*
X9106800D01*
Y3115600D01*
X9081400Y3141000D01*
X9106800Y3166400D01*
Y3191800D01*
X9081400D01*
X9056000Y3166400D01*
X9030600Y3191800D01*
X9005200D01*
Y3166400D01*
X9030600Y3141000D01*
X9005200Y3115600D01*
Y3090200D01*
X7862243Y2231243D02*
X7887643D01*
X7913043Y2256643D01*
X7938443Y2231243D01*
X7963843D01*
Y2256643D01*
X7938443Y2282043D01*
X7963843Y2307443D01*
Y2332843D01*
X7938443D01*
X7913043Y2307443D01*
X7887643Y2332843D01*
X7862243D01*
Y2307443D01*
X7887643Y2282043D01*
X7862243Y2256643D01*
Y2231243D01*
X7650200Y3076200D02*
X7675600D01*
X7701000Y3101600D01*
X7726400Y3076200D01*
X7751800D01*
Y3101600D01*
X7726400Y3127000D01*
X7751800Y3152400D01*
Y3177800D01*
X7726400D01*
X7701000Y3152400D01*
X7675600Y3177800D01*
X7650200D01*
Y3152400D01*
X7675600Y3127000D01*
X7650200Y3101600D01*
Y3076200D01*
X7626200Y3153200D02*
X7651600D01*
X7677000Y3178600D01*
X7702400Y3153200D01*
X7727800D01*
Y3178600D01*
X7702400Y3204000D01*
X7727800Y3229400D01*
Y3254800D01*
X7702400D01*
X7677000Y3229400D01*
X7651600Y3254800D01*
X7626200D01*
Y3229400D01*
X7651600Y3204000D01*
X7626200Y3178600D01*
Y3153200D01*
X7680200Y2992200D02*
X7705600D01*
X7731000Y3017600D01*
X7756400Y2992200D01*
X7781800D01*
Y3017600D01*
X7756400Y3043000D01*
X7781800Y3068400D01*
Y3093800D01*
X7756400D01*
X7731000Y3068400D01*
X7705600Y3093800D01*
X7680200D01*
Y3068400D01*
X7705600Y3043000D01*
X7680200Y3017600D01*
Y2992200D01*
X7802200Y2845200D02*
X7827600D01*
X7853000Y2870600D01*
X7878400Y2845200D01*
X7903800D01*
Y2870600D01*
X7878400Y2896000D01*
X7903800Y2921400D01*
Y2946800D01*
X7878400D01*
X7853000Y2921400D01*
X7827600Y2946800D01*
X7802200D01*
Y2921400D01*
X7827600Y2896000D01*
X7802200Y2870600D01*
Y2845200D01*
X4869200Y2136200D02*
X4894600D01*
X4920000Y2161600D01*
X4945400Y2136200D01*
X4970800D01*
Y2161600D01*
X4945400Y2187000D01*
X4970800Y2212400D01*
Y2237800D01*
X4945400D01*
X4920000Y2212400D01*
X4894600Y2237800D01*
X4869200D01*
Y2212400D01*
X4894600Y2187000D01*
X4869200Y2161600D01*
Y2136200D01*
X5542200Y2776200D02*
X5567600D01*
X5593000Y2801600D01*
X5618400Y2776200D01*
X5643800D01*
Y2801600D01*
X5618400Y2827000D01*
X5643800Y2852400D01*
Y2877800D01*
X5618400D01*
X5593000Y2852400D01*
X5567600Y2877800D01*
X5542200D01*
Y2852400D01*
X5567600Y2827000D01*
X5542200Y2801600D01*
Y2776200D01*
X5802200Y3278200D02*
X5827600D01*
X5853000Y3303600D01*
X5878400Y3278200D01*
X5903800D01*
Y3303600D01*
X5878400Y3329000D01*
X5903800Y3354400D01*
Y3379800D01*
X5878400D01*
X5853000Y3354400D01*
X5827600Y3379800D01*
X5802200D01*
Y3354400D01*
X5827600Y3329000D01*
X5802200Y3303600D01*
Y3278200D01*
Y3158200D02*
X5827600D01*
X5853000Y3183600D01*
X5878400Y3158200D01*
X5903800D01*
Y3183600D01*
X5878400Y3209000D01*
X5903800Y3234400D01*
Y3259800D01*
X5878400D01*
X5853000Y3234400D01*
X5827600Y3259800D01*
X5802200D01*
Y3234400D01*
X5827600Y3209000D01*
X5802200Y3183600D01*
Y3158200D01*
X7736529Y2274200D02*
X7761929D01*
X7787329Y2299600D01*
X7812729Y2274200D01*
X7838129D01*
Y2299600D01*
X7812729Y2325000D01*
X7838129Y2350400D01*
Y2375800D01*
X7812729D01*
X7787329Y2350400D01*
X7761929Y2375800D01*
X7736529D01*
Y2350400D01*
X7761929Y2325000D01*
X7736529Y2299600D01*
Y2274200D01*
X8495200Y955847D02*
X8520600D01*
X8546000Y981247D01*
X8571400Y955847D01*
X8596800D01*
Y981247D01*
X8571400Y1006647D01*
X8596800Y1032047D01*
Y1057447D01*
X8571400D01*
X8546000Y1032047D01*
X8520600Y1057447D01*
X8495200D01*
Y1032047D01*
X8520600Y1006647D01*
X8495200Y981247D01*
Y955847D01*
X8110200Y957847D02*
X8135600D01*
X8161000Y983247D01*
X8186400Y957847D01*
X8211800D01*
Y983247D01*
X8186400Y1008647D01*
X8211800Y1034047D01*
Y1059447D01*
X8186400D01*
X8161000Y1034047D01*
X8135600Y1059447D01*
X8110200D01*
Y1034047D01*
X8135600Y1008647D01*
X8110200Y983247D01*
Y957847D01*
X7605700Y1521994D02*
X7631100D01*
X7656500Y1547394D01*
X7681900Y1521994D01*
X7707300D01*
Y1547394D01*
X7681900Y1572794D01*
X7707300Y1598194D01*
Y1623594D01*
X7681900D01*
X7656500Y1598194D01*
X7631100Y1623594D01*
X7605700D01*
Y1598194D01*
X7631100Y1572794D01*
X7605700Y1547394D01*
Y1521994D01*
X7604200Y984200D02*
X7629600D01*
X7655000Y1009600D01*
X7680400Y984200D01*
X7705800D01*
Y1009600D01*
X7680400Y1035000D01*
X7705800Y1060400D01*
Y1085800D01*
X7680400D01*
X7655000Y1060400D01*
X7629600Y1085800D01*
X7604200D01*
Y1060400D01*
X7629600Y1035000D01*
X7604200Y1009600D01*
Y984200D01*
X8991199Y1522199D02*
X9016599D01*
X9041999Y1547599D01*
X9067399Y1522199D01*
X9092799D01*
Y1547599D01*
X9067399Y1572999D01*
X9092799Y1598399D01*
Y1623799D01*
X9067399D01*
X9041999Y1598399D01*
X9016599Y1623799D01*
X8991199D01*
Y1598399D01*
X9016599Y1572999D01*
X8991199Y1547599D01*
Y1522199D01*
X7316200Y1417200D02*
X7341600D01*
X7367000Y1442600D01*
X7392400Y1417200D01*
X7417800D01*
Y1442600D01*
X7392400Y1468000D01*
X7417800Y1493400D01*
Y1518800D01*
X7392400D01*
X7367000Y1493400D01*
X7341600Y1518800D01*
X7316200D01*
Y1493400D01*
X7341600Y1468000D01*
X7316200Y1442600D01*
Y1417200D01*
X4974200Y912200D02*
X4999600D01*
X5025000Y937600D01*
X5050400Y912200D01*
X5075800D01*
Y937600D01*
X5050400Y963000D01*
X5075800Y988400D01*
Y1013800D01*
X5050400D01*
X5025000Y988400D01*
X4999600Y1013800D01*
X4974200D01*
Y988400D01*
X4999600Y963000D01*
X4974200Y937600D01*
Y912200D01*
X5191700Y1409200D02*
X5217100D01*
X5242500Y1434600D01*
X5267900Y1409200D01*
X5293300D01*
Y1434600D01*
X5267900Y1460000D01*
X5293300Y1485400D01*
Y1510800D01*
X5267900D01*
X5242500Y1485400D01*
X5217100Y1510800D01*
X5191700D01*
Y1485400D01*
X5217100Y1460000D01*
X5191700Y1434600D01*
Y1409200D01*
Y2524200D02*
X5217100D01*
X5242500Y2549600D01*
X5267900Y2524200D01*
X5293300D01*
Y2549600D01*
X5267900Y2575000D01*
X5293300Y2600400D01*
Y2625800D01*
X5267900D01*
X5242500Y2600400D01*
X5217100Y2625800D01*
X5191700D01*
Y2600400D01*
X5217100Y2575000D01*
X5191700Y2549600D01*
Y2524200D01*
X5164200Y2650009D02*
X5189600D01*
X5215000Y2675409D01*
X5240400Y2650009D01*
X5265800D01*
Y2675409D01*
X5240400Y2700809D01*
X5265800Y2726209D01*
Y2751609D01*
X5240400D01*
X5215000Y2726209D01*
X5189600Y2751609D01*
X5164200D01*
Y2726209D01*
X5189600Y2700809D01*
X5164200Y2675409D01*
Y2650009D01*
X5487391D02*
X5512791D01*
X5538191Y2675409D01*
X5563591Y2650009D01*
X5588991D01*
Y2675409D01*
X5563591Y2700809D01*
X5588991Y2726209D01*
Y2751609D01*
X5563591D01*
X5538191Y2726209D01*
X5512791Y2751609D01*
X5487391D01*
Y2726209D01*
X5512791Y2700809D01*
X5487391Y2675409D01*
Y2650009D01*
X1427200Y1200200D02*
X1452600D01*
X1478000Y1225600D01*
X1503400Y1200200D01*
X1528800D01*
Y1225600D01*
X1503400Y1251000D01*
X1528800Y1276400D01*
Y1301800D01*
X1503400D01*
X1478000Y1276400D01*
X1452600Y1301800D01*
X1427200D01*
Y1276400D01*
X1452600Y1251000D01*
X1427200Y1225600D01*
Y1200200D01*
X8809200Y1597200D02*
X8834600D01*
X8860000Y1622600D01*
X8885400Y1597200D01*
X8910800D01*
Y1622600D01*
X8885400Y1648000D01*
X8910800Y1673400D01*
Y1698800D01*
X8885400D01*
X8860000Y1673400D01*
X8834600Y1698800D01*
X8809200D01*
Y1673400D01*
X8834600Y1648000D01*
X8809200Y1622600D01*
Y1597200D01*
X9626500Y930700D02*
X9651900D01*
X9677300Y956100D01*
X9702700Y930700D01*
X9728100D01*
Y956100D01*
X9702700Y981500D01*
X9728100Y1006900D01*
Y1032300D01*
X9702700D01*
X9677300Y1006900D01*
X9651900Y1032300D01*
X9626500D01*
Y1006900D01*
X9651900Y981500D01*
X9626500Y956100D01*
Y930700D01*
X8283200Y1644200D02*
X8308600D01*
X8334000Y1669600D01*
X8359400Y1644200D01*
X8384800D01*
Y1669600D01*
X8359400Y1695000D01*
X8384800Y1720400D01*
Y1745800D01*
X8359400D01*
X8334000Y1720400D01*
X8308600Y1745800D01*
X8283200D01*
Y1720400D01*
X8308600Y1695000D01*
X8283200Y1669600D01*
Y1644200D01*
X5481200Y2523200D02*
X5506600D01*
X5532000Y2548600D01*
X5557400Y2523200D01*
X5582800D01*
Y2548600D01*
X5557400Y2574000D01*
X5582800Y2599400D01*
Y2624800D01*
X5557400D01*
X5532000Y2599400D01*
X5506600Y2624800D01*
X5481200D01*
Y2599400D01*
X5506600Y2574000D01*
X5481200Y2548600D01*
Y2523200D01*
X7861200Y2139481D02*
X7886600D01*
X7912000Y2164881D01*
X7937400Y2139481D01*
X7962800D01*
Y2164881D01*
X7937400Y2190281D01*
X7962800Y2215681D01*
Y2241081D01*
X7937400D01*
X7912000Y2215681D01*
X7886600Y2241081D01*
X7861200D01*
Y2215681D01*
X7886600Y2190281D01*
X7861200Y2164881D01*
Y2139481D01*
X7848200Y2014481D02*
X7873600D01*
X7899000Y2039881D01*
X7924400Y2014481D01*
X7949800D01*
Y2039881D01*
X7924400Y2065281D01*
X7949800Y2090681D01*
Y2116081D01*
X7924400D01*
X7899000Y2090681D01*
X7873600Y2116081D01*
X7848200D01*
Y2090681D01*
X7873600Y2065281D01*
X7848200Y2039881D01*
Y2014481D01*
X8036200Y2662199D02*
X8061600D01*
X8087000Y2687599D01*
X8112400Y2662199D01*
X8137800D01*
Y2687599D01*
X8112400Y2712999D01*
X8137800Y2738399D01*
Y2763799D01*
X8112400D01*
X8087000Y2738399D01*
X8061600Y2763799D01*
X8036200D01*
Y2738399D01*
X8061600Y2712999D01*
X8036200Y2687599D01*
Y2662199D01*
X8413200Y2227200D02*
X8438600D01*
X8464000Y2252600D01*
X8489400Y2227200D01*
X8514800D01*
Y2252600D01*
X8489400Y2278000D01*
X8514800Y2303400D01*
Y2328800D01*
X8489400D01*
X8464000Y2303400D01*
X8438600Y2328800D01*
X8413200D01*
Y2303400D01*
X8438600Y2278000D01*
X8413200Y2252600D01*
Y2227200D01*
X5591200Y1521200D02*
X5616600D01*
X5642000Y1546600D01*
X5667400Y1521200D01*
X5692800D01*
Y1546600D01*
X5667400Y1572000D01*
X5692800Y1597400D01*
Y1622800D01*
X5667400D01*
X5642000Y1597400D01*
X5616600Y1622800D01*
X5591200D01*
Y1597400D01*
X5616600Y1572000D01*
X5591200Y1546600D01*
Y1521200D01*
X6183189Y1598200D02*
X6208589D01*
X6233989Y1623600D01*
X6259389Y1598200D01*
X6284789D01*
Y1623600D01*
X6259389Y1649000D01*
X6284789Y1674400D01*
Y1699800D01*
X6259389D01*
X6233989Y1674400D01*
X6208589Y1699800D01*
X6183189D01*
Y1674400D01*
X6208589Y1649000D01*
X6183189Y1623600D01*
Y1598200D01*
X1433200Y1745200D02*
X1458600D01*
X1484000Y1770600D01*
X1509400Y1745200D01*
X1534800D01*
Y1770600D01*
X1509400Y1796000D01*
X1534800Y1821400D01*
Y1846800D01*
X1509400D01*
X1484000Y1821400D01*
X1458600Y1846800D01*
X1433200D01*
Y1821400D01*
X1458600Y1796000D01*
X1433200Y1770600D01*
Y1745200D01*
X6376200Y749200D02*
X6401600D01*
X6427000Y774600D01*
X6452400Y749200D01*
X6477800D01*
Y774600D01*
X6452400Y800000D01*
X6477800Y825400D01*
Y850800D01*
X6452400D01*
X6427000Y825400D01*
X6401600Y850800D01*
X6376200D01*
Y825400D01*
X6401600Y800000D01*
X6376200Y774600D01*
Y749200D01*
X6615200Y655200D02*
X6640600D01*
X6666000Y680600D01*
X6691400Y655200D01*
X6716800D01*
Y680600D01*
X6691400Y706000D01*
X6716800Y731400D01*
Y756800D01*
X6691400D01*
X6666000Y731400D01*
X6640600Y756800D01*
X6615200D01*
Y731400D01*
X6640600Y706000D01*
X6615200Y680600D01*
Y655200D01*
X6574200Y386200D02*
X6599600D01*
X6625000Y411600D01*
X6650400Y386200D01*
X6675800D01*
Y411600D01*
X6650400Y437000D01*
X6675800Y462400D01*
Y487800D01*
X6650400D01*
X6625000Y462400D01*
X6599600Y487800D01*
X6574200D01*
Y462400D01*
X6599600Y437000D01*
X6574200Y411600D01*
Y386200D01*
X6841201Y380199D02*
X6866601D01*
X6892001Y405599D01*
X6917401Y380199D01*
X6942801D01*
Y405599D01*
X6917401Y430999D01*
X6942801Y456399D01*
Y481799D01*
X6917401D01*
X6892001Y456399D01*
X6866601Y481799D01*
X6841201D01*
Y456399D01*
X6866601Y430999D01*
X6841201Y405599D01*
Y380199D01*
X6290200Y388200D02*
X6315600D01*
X6341000Y413600D01*
X6366400Y388200D01*
X6391800D01*
Y413600D01*
X6366400Y439000D01*
X6391800Y464400D01*
Y489800D01*
X6366400D01*
X6341000Y464400D01*
X6315600Y489800D01*
X6290200D01*
Y464400D01*
X6315600Y439000D01*
X6290200Y413600D01*
Y388200D01*
X9077200Y1750200D02*
X9102600D01*
X9128000Y1775600D01*
X9153400Y1750200D01*
X9178800D01*
Y1775600D01*
X9153400Y1801000D01*
X9178800Y1826400D01*
Y1851800D01*
X9153400D01*
X9128000Y1826400D01*
X9102600Y1851800D01*
X9077200D01*
Y1826400D01*
X9102600Y1801000D01*
X9077200Y1775600D01*
Y1750200D01*
X8488200Y2540200D02*
X8513600D01*
X8539000Y2565600D01*
X8564400Y2540200D01*
X8589800D01*
Y2565600D01*
X8564400Y2591000D01*
X8589800Y2616400D01*
Y2641800D01*
X8564400D01*
X8539000Y2616400D01*
X8513600Y2641800D01*
X8488200D01*
Y2616400D01*
X8513600Y2591000D01*
X8488200Y2565600D01*
Y2540200D01*
X9085200Y2550200D02*
X9110600D01*
X9136000Y2575600D01*
X9161400Y2550200D01*
X9186800D01*
Y2575600D01*
X9161400Y2601000D01*
X9186800Y2626400D01*
Y2651800D01*
X9161400D01*
X9136000Y2626400D01*
X9110600Y2651800D01*
X9085200D01*
Y2626400D01*
X9110600Y2601000D01*
X9085200Y2575600D01*
Y2550200D01*
X9081401Y2448704D02*
X9106801D01*
X9132201Y2474104D01*
X9157601Y2448704D01*
X9183001D01*
Y2474104D01*
X9157601Y2499504D01*
X9183001Y2524904D01*
Y2550304D01*
X9157601D01*
X9132201Y2524904D01*
X9106801Y2550304D01*
X9081401D01*
Y2524904D01*
X9106801Y2499504D01*
X9081401Y2474104D01*
Y2448704D01*
X6192200Y369200D02*
X6217600D01*
X6243000Y394600D01*
X6268400Y369200D01*
X6293800D01*
Y394600D01*
X6268400Y420000D01*
X6293800Y445400D01*
Y470800D01*
X6268400D01*
X6243000Y445400D01*
X6217600Y470800D01*
X6192200D01*
Y445400D01*
X6217600Y420000D01*
X6192200Y394600D01*
Y369200D01*
X6942201Y374907D02*
X6967601D01*
X6993001Y400307D01*
X7018401Y374907D01*
X7043801D01*
Y400307D01*
X7018401Y425707D01*
X7043801Y451107D01*
Y476507D01*
X7018401D01*
X6993001Y451107D01*
X6967601Y476507D01*
X6942201D01*
Y451107D01*
X6967601Y425707D01*
X6942201Y400307D01*
Y374907D01*
X6678200Y376906D02*
X6703600D01*
X6729000Y402306D01*
X6754400Y376906D01*
X6779800D01*
Y402306D01*
X6754400Y427706D01*
X6779800Y453106D01*
Y478506D01*
X6754400D01*
X6729000Y453106D01*
X6703600Y478506D01*
X6678200D01*
Y453106D01*
X6703600Y427706D01*
X6678200Y402306D01*
Y376906D01*
X8403200Y2364200D02*
X8428600D01*
X8454000Y2389600D01*
X8479400Y2364200D01*
X8504800D01*
Y2389600D01*
X8479400Y2415000D01*
X8504800Y2440400D01*
Y2465800D01*
X8479400D01*
X8454000Y2440400D01*
X8428600Y2465800D01*
X8403200D01*
Y2440400D01*
X8428600Y2415000D01*
X8403200Y2389600D01*
Y2364200D01*
X8395200Y2584200D02*
X8420600D01*
X8446000Y2609600D01*
X8471400Y2584200D01*
X8496800D01*
Y2609600D01*
X8471400Y2635000D01*
X8496800Y2660400D01*
Y2685800D01*
X8471400D01*
X8446000Y2660400D01*
X8420600Y2685800D01*
X8395200D01*
Y2660400D01*
X8420600Y2635000D01*
X8395200Y2609600D01*
Y2584200D01*
X7849200Y43200D02*
X7874600D01*
X7900000Y68600D01*
X7925400Y43200D01*
X7950800D01*
Y68600D01*
X7925400Y94000D01*
X7950800Y119400D01*
Y144800D01*
X7925400D01*
X7900000Y119400D01*
X7874600Y144800D01*
X7849200D01*
Y119400D01*
X7874600Y94000D01*
X7849200Y68600D01*
Y43200D01*
X7861200Y193200D02*
X7886600D01*
X7912000Y218600D01*
X7937400Y193200D01*
X7962800D01*
Y218600D01*
X7937400Y244000D01*
X7962800Y269400D01*
Y294800D01*
X7937400D01*
X7912000Y269400D01*
X7886600Y294800D01*
X7861200D01*
Y269400D01*
X7886600Y244000D01*
X7861200Y218600D01*
Y193200D01*
X5864689Y1416689D02*
X5890089D01*
X5915489Y1442089D01*
X5940889Y1416689D01*
X5966289D01*
Y1442089D01*
X5940889Y1467489D01*
X5966289Y1492889D01*
Y1518289D01*
X5940889D01*
X5915489Y1492889D01*
X5890089Y1518289D01*
X5864689D01*
Y1492889D01*
X5890089Y1467489D01*
X5864689Y1442089D01*
Y1416689D01*
X7861200Y635200D02*
X7886600D01*
X7912000Y660600D01*
X7937400Y635200D01*
X7962800D01*
Y660600D01*
X7937400Y686000D01*
X7962800Y711400D01*
Y736800D01*
X7937400D01*
X7912000Y711400D01*
X7886600Y736800D01*
X7861200D01*
Y711400D01*
X7886600Y686000D01*
X7861200Y660600D01*
Y635200D01*
X5082200Y881200D02*
X5107600D01*
X5133000Y906600D01*
X5158400Y881200D01*
X5183800D01*
Y906600D01*
X5158400Y932000D01*
X5183800Y957400D01*
Y982800D01*
X5158400D01*
X5133000Y957400D01*
X5107600Y982800D01*
X5082200D01*
Y957400D01*
X5107600Y932000D01*
X5082200Y906600D01*
Y881200D01*
X5699200Y1154200D02*
X5724600D01*
X5750000Y1179600D01*
X5775400Y1154200D01*
X5800800D01*
Y1179600D01*
X5775400Y1205000D01*
X5800800Y1230400D01*
Y1255800D01*
X5775400D01*
X5750000Y1230400D01*
X5724600Y1255800D01*
X5699200D01*
Y1230400D01*
X5724600Y1205000D01*
X5699200Y1179600D01*
Y1154200D01*
X5992129Y1343200D02*
X6017529D01*
X6042929Y1368600D01*
X6068329Y1343200D01*
X6093729D01*
Y1368600D01*
X6068329Y1394000D01*
X6093729Y1419400D01*
Y1444800D01*
X6068329D01*
X6042929Y1419400D01*
X6017529Y1444800D01*
X5992129D01*
Y1419400D01*
X6017529Y1394000D01*
X5992129Y1368600D01*
Y1343200D01*
X6315200Y878200D02*
X6340600D01*
X6366000Y903600D01*
X6391400Y878200D01*
X6416800D01*
Y903600D01*
X6391400Y929000D01*
X6416800Y954400D01*
Y979800D01*
X6391400D01*
X6366000Y954400D01*
X6340600Y979800D01*
X6315200D01*
Y954400D01*
X6340600Y929000D01*
X6315200Y903600D01*
Y878200D01*
X7283200Y750200D02*
X7308600D01*
X7334000Y775600D01*
X7359400Y750200D01*
X7384800D01*
Y775600D01*
X7359400Y801000D01*
X7384800Y826400D01*
Y851800D01*
X7359400D01*
X7334000Y826400D01*
X7308600Y851800D01*
X7283200D01*
Y826400D01*
X7308600Y801000D01*
X7283200Y775600D01*
Y750200D01*
X5988200Y879200D02*
X6013600D01*
X6039000Y904600D01*
X6064400Y879200D01*
X6089800D01*
Y904600D01*
X6064400Y930000D01*
X6089800Y955400D01*
Y980800D01*
X6064400D01*
X6039000Y955400D01*
X6013600Y980800D01*
X5988200D01*
Y955400D01*
X6013600Y930000D01*
X5988200Y904600D01*
Y879200D01*
Y685200D02*
X6013600D01*
X6039000Y710600D01*
X6064400Y685200D01*
X6089800D01*
Y710600D01*
X6064400Y736000D01*
X6089800Y761400D01*
Y786800D01*
X6064400D01*
X6039000Y761400D01*
X6013600Y786800D01*
X5988200D01*
Y761400D01*
X6013600Y736000D01*
X5988200Y710600D01*
Y685200D01*
X7438200Y785200D02*
X7463600D01*
X7489000Y810600D01*
X7514400Y785200D01*
X7539800D01*
Y810600D01*
X7514400Y836000D01*
X7539800Y861400D01*
Y886800D01*
X7514400D01*
X7489000Y861400D01*
X7463600Y886800D01*
X7438200D01*
Y861400D01*
X7463600Y836000D01*
X7438200Y810600D01*
Y785200D01*
X7849200Y485200D02*
X7874600D01*
X7900000Y510600D01*
X7925400Y485200D01*
X7950800D01*
Y510600D01*
X7925400Y536000D01*
X7950800Y561400D01*
Y586800D01*
X7925400D01*
X7900000Y561400D01*
X7874600Y586800D01*
X7849200D01*
Y561400D01*
X7874600Y536000D01*
X7849200Y510600D01*
Y485200D01*
X5591200Y1240700D02*
X5616600D01*
X5642000Y1266100D01*
X5667400Y1240700D01*
X5692800D01*
Y1266100D01*
X5667400Y1291500D01*
X5692800Y1316900D01*
Y1342300D01*
X5667400D01*
X5642000Y1316900D01*
X5616600Y1342300D01*
X5591200D01*
Y1316900D01*
X5616600Y1291500D01*
X5591200Y1266100D01*
Y1240700D01*
X5366700Y2266200D02*
X5392100D01*
X5417500Y2291600D01*
X5442900Y2266200D01*
X5468300D01*
Y2291600D01*
X5442900Y2317000D01*
X5468300Y2342400D01*
Y2367800D01*
X5442900D01*
X5417500Y2342400D01*
X5392100Y2367800D01*
X5366700D01*
Y2342400D01*
X5392100Y2317000D01*
X5366700Y2291600D01*
Y2266200D01*
X6917201Y3660200D02*
X6942601D01*
X6968001Y3685600D01*
X6993401Y3660200D01*
X7018801D01*
Y3685600D01*
X6993401Y3711000D01*
X7018801Y3736400D01*
Y3761800D01*
X6993401D01*
X6968001Y3736400D01*
X6942601Y3761800D01*
X6917201D01*
Y3736400D01*
X6942601Y3711000D01*
X6917201Y3685600D01*
Y3660200D01*
X7017201D02*
X7042601D01*
X7068001Y3685600D01*
X7093401Y3660200D01*
X7118801D01*
Y3685600D01*
X7093401Y3711000D01*
X7118801Y3736400D01*
Y3761800D01*
X7093401D01*
X7068001Y3736400D01*
X7042601Y3761800D01*
X7017201D01*
Y3736400D01*
X7042601Y3711000D01*
X7017201Y3685600D01*
Y3660200D01*
X7117201D02*
X7142601D01*
X7168001Y3685600D01*
X7193401Y3660200D01*
X7218801D01*
Y3685600D01*
X7193401Y3711000D01*
X7218801Y3736400D01*
Y3761800D01*
X7193401D01*
X7168001Y3736400D01*
X7142601Y3761800D01*
X7117201D01*
Y3736400D01*
X7142601Y3711000D01*
X7117201Y3685600D01*
Y3660200D01*
X7217202D02*
X7242602D01*
X7268002Y3685600D01*
X7293402Y3660200D01*
X7318802D01*
Y3685600D01*
X7293402Y3711000D01*
X7318802Y3736400D01*
Y3761800D01*
X7293402D01*
X7268002Y3736400D01*
X7242602Y3761800D01*
X7217202D01*
Y3736400D01*
X7242602Y3711000D01*
X7217202Y3685600D01*
Y3660200D01*
X7317202D02*
X7342602D01*
X7368002Y3685600D01*
X7393402Y3660200D01*
X7418802D01*
Y3685600D01*
X7393402Y3711000D01*
X7418802Y3736400D01*
Y3761800D01*
X7393402D01*
X7368002Y3736400D01*
X7342602Y3761800D01*
X7317202D01*
Y3736400D01*
X7342602Y3711000D01*
X7317202Y3685600D01*
Y3660200D01*
X7557202D02*
X7582602D01*
X7608002Y3685600D01*
X7633402Y3660200D01*
X7658802D01*
Y3685600D01*
X7633402Y3711000D01*
X7658802Y3736400D01*
Y3761800D01*
X7633402D01*
X7608002Y3736400D01*
X7582602Y3761800D01*
X7557202D01*
Y3736400D01*
X7582602Y3711000D01*
X7557202Y3685600D01*
Y3660200D01*
X6217201D02*
X6242601D01*
X6268001Y3685600D01*
X6293401Y3660200D01*
X6318801D01*
Y3685600D01*
X6293401Y3711000D01*
X6318801Y3736400D01*
Y3761800D01*
X6293401D01*
X6268001Y3736400D01*
X6242601Y3761800D01*
X6217201D01*
Y3736400D01*
X6242601Y3711000D01*
X6217201Y3685600D01*
Y3660200D01*
X6317201D02*
X6342601D01*
X6368001Y3685600D01*
X6393401Y3660200D01*
X6418801D01*
Y3685600D01*
X6393401Y3711000D01*
X6418801Y3736400D01*
Y3761800D01*
X6393401D01*
X6368001Y3736400D01*
X6342601Y3761800D01*
X6317201D01*
Y3736400D01*
X6342601Y3711000D01*
X6317201Y3685600D01*
Y3660200D01*
X6417201D02*
X6442601D01*
X6468001Y3685600D01*
X6493401Y3660200D01*
X6518801D01*
Y3685600D01*
X6493401Y3711000D01*
X6518801Y3736400D01*
Y3761800D01*
X6493401D01*
X6468001Y3736400D01*
X6442601Y3761800D01*
X6417201D01*
Y3736400D01*
X6442601Y3711000D01*
X6417201Y3685600D01*
Y3660200D01*
X6517201D02*
X6542601D01*
X6568001Y3685600D01*
X6593401Y3660200D01*
X6618801D01*
Y3685600D01*
X6593401Y3711000D01*
X6618801Y3736400D01*
Y3761800D01*
X6593401D01*
X6568001Y3736400D01*
X6542601Y3761800D01*
X6517201D01*
Y3736400D01*
X6542601Y3711000D01*
X6517201Y3685600D01*
Y3660200D01*
X6617201D02*
X6642601D01*
X6668001Y3685600D01*
X6693401Y3660200D01*
X6718801D01*
Y3685600D01*
X6693401Y3711000D01*
X6718801Y3736400D01*
Y3761800D01*
X6693401D01*
X6668001Y3736400D01*
X6642601Y3761800D01*
X6617201D01*
Y3736400D01*
X6642601Y3711000D01*
X6617201Y3685600D01*
Y3660200D01*
X6717201D02*
X6742601D01*
X6768001Y3685600D01*
X6793401Y3660200D01*
X6818801D01*
Y3685600D01*
X6793401Y3711000D01*
X6818801Y3736400D01*
Y3761800D01*
X6793401D01*
X6768001Y3736400D01*
X6742601Y3761800D01*
X6717201D01*
Y3736400D01*
X6742601Y3711000D01*
X6717201Y3685600D01*
Y3660200D01*
X6817201D02*
X6842601D01*
X6868001Y3685600D01*
X6893401Y3660200D01*
X6918801D01*
Y3685600D01*
X6893401Y3711000D01*
X6918801Y3736400D01*
Y3761800D01*
X6893401D01*
X6868001Y3736400D01*
X6842601Y3761800D01*
X6817201D01*
Y3736400D01*
X6842601Y3711000D01*
X6817201Y3685600D01*
Y3660200D01*
X5567200D02*
X5592600D01*
X5618000Y3685600D01*
X5643400Y3660200D01*
X5668800D01*
Y3685600D01*
X5643400Y3711000D01*
X5668800Y3736400D01*
Y3761800D01*
X5643400D01*
X5618000Y3736400D01*
X5592600Y3761800D01*
X5567200D01*
Y3736400D01*
X5592600Y3711000D01*
X5567200Y3685600D01*
Y3660200D01*
X5817200D02*
X5842600D01*
X5868000Y3685600D01*
X5893400Y3660200D01*
X5918800D01*
Y3685600D01*
X5893400Y3711000D01*
X5918800Y3736400D01*
Y3761800D01*
X5893400D01*
X5868000Y3736400D01*
X5842600Y3761800D01*
X5817200D01*
Y3736400D01*
X5842600Y3711000D01*
X5817200Y3685600D01*
Y3660200D01*
X5917200D02*
X5942600D01*
X5968000Y3685600D01*
X5993400Y3660200D01*
X6018800D01*
Y3685600D01*
X5993400Y3711000D01*
X6018800Y3736400D01*
Y3761800D01*
X5993400D01*
X5968000Y3736400D01*
X5942600Y3761800D01*
X5917200D01*
Y3736400D01*
X5942600Y3711000D01*
X5917200Y3685600D01*
Y3660200D01*
X6017200D02*
X6042600D01*
X6068000Y3685600D01*
X6093400Y3660200D01*
X6118800D01*
Y3685600D01*
X6093400Y3711000D01*
X6118800Y3736400D01*
Y3761800D01*
X6093400D01*
X6068000Y3736400D01*
X6042600Y3761800D01*
X6017200D01*
Y3736400D01*
X6042600Y3711000D01*
X6017200Y3685600D01*
Y3660200D01*
X6117201D02*
X6142601D01*
X6168001Y3685600D01*
X6193401Y3660200D01*
X6218801D01*
Y3685600D01*
X6193401Y3711000D01*
X6218801Y3736400D01*
Y3761800D01*
X6193401D01*
X6168001Y3736400D01*
X6142601Y3761800D01*
X6117201D01*
Y3736400D01*
X6142601Y3711000D01*
X6117201Y3685600D01*
Y3660200D01*
X5059200Y3163200D02*
X5084600D01*
X5110000Y3188600D01*
X5135400Y3163200D01*
X5160800D01*
Y3188600D01*
X5135400Y3214000D01*
X5160800Y3239400D01*
Y3264800D01*
X5135400D01*
X5110000Y3239400D01*
X5084600Y3264800D01*
X5059200D01*
Y3239400D01*
X5084600Y3214000D01*
X5059200Y3188600D01*
Y3163200D01*
X5314200Y3166200D02*
X5339600D01*
X5365000Y3191600D01*
X5390400Y3166200D01*
X5415800D01*
Y3191600D01*
X5390400Y3217000D01*
X5415800Y3242400D01*
Y3267800D01*
X5390400D01*
X5365000Y3242400D01*
X5339600Y3267800D01*
X5314200D01*
Y3242400D01*
X5339600Y3217000D01*
X5314200Y3191600D01*
Y3166200D01*
X5545200Y3034200D02*
X5570600D01*
X5596000Y3059600D01*
X5621400Y3034200D01*
X5646800D01*
Y3059600D01*
X5621400Y3085000D01*
X5646800Y3110400D01*
Y3135800D01*
X5621400D01*
X5596000Y3110400D01*
X5570600Y3135800D01*
X5545200D01*
Y3110400D01*
X5570600Y3085000D01*
X5545200Y3059600D01*
Y3034200D01*
X5176200D02*
X5201600D01*
X5227000Y3059600D01*
X5252400Y3034200D01*
X5277800D01*
Y3059600D01*
X5252400Y3085000D01*
X5277800Y3110400D01*
Y3135800D01*
X5252400D01*
X5227000Y3110400D01*
X5201600Y3135800D01*
X5176200D01*
Y3110400D01*
X5201600Y3085000D01*
X5176200Y3059600D01*
Y3034200D01*
X5542200Y2905200D02*
X5567600D01*
X5593000Y2930600D01*
X5618400Y2905200D01*
X5643800D01*
Y2930600D01*
X5618400Y2956000D01*
X5643800Y2981400D01*
Y3006800D01*
X5618400D01*
X5593000Y2981400D01*
X5567600Y3006800D01*
X5542200D01*
Y2981400D01*
X5567600Y2956000D01*
X5542200Y2930600D01*
Y2905200D01*
X5156200D02*
X5181600D01*
X5207000Y2930600D01*
X5232400Y2905200D01*
X5257800D01*
Y2930600D01*
X5232400Y2956000D01*
X5257800Y2981400D01*
Y3006800D01*
X5232400D01*
X5207000Y2981400D01*
X5181600Y3006800D01*
X5156200D01*
Y2981400D01*
X5181600Y2956000D01*
X5156200Y2930600D01*
Y2905200D01*
X2022200Y845200D02*
X2047600D01*
X2073000Y870600D01*
X2098400Y845200D01*
X2123800D01*
Y870600D01*
X2098400Y896000D01*
X2123800Y921400D01*
Y946800D01*
X2098400D01*
X2073000Y921400D01*
X2047600Y946800D01*
X2022200D01*
Y921400D01*
X2047600Y896000D01*
X2022200Y870600D01*
Y845200D01*
X5554200Y2269009D02*
X5579600D01*
X5605000Y2294409D01*
X5630400Y2269009D01*
X5655800D01*
Y2294409D01*
X5630400Y2319809D01*
X5655800Y2345209D01*
Y2370609D01*
X5630400D01*
X5605000Y2345209D01*
X5579600Y2370609D01*
X5554200D01*
Y2345209D01*
X5579600Y2319809D01*
X5554200Y2294409D01*
Y2269009D01*
X7578009Y3539009D02*
X7603409D01*
X7628809Y3564409D01*
X7654209Y3539009D01*
X7679609D01*
Y3564409D01*
X7654209Y3589809D01*
X7679609Y3615209D01*
Y3640609D01*
X7654209D01*
X7628809Y3615209D01*
X7603409Y3640609D01*
X7578009D01*
Y3615209D01*
X7603409Y3589809D01*
X7578009Y3564409D01*
Y3539009D01*
X7573009Y3412009D02*
X7598409D01*
X7623809Y3437409D01*
X7649209Y3412009D01*
X7674609D01*
Y3437409D01*
X7649209Y3462809D01*
X7674609Y3488209D01*
Y3513609D01*
X7649209D01*
X7623809Y3488209D01*
X7598409Y3513609D01*
X7573009D01*
Y3488209D01*
X7598409Y3462809D01*
X7573009Y3437409D01*
Y3412009D01*
X5530200Y3411580D02*
X5555600D01*
X5581000Y3436980D01*
X5606400Y3411580D01*
X5631800D01*
Y3436980D01*
X5606400Y3462380D01*
X5631800Y3487780D01*
Y3513180D01*
X5606400D01*
X5581000Y3487780D01*
X5555600Y3513180D01*
X5530200D01*
Y3487780D01*
X5555600Y3462380D01*
X5530200Y3436980D01*
Y3411580D01*
X4643200Y3297200D02*
X4668600D01*
X4694000Y3322600D01*
X4719400Y3297200D01*
X4744800D01*
Y3322600D01*
X4719400Y3348000D01*
X4744800Y3373400D01*
Y3398800D01*
X4719400D01*
X4694000Y3373400D01*
X4668600Y3398800D01*
X4643200D01*
Y3373400D01*
X4668600Y3348000D01*
X4643200Y3322600D01*
Y3297200D01*
X5467200Y4360200D02*
X5492600D01*
X5518000Y4385600D01*
X5543400Y4360200D01*
X5568800D01*
Y4385600D01*
X5543400Y4411000D01*
X5568800Y4436400D01*
Y4461800D01*
X5543400D01*
X5518000Y4436400D01*
X5492600Y4461800D01*
X5467200D01*
Y4436400D01*
X5492600Y4411000D01*
X5467200Y4385600D01*
Y4360200D01*
Y4260200D02*
X5492600D01*
X5518000Y4285600D01*
X5543400Y4260200D01*
X5568800D01*
Y4285600D01*
X5543400Y4311000D01*
X5568800Y4336400D01*
Y4361800D01*
X5543400D01*
X5518000Y4336400D01*
X5492600Y4361800D01*
X5467200D01*
Y4336400D01*
X5492600Y4311000D01*
X5467200Y4285600D01*
Y4260200D01*
Y4160200D02*
X5492600D01*
X5518000Y4185600D01*
X5543400Y4160200D01*
X5568800D01*
Y4185600D01*
X5543400Y4211000D01*
X5568800Y4236400D01*
Y4261800D01*
X5543400D01*
X5518000Y4236400D01*
X5492600Y4261800D01*
X5467200D01*
Y4236400D01*
X5492600Y4211000D01*
X5467200Y4185600D01*
Y4160200D01*
Y4060200D02*
X5492600D01*
X5518000Y4085600D01*
X5543400Y4060200D01*
X5568800D01*
Y4085600D01*
X5543400Y4111000D01*
X5568800Y4136400D01*
Y4161800D01*
X5543400D01*
X5518000Y4136400D01*
X5492600Y4161800D01*
X5467200D01*
Y4136400D01*
X5492600Y4111000D01*
X5467200Y4085600D01*
Y4060200D01*
Y3960200D02*
X5492600D01*
X5518000Y3985600D01*
X5543400Y3960200D01*
X5568800D01*
Y3985600D01*
X5543400Y4011000D01*
X5568800Y4036400D01*
Y4061800D01*
X5543400D01*
X5518000Y4036400D01*
X5492600Y4061800D01*
X5467200D01*
Y4036400D01*
X5492600Y4011000D01*
X5467200Y3985600D01*
Y3960200D01*
Y3860200D02*
X5492600D01*
X5518000Y3885600D01*
X5543400Y3860200D01*
X5568800D01*
Y3885600D01*
X5543400Y3911000D01*
X5568800Y3936400D01*
Y3961800D01*
X5543400D01*
X5518000Y3936400D01*
X5492600Y3961800D01*
X5467200D01*
Y3936400D01*
X5492600Y3911000D01*
X5467200Y3885600D01*
Y3860200D01*
Y3760200D02*
X5492600D01*
X5518000Y3785600D01*
X5543400Y3760200D01*
X5568800D01*
Y3785600D01*
X5543400Y3811000D01*
X5568800Y3836400D01*
Y3861800D01*
X5543400D01*
X5518000Y3836400D01*
X5492600Y3861800D01*
X5467200D01*
Y3836400D01*
X5492600Y3811000D01*
X5467200Y3785600D01*
Y3760200D01*
Y3660200D02*
X5492600D01*
X5518000Y3685600D01*
X5543400Y3660200D01*
X5568800D01*
Y3685600D01*
X5543400Y3711000D01*
X5568800Y3736400D01*
Y3761800D01*
X5543400D01*
X5518000Y3736400D01*
X5492600Y3761800D01*
X5467200D01*
Y3736400D01*
X5492600Y3711000D01*
X5467200Y3685600D01*
Y3660200D01*
X7657200Y4360200D02*
X7682600D01*
X7708000Y4385600D01*
X7733400Y4360200D01*
X7758800D01*
Y4385600D01*
X7733400Y4411000D01*
X7758800Y4436400D01*
Y4461800D01*
X7733400D01*
X7708000Y4436400D01*
X7682600Y4461800D01*
X7657200D01*
Y4436400D01*
X7682600Y4411000D01*
X7657200Y4385600D01*
Y4360200D01*
Y4260200D02*
X7682600D01*
X7708000Y4285600D01*
X7733400Y4260200D01*
X7758800D01*
Y4285600D01*
X7733400Y4311000D01*
X7758800Y4336400D01*
Y4361800D01*
X7733400D01*
X7708000Y4336400D01*
X7682600Y4361800D01*
X7657200D01*
Y4336400D01*
X7682600Y4311000D01*
X7657200Y4285600D01*
Y4260200D01*
Y4160200D02*
X7682600D01*
X7708000Y4185600D01*
X7733400Y4160200D01*
X7758800D01*
Y4185600D01*
X7733400Y4211000D01*
X7758800Y4236400D01*
Y4261800D01*
X7733400D01*
X7708000Y4236400D01*
X7682600Y4261800D01*
X7657200D01*
Y4236400D01*
X7682600Y4211000D01*
X7657200Y4185600D01*
Y4160200D01*
Y4060200D02*
X7682600D01*
X7708000Y4085600D01*
X7733400Y4060200D01*
X7758800D01*
Y4085600D01*
X7733400Y4111000D01*
X7758800Y4136400D01*
Y4161800D01*
X7733400D01*
X7708000Y4136400D01*
X7682600Y4161800D01*
X7657200D01*
Y4136400D01*
X7682600Y4111000D01*
X7657200Y4085600D01*
Y4060200D01*
Y3960200D02*
X7682600D01*
X7708000Y3985600D01*
X7733400Y3960200D01*
X7758800D01*
Y3985600D01*
X7733400Y4011000D01*
X7758800Y4036400D01*
Y4061800D01*
X7733400D01*
X7708000Y4036400D01*
X7682600Y4061800D01*
X7657200D01*
Y4036400D01*
X7682600Y4011000D01*
X7657200Y3985600D01*
Y3960200D01*
Y3860200D02*
X7682600D01*
X7708000Y3885600D01*
X7733400Y3860200D01*
X7758800D01*
Y3885600D01*
X7733400Y3911000D01*
X7758800Y3936400D01*
Y3961800D01*
X7733400D01*
X7708000Y3936400D01*
X7682600Y3961800D01*
X7657200D01*
Y3936400D01*
X7682600Y3911000D01*
X7657200Y3885600D01*
Y3860200D01*
Y3760200D02*
X7682600D01*
X7708000Y3785600D01*
X7733400Y3760200D01*
X7758800D01*
Y3785600D01*
X7733400Y3811000D01*
X7758800Y3836400D01*
Y3861800D01*
X7733400D01*
X7708000Y3836400D01*
X7682600Y3861800D01*
X7657200D01*
Y3836400D01*
X7682600Y3811000D01*
X7657200Y3785600D01*
Y3760200D01*
Y3660200D02*
X7682600D01*
X7708000Y3685600D01*
X7733400Y3660200D01*
X7758800D01*
Y3685600D01*
X7733400Y3711000D01*
X7758800Y3736400D01*
Y3761800D01*
X7733400D01*
X7708000Y3736400D01*
X7682600Y3761800D01*
X7657200D01*
Y3736400D01*
X7682600Y3711000D01*
X7657200Y3685600D01*
Y3660200D01*
X5367200Y4360200D02*
X5392600D01*
X5418000Y4385600D01*
X5443400Y4360200D01*
X5468800D01*
Y4385600D01*
X5443400Y4411000D01*
X5468800Y4436400D01*
Y4461800D01*
X5443400D01*
X5418000Y4436400D01*
X5392600Y4461800D01*
X5367200D01*
Y4436400D01*
X5392600Y4411000D01*
X5367200Y4385600D01*
Y4360200D01*
X7757200D02*
X7782600D01*
X7808000Y4385600D01*
X7833400Y4360200D01*
X7858800D01*
Y4385600D01*
X7833400Y4411000D01*
X7858800Y4436400D01*
Y4461800D01*
X7833400D01*
X7808000Y4436400D01*
X7782600Y4461800D01*
X7757200D01*
Y4436400D01*
X7782600Y4411000D01*
X7757200Y4385600D01*
Y4360200D01*
X5367200Y3660200D02*
X5392600D01*
X5418000Y3685600D01*
X5443400Y3660200D01*
X5468800D01*
Y3685600D01*
X5443400Y3711000D01*
X5468800Y3736400D01*
Y3761800D01*
X5443400D01*
X5418000Y3736400D01*
X5392600Y3761800D01*
X5367200D01*
Y3736400D01*
X5392600Y3711000D01*
X5367200Y3685600D01*
Y3660200D01*
Y3760200D02*
X5392600D01*
X5418000Y3785600D01*
X5443400Y3760200D01*
X5468800D01*
Y3785600D01*
X5443400Y3811000D01*
X5468800Y3836400D01*
Y3861800D01*
X5443400D01*
X5418000Y3836400D01*
X5392600Y3861800D01*
X5367200D01*
Y3836400D01*
X5392600Y3811000D01*
X5367200Y3785600D01*
Y3760200D01*
Y3860200D02*
X5392600D01*
X5418000Y3885600D01*
X5443400Y3860200D01*
X5468800D01*
Y3885600D01*
X5443400Y3911000D01*
X5468800Y3936400D01*
Y3961800D01*
X5443400D01*
X5418000Y3936400D01*
X5392600Y3961800D01*
X5367200D01*
Y3936400D01*
X5392600Y3911000D01*
X5367200Y3885600D01*
Y3860200D01*
Y3960200D02*
X5392600D01*
X5418000Y3985600D01*
X5443400Y3960200D01*
X5468800D01*
Y3985600D01*
X5443400Y4011000D01*
X5468800Y4036400D01*
Y4061800D01*
X5443400D01*
X5418000Y4036400D01*
X5392600Y4061800D01*
X5367200D01*
Y4036400D01*
X5392600Y4011000D01*
X5367200Y3985600D01*
Y3960200D01*
Y4060200D02*
X5392600D01*
X5418000Y4085600D01*
X5443400Y4060200D01*
X5468800D01*
Y4085600D01*
X5443400Y4111000D01*
X5468800Y4136400D01*
Y4161800D01*
X5443400D01*
X5418000Y4136400D01*
X5392600Y4161800D01*
X5367200D01*
Y4136400D01*
X5392600Y4111000D01*
X5367200Y4085600D01*
Y4060200D01*
Y4160200D02*
X5392600D01*
X5418000Y4185600D01*
X5443400Y4160200D01*
X5468800D01*
Y4185600D01*
X5443400Y4211000D01*
X5468800Y4236400D01*
Y4261800D01*
X5443400D01*
X5418000Y4236400D01*
X5392600Y4261800D01*
X5367200D01*
Y4236400D01*
X5392600Y4211000D01*
X5367200Y4185600D01*
Y4160200D01*
Y4260200D02*
X5392600D01*
X5418000Y4285600D01*
X5443400Y4260200D01*
X5468800D01*
Y4285600D01*
X5443400Y4311000D01*
X5468800Y4336400D01*
Y4361800D01*
X5443400D01*
X5418000Y4336400D01*
X5392600Y4361800D01*
X5367200D01*
Y4336400D01*
X5392600Y4311000D01*
X5367200Y4285600D01*
Y4260200D01*
X7757200Y3660200D02*
X7782600D01*
X7808000Y3685600D01*
X7833400Y3660200D01*
X7858800D01*
Y3685600D01*
X7833400Y3711000D01*
X7858800Y3736400D01*
Y3761800D01*
X7833400D01*
X7808000Y3736400D01*
X7782600Y3761800D01*
X7757200D01*
Y3736400D01*
X7782600Y3711000D01*
X7757200Y3685600D01*
Y3660200D01*
Y3760200D02*
X7782600D01*
X7808000Y3785600D01*
X7833400Y3760200D01*
X7858800D01*
Y3785600D01*
X7833400Y3811000D01*
X7858800Y3836400D01*
Y3861800D01*
X7833400D01*
X7808000Y3836400D01*
X7782600Y3861800D01*
X7757200D01*
Y3836400D01*
X7782600Y3811000D01*
X7757200Y3785600D01*
Y3760200D01*
Y3860200D02*
X7782600D01*
X7808000Y3885600D01*
X7833400Y3860200D01*
X7858800D01*
Y3885600D01*
X7833400Y3911000D01*
X7858800Y3936400D01*
Y3961800D01*
X7833400D01*
X7808000Y3936400D01*
X7782600Y3961800D01*
X7757200D01*
Y3936400D01*
X7782600Y3911000D01*
X7757200Y3885600D01*
Y3860200D01*
Y3960200D02*
X7782600D01*
X7808000Y3985600D01*
X7833400Y3960200D01*
X7858800D01*
Y3985600D01*
X7833400Y4011000D01*
X7858800Y4036400D01*
Y4061800D01*
X7833400D01*
X7808000Y4036400D01*
X7782600Y4061800D01*
X7757200D01*
Y4036400D01*
X7782600Y4011000D01*
X7757200Y3985600D01*
Y3960200D01*
Y4060200D02*
X7782600D01*
X7808000Y4085600D01*
X7833400Y4060200D01*
X7858800D01*
Y4085600D01*
X7833400Y4111000D01*
X7858800Y4136400D01*
Y4161800D01*
X7833400D01*
X7808000Y4136400D01*
X7782600Y4161800D01*
X7757200D01*
Y4136400D01*
X7782600Y4111000D01*
X7757200Y4085600D01*
Y4060200D01*
Y4160200D02*
X7782600D01*
X7808000Y4185600D01*
X7833400Y4160200D01*
X7858800D01*
Y4185600D01*
X7833400Y4211000D01*
X7858800Y4236400D01*
Y4261800D01*
X7833400D01*
X7808000Y4236400D01*
X7782600Y4261800D01*
X7757200D01*
Y4236400D01*
X7782600Y4211000D01*
X7757200Y4185600D01*
Y4160200D01*
Y4260200D02*
X7782600D01*
X7808000Y4285600D01*
X7833400Y4260200D01*
X7858800D01*
Y4285600D01*
X7833400Y4311000D01*
X7858800Y4336400D01*
Y4361800D01*
X7833400D01*
X7808000Y4336400D01*
X7782600Y4361800D01*
X7757200D01*
Y4336400D01*
X7782600Y4311000D01*
X7757200Y4285600D01*
Y4260200D01*
X1199200Y3300200D02*
X1224600D01*
X1250000Y3325600D01*
X1275400Y3300200D01*
X1300800D01*
Y3325600D01*
X1275400Y3351000D01*
X1300800Y3376400D01*
Y3401800D01*
X1275400D01*
X1250000Y3376400D01*
X1224600Y3401800D01*
X1199200D01*
Y3376400D01*
X1224600Y3351000D01*
X1199200Y3325600D01*
Y3300200D01*
X3864200Y3349200D02*
X3889600D01*
X3915000Y3374600D01*
X3940400Y3349200D01*
X3965800D01*
Y3374600D01*
X3940400Y3400000D01*
X3965800Y3425400D01*
Y3450800D01*
X3940400D01*
X3915000Y3425400D01*
X3889600Y3450800D01*
X3864200D01*
Y3425400D01*
X3889600Y3400000D01*
X3864200Y3374600D01*
Y3349200D01*
X4380200Y4383200D02*
X4405600D01*
X4431000Y4408600D01*
X4456400Y4383200D01*
X4481800D01*
Y4408600D01*
X4456400Y4434000D01*
X4481800Y4459400D01*
Y4484800D01*
X4456400D01*
X4431000Y4459400D01*
X4405600Y4484800D01*
X4380200D01*
Y4459400D01*
X4405600Y4434000D01*
X4380200Y4408600D01*
Y4383200D01*
X4080200Y1000200D02*
X4105600D01*
X4131000Y1025600D01*
X4156400Y1000200D01*
X4181800D01*
Y1025600D01*
X4156400Y1051000D01*
X4181800Y1076400D01*
Y1101800D01*
X4156400D01*
X4131000Y1076400D01*
X4105600Y1101800D01*
X4080200D01*
Y1076400D01*
X4105600Y1051000D01*
X4080200Y1025600D01*
Y1000200D01*
X2863200Y901200D02*
X2888600D01*
X2914000Y926600D01*
X2939400Y901200D01*
X2964800D01*
Y926600D01*
X2939400Y952000D01*
X2964800Y977400D01*
Y1002800D01*
X2939400D01*
X2914000Y977400D01*
X2888600Y1002800D01*
X2863200D01*
Y977400D01*
X2888600Y952000D01*
X2863200Y926600D01*
Y901200D01*
X1135800Y1466200D02*
X1161200D01*
X1186600Y1491600D01*
X1212000Y1466200D01*
X1237400D01*
Y1491600D01*
X1212000Y1517000D01*
X1237400Y1542400D01*
Y1567800D01*
X1212000D01*
X1186600Y1542400D01*
X1161200Y1567800D01*
X1135800D01*
Y1542400D01*
X1161200Y1517000D01*
X1135800Y1491600D01*
Y1466200D01*
X1135800Y1745200D02*
X1161200D01*
X1186600Y1770600D01*
X1212000Y1745200D01*
X1237400D01*
Y1770600D01*
X1212000Y1796000D01*
X1237400Y1821400D01*
Y1846800D01*
X1212000D01*
X1186600Y1821400D01*
X1161200Y1846800D01*
X1135800D01*
Y1821400D01*
X1161200Y1796000D01*
X1135800Y1770600D01*
Y1745200D01*
X1133800Y1201200D02*
X1159200D01*
X1184600Y1226600D01*
X1210000Y1201200D01*
X1235400D01*
Y1226600D01*
X1210000Y1252000D01*
X1235400Y1277400D01*
Y1302800D01*
X1210000D01*
X1184600Y1277400D01*
X1159200Y1302800D01*
X1133800D01*
Y1277400D01*
X1159200Y1252000D01*
X1133800Y1226600D01*
Y1201200D01*
X1408200Y3297200D02*
X1433600D01*
X1459000Y3322600D01*
X1484400Y3297200D01*
X1509800D01*
Y3322600D01*
X1484400Y3348000D01*
X1509800Y3373400D01*
Y3398800D01*
X1484400D01*
X1459000Y3373400D01*
X1433600Y3398800D01*
X1408200D01*
Y3373400D01*
X1433600Y3348000D01*
X1408200Y3322600D01*
Y3297200D01*
X1431800Y1472200D02*
X1457200D01*
X1482600Y1497600D01*
X1508000Y1472200D01*
X1533400D01*
Y1497600D01*
X1508000Y1523000D01*
X1533400Y1548400D01*
Y1573800D01*
X1508000D01*
X1482600Y1548400D01*
X1457200Y1573800D01*
X1431800D01*
Y1548400D01*
X1457200Y1523000D01*
X1431800Y1497600D01*
Y1472200D01*
X1433200Y931200D02*
X1458600D01*
X1484000Y956600D01*
X1509400Y931200D01*
X1534800D01*
Y956600D01*
X1509400Y982000D01*
X1534800Y1007400D01*
Y1032800D01*
X1509400D01*
X1484000Y1007400D01*
X1458600Y1032800D01*
X1433200D01*
Y1007400D01*
X1458600Y982000D01*
X1433200Y956600D01*
Y931200D01*
X3152200Y902200D02*
X3177600D01*
X3203000Y927600D01*
X3228400Y902200D01*
X3253800D01*
Y927600D01*
X3228400Y953000D01*
X3253800Y978400D01*
Y1003800D01*
X3228400D01*
X3203000Y978400D01*
X3177600Y1003800D01*
X3152200D01*
Y978400D01*
X3177600Y953000D01*
X3152200Y927600D01*
Y902200D01*
X7218200Y1660200D02*
X7243600D01*
X7269000Y1685600D01*
X7294400Y1660200D01*
X7319800D01*
Y1685600D01*
X7294400Y1711000D01*
X7319800Y1736400D01*
Y1761800D01*
X7294400D01*
X7269000Y1736400D01*
X7243600Y1761800D01*
X7218200D01*
Y1736400D01*
X7243600Y1711000D01*
X7218200Y1685600D01*
Y1660200D01*
X3964200Y989200D02*
X3989600D01*
X4015000Y1014600D01*
X4040400Y989200D01*
X4065800D01*
Y1014600D01*
X4040400Y1040000D01*
X4065800Y1065400D01*
Y1090800D01*
X4040400D01*
X4015000Y1065400D01*
X3989600Y1090800D01*
X3964200D01*
Y1065400D01*
X3989600Y1040000D01*
X3964200Y1014600D01*
Y989200D01*
X3658200Y991200D02*
X3683600D01*
X3709000Y1016600D01*
X3734400Y991200D01*
X3759800D01*
Y1016600D01*
X3734400Y1042000D01*
X3759800Y1067400D01*
Y1092800D01*
X3734400D01*
X3709000Y1067400D01*
X3683600Y1092800D01*
X3658200D01*
Y1067400D01*
X3683600Y1042000D01*
X3658200Y1016600D01*
Y991200D01*
X3770200Y1001200D02*
X3795600D01*
X3821000Y1026600D01*
X3846400Y1001200D01*
X3871800D01*
Y1026600D01*
X3846400Y1052000D01*
X3871800Y1077400D01*
Y1102800D01*
X3846400D01*
X3821000Y1077400D01*
X3795600Y1102800D01*
X3770200D01*
Y1077400D01*
X3795600Y1052000D01*
X3770200Y1026600D01*
Y1001200D01*
D139*
X420800Y1003000D02*
G03*
X420800Y1003000I-50800J0D01*
G01*
Y1253000D02*
G03*
X420800Y1253000I-50800J0D01*
G01*
Y1503000D02*
G03*
X420800Y1503000I-50800J0D01*
G01*
Y1753000D02*
G03*
X420800Y1753000I-50800J0D01*
G01*
X3810800Y361000D02*
G03*
X3810800Y361000I-50800J0D01*
G01*
X4060800D02*
G03*
X4060800Y361000I-50800J0D01*
G01*
X4310800D02*
G03*
X4310800Y361000I-50800J0D01*
G01*
X5470800Y364000D02*
G03*
X5470800Y364000I-50800J0D01*
G01*
X5220800D02*
G03*
X5220800Y364000I-50800J0D01*
G01*
X4970800D02*
G03*
X4970800Y364000I-50800J0D01*
G01*
X8944800Y4132000D02*
G03*
X8944800Y4132000I-50800J0D01*
G01*
X8694800D02*
G03*
X8694800Y4132000I-50800J0D01*
G01*
X8444800D02*
G03*
X8444800Y4132000I-50800J0D01*
G01*
X8194800D02*
G03*
X8194800Y4132000I-50800J0D01*
G01*
D140*
X400480Y1003000D02*
G03*
X400480Y1003000I-30480J0D01*
G01*
Y1253000D02*
G03*
X400480Y1253000I-30480J0D01*
G01*
Y1503000D02*
G03*
X400480Y1503000I-30480J0D01*
G01*
Y1753000D02*
G03*
X400480Y1753000I-30480J0D01*
G01*
X3790480Y361000D02*
G03*
X3790480Y361000I-30480J0D01*
G01*
X4040480D02*
G03*
X4040480Y361000I-30480J0D01*
G01*
X4290480D02*
G03*
X4290480Y361000I-30480J0D01*
G01*
X5450480Y364000D02*
G03*
X5450480Y364000I-30480J0D01*
G01*
X5200480D02*
G03*
X5200480Y364000I-30480J0D01*
G01*
X4950480D02*
G03*
X4950480Y364000I-30480J0D01*
G01*
X8924480Y4132000D02*
G03*
X8924480Y4132000I-30480J0D01*
G01*
X8674480D02*
G03*
X8674480Y4132000I-30480J0D01*
G01*
X8424480D02*
G03*
X8424480Y4132000I-30480J0D01*
G01*
X8174480D02*
G03*
X8174480Y4132000I-30480J0D01*
G01*
%TF.MD5,d5c8d33b1dae41e16fcbb2d9786f7626*%
M02*
