%TF.GenerationSoftware,Altium Limited,Altium Designer,23.4.1 (23)*%
G04 Layer_Color=8388736*
%FSLAX45Y45*%
%MOMM*%
%TF.SameCoordinates,D6ADF24A-3376-43E2-8D1E-8FFFCD63A60F*%
%TF.FilePolarity,Negative*%
%TF.FileFunction,Soldermask,Top*%
%TF.Part,Single*%
G01*
G75*
%TA.AperFunction,SMDPad,CuDef*%
%ADD75R,0.95320X1.00320*%
%ADD76R,1.00320X0.95320*%
%TA.AperFunction,ComponentPad*%
%ADD77C,1.71120*%
%ADD78R,1.71120X1.71120*%
%ADD79R,1.40320X1.40320*%
%ADD80C,1.40320*%
%ADD81C,1.30320*%
%ADD82R,1.30320X1.30320*%
%ADD83R,1.85320X1.85320*%
%ADD84C,1.85320*%
%ADD85C,1.60320*%
%ADD86R,1.60320X1.60320*%
%ADD87R,1.77820X1.77820*%
%ADD88C,1.77820*%
%ADD89R,1.71120X1.71120*%
%TA.AperFunction,ViaPad*%
%ADD90C,5.70320*%
%TA.AperFunction,SMDPad,CuDef*%
%ADD91R,0.90320X0.45320*%
%ADD92R,0.85320X0.60320*%
%ADD93R,0.85320X1.80320*%
%ADD94R,1.15320X1.05320*%
%ADD95R,1.70320X1.50320*%
%ADD96R,1.70320X3.70320*%
%ADD97R,1.54320X0.79320*%
%ADD98R,3.05320X3.30320*%
%ADD99R,2.48320X2.32320*%
%ADD100R,1.20320X1.80320*%
G04:AMPARAMS|DCode=101|XSize=2.5332mm|YSize=3.2732mm|CornerRadius=0.39285mm|HoleSize=0mm|Usage=FLASHONLY|Rotation=270.000|XOffset=0mm|YOffset=0mm|HoleType=Round|Shape=RoundedRectangle|*
%AMROUNDEDRECTD101*
21,1,2.53320,2.48750,0,0,270.0*
21,1,1.74750,3.27320,0,0,270.0*
1,1,0.78570,-1.24375,-0.87375*
1,1,0.78570,-1.24375,0.87375*
1,1,0.78570,1.24375,0.87375*
1,1,0.78570,1.24375,-0.87375*
%
%ADD101ROUNDEDRECTD101*%
%ADD102R,1.80320X1.60320*%
%TA.AperFunction,BGAPad,CuDef*%
%ADD103R,1.10320X1.10320*%
%TA.AperFunction,SMDPad,CuDef*%
%ADD104R,1.70320X1.10320*%
%ADD105R,1.10320X1.70320*%
%ADD106R,1.20320X0.75320*%
%TA.AperFunction,ConnectorPad*%
%ADD107R,2.20320X0.81320*%
%ADD108R,3.80320X2.88320*%
%TA.AperFunction,SMDPad,CuDef*%
%ADD109R,0.50320X1.30320*%
%ADD110R,2.50320X3.30320*%
G04:AMPARAMS|DCode=111|XSize=1.4132mm|YSize=0.7932mm|CornerRadius=0.12815mm|HoleSize=0mm|Usage=FLASHONLY|Rotation=180.000|XOffset=0mm|YOffset=0mm|HoleType=Round|Shape=RoundedRectangle|*
%AMROUNDEDRECTD111*
21,1,1.41320,0.53690,0,0,180.0*
21,1,1.15690,0.79320,0,0,180.0*
1,1,0.25630,-0.57845,0.26845*
1,1,0.25630,0.57845,0.26845*
1,1,0.25630,0.57845,-0.26845*
1,1,0.25630,-0.57845,-0.26845*
%
%ADD111ROUNDEDRECTD111*%
%ADD112R,1.60320X1.20320*%
%ADD113R,1.80320X1.20320*%
%ADD114R,3.30320X3.05320*%
D75*
X3000000Y802000D02*
D03*
Y952000D02*
D03*
X3118000D02*
D03*
Y802000D02*
D03*
X8144000Y3437000D02*
D03*
Y3287000D02*
D03*
X4131000Y812000D02*
D03*
X4131000Y962000D02*
D03*
X3821000Y813000D02*
D03*
Y963000D02*
D03*
X9057000Y924000D02*
D03*
Y1074000D02*
D03*
X9172000Y1075000D02*
D03*
Y925000D02*
D03*
X1277600Y1102000D02*
D03*
Y1252000D02*
D03*
X1391600Y1101000D02*
D03*
Y1251000D02*
D03*
X8730000Y684000D02*
D03*
Y534000D02*
D03*
X8013000Y686000D02*
D03*
Y536000D02*
D03*
X8730000Y92000D02*
D03*
Y242000D02*
D03*
X8013000Y94000D02*
D03*
Y244000D02*
D03*
X8126000Y686000D02*
D03*
Y536000D02*
D03*
X8126000Y94000D02*
D03*
Y244000D02*
D03*
X9020000Y2719000D02*
D03*
Y2569000D02*
D03*
X1389600Y1370000D02*
D03*
Y1520000D02*
D03*
X1983000Y1113000D02*
D03*
Y963000D02*
D03*
X1276501Y979800D02*
D03*
Y829800D02*
D03*
X1396500Y979800D02*
D03*
Y829800D02*
D03*
X1275600Y1796000D02*
D03*
X1275600Y1646000D02*
D03*
X1389600Y1796000D02*
D03*
X1389600Y1646000D02*
D03*
X3707000Y963000D02*
D03*
X3707000Y813000D02*
D03*
X4016000Y962001D02*
D03*
Y812000D02*
D03*
X1455000Y3456000D02*
D03*
Y3606000D02*
D03*
X1250000Y3463000D02*
D03*
Y3613000D02*
D03*
X1277600Y1520000D02*
D03*
Y1370000D02*
D03*
D76*
X7489000Y1040000D02*
D03*
X7339000D02*
D03*
X6272000Y818000D02*
D03*
X6122000D02*
D03*
X6271000Y930000D02*
D03*
X6121000D02*
D03*
X9176300Y722500D02*
D03*
X9326300D02*
D03*
X5338000Y3440000D02*
D03*
X5488000D02*
D03*
X9191000Y1421999D02*
D03*
X9041000D02*
D03*
X7992000Y2117000D02*
D03*
X7339000Y927000D02*
D03*
X7489000D02*
D03*
X5488008Y3329380D02*
D03*
X5338008D02*
D03*
X5486000Y3584000D02*
D03*
X5336000D02*
D03*
X4563000Y3144000D02*
D03*
X4413000D02*
D03*
X4431388Y4092016D02*
D03*
X4281388D02*
D03*
X8142000Y2117000D02*
D03*
D77*
X370000Y1003000D02*
D03*
Y1253000D02*
D03*
Y1503000D02*
D03*
X4010000Y361000D02*
D03*
X4260000D02*
D03*
X5420000Y364000D02*
D03*
X5170000D02*
D03*
X8644000Y4132000D02*
D03*
X8394000D02*
D03*
X8144000D02*
D03*
D78*
X370000Y1753000D02*
D03*
D79*
X3417000Y1857000D02*
D03*
X377000Y3356000D02*
D03*
D80*
X2917000Y1857000D02*
D03*
X877000Y3356000D02*
D03*
D81*
X3278000Y4130000D02*
D03*
X4310000Y1523000D02*
D03*
X2289000Y3497000D02*
D03*
D82*
X3028000Y4130000D02*
D03*
X4560000Y1523000D02*
D03*
X2039000Y3497000D02*
D03*
D83*
X588000Y2624000D02*
D03*
D84*
Y2274000D02*
D03*
D85*
X3024000Y2766000D02*
D03*
Y3020000D02*
D03*
D86*
Y3274000D02*
D03*
D87*
X1967999Y361000D02*
D03*
X1045000Y362000D02*
D03*
X2862000Y361000D02*
D03*
D88*
X2218000D02*
D03*
X3112000D02*
D03*
X1295000Y362000D02*
D03*
D89*
X3760000Y361000D02*
D03*
X4920000Y364000D02*
D03*
X8894000Y4132000D02*
D03*
D90*
X400000Y400000D02*
D03*
Y4100000D02*
D03*
X9600000D02*
D03*
Y400000D02*
D03*
D91*
X8433000Y3176000D02*
D03*
Y3126000D02*
D03*
Y3076000D02*
D03*
Y3026000D02*
D03*
Y2976000D02*
D03*
Y2926000D02*
D03*
D92*
X8885500Y3176000D02*
D03*
Y2926000D02*
D03*
D93*
Y3456000D02*
D03*
Y2646000D02*
D03*
D94*
X1455000Y3937001D02*
D03*
Y3777000D02*
D03*
X1250000Y3776000D02*
D03*
Y3936000D02*
D03*
D95*
X4062999Y3855600D02*
D03*
Y3627000D02*
D03*
Y3398400D02*
D03*
D96*
X4692919Y3627000D02*
D03*
D97*
X2199000Y1086000D02*
D03*
X2199001Y991000D02*
D03*
X2199000Y896000D02*
D03*
X2437000Y896000D02*
D03*
X2437000Y991000D02*
D03*
X2437000Y1086000D02*
D03*
D98*
X4022000Y2303000D02*
D03*
X4571999D02*
D03*
D99*
X1938500Y4265000D02*
D03*
X2371500D02*
D03*
D100*
X4566000Y2770000D02*
D03*
X4266000D02*
D03*
X2289000Y3953000D02*
D03*
X1989000D02*
D03*
X4264000Y2976000D02*
D03*
X4564000D02*
D03*
X4131388Y4262016D02*
D03*
X4431388D02*
D03*
D101*
X2185000Y1390500D02*
D03*
Y2063500D02*
D03*
D102*
X7991000Y1306000D02*
D03*
X8714000D02*
D03*
X7994000Y1006000D02*
D03*
X8714000Y1006000D02*
D03*
X8715000Y1947000D02*
D03*
X7992000D02*
D03*
X8715000Y1647001D02*
D03*
X7995000Y1647000D02*
D03*
D103*
X6463989Y2944809D02*
D03*
X6323989D02*
D03*
X6603989D02*
D03*
X6323989Y2804809D02*
D03*
X6463989D02*
D03*
X6603989D02*
D03*
X6323989Y3084809D02*
D03*
X6463989D02*
D03*
X6603989D02*
D03*
D104*
X5738989Y3716809D02*
D03*
Y3589809D02*
D03*
Y3462809D02*
D03*
Y3335809D02*
D03*
Y3208809D02*
D03*
Y3081809D02*
D03*
Y2954809D02*
D03*
Y2700809D02*
D03*
Y2573809D02*
D03*
Y2446809D02*
D03*
Y2319809D02*
D03*
Y2065809D02*
D03*
X7488989Y3208809D02*
D03*
Y3335809D02*
D03*
Y3462809D02*
D03*
Y3589809D02*
D03*
Y3716809D02*
D03*
Y2065809D02*
D03*
X5738989Y2192809D02*
D03*
Y2827809D02*
D03*
X7488989Y2700809D02*
D03*
Y2573809D02*
D03*
Y2446809D02*
D03*
Y2319809D02*
D03*
Y2192809D02*
D03*
Y3081809D02*
D03*
Y2954809D02*
D03*
Y2827809D02*
D03*
D105*
X6169489Y1940809D02*
D03*
X6296489D02*
D03*
X6423489D02*
D03*
X6550489D02*
D03*
X6677489D02*
D03*
X6804489D02*
D03*
X6931489D02*
D03*
X7058489D02*
D03*
X7185489D02*
D03*
X7312489D02*
D03*
X6042489D02*
D03*
X5915489D02*
D03*
D106*
X897600Y1199000D02*
D03*
X1087600Y1264001D02*
D03*
Y1134000D02*
D03*
X899000Y898000D02*
D03*
X1089000Y963001D02*
D03*
Y833001D02*
D03*
X896600Y1707000D02*
D03*
X1086600Y1772000D02*
D03*
Y1642000D02*
D03*
X1087601Y1389000D02*
D03*
X1087600Y1519000D02*
D03*
X897600Y1454000D02*
D03*
D107*
X9300000Y2200000D02*
D03*
Y2100000D02*
D03*
Y2300000D02*
D03*
Y2000000D02*
D03*
Y1900000D02*
D03*
Y1800000D02*
D03*
Y2400000D02*
D03*
Y2500000D02*
D03*
Y2600000D02*
D03*
Y2700000D02*
D03*
D108*
X9580000Y2999000D02*
D03*
Y1501000D02*
D03*
D109*
X6192001Y548000D02*
D03*
X6242001D02*
D03*
X6292001D02*
D03*
X6342001D02*
D03*
X6392001D02*
D03*
X6442001D02*
D03*
X6492001D02*
D03*
X6592001D02*
D03*
X6642000D02*
D03*
X6692000D02*
D03*
X6742001D02*
D03*
X6792001D02*
D03*
X6842001D02*
D03*
X6892001D02*
D03*
X6942001D02*
D03*
X6992001D02*
D03*
X7042001D02*
D03*
X7092001D02*
D03*
X7142001D02*
D03*
X7192001D02*
D03*
X7242001D02*
D03*
X7292001D02*
D03*
X7342001D02*
D03*
X6542001D02*
D03*
D110*
X7509001Y378000D02*
D03*
X6025001D02*
D03*
D111*
X8286500Y93000D02*
D03*
Y282999D02*
D03*
X8537499D02*
D03*
X8537499Y188000D02*
D03*
X8537499Y93000D02*
D03*
X8537499Y725000D02*
D03*
Y535000D02*
D03*
X8537500Y630000D02*
D03*
X8286500Y725000D02*
D03*
Y535000D02*
D03*
D112*
X9326000Y1075000D02*
D03*
Y885000D02*
D03*
X9546000Y980000D02*
D03*
D113*
X1823000Y815000D02*
D03*
Y1115000D02*
D03*
D114*
X2197000Y2992000D02*
D03*
Y2442000D02*
D03*
%TF.MD5,66e8a68bd266b14f34ef3c9970d213e6*%
M02*
