%TF.GenerationSoftware,Altium Limited,Altium Designer,23.4.1 (23)*%
G04 Layer_Color=0*
%FSLAX45Y45*%
%MOMM*%
%TF.SameCoordinates,D6ADF24A-3376-43E2-8D1E-8FFFCD63A60F*%
%TF.FilePolarity,Positive*%
%TF.FileFunction,Plated,1,2,PTH,Drill*%
%TF.Part,Single*%
G01*
G75*
%TA.AperFunction,ComponentDrill*%
%ADD126C,1.00000*%
%ADD127C,0.85000*%
%ADD128C,0.75000*%
%ADD129C,0.30000*%
%ADD130C,1.10000*%
%ADD131C,0.83000*%
%ADD132C,1.05000*%
%ADD133C,1.00000*%
%TA.AperFunction,OtherDrill,Free Pad (4mm,4mm)*%
%ADD134C,3.20000*%
%TA.AperFunction,OtherDrill,Free Pad (4mm,41mm)*%
%ADD135C,3.20000*%
%TA.AperFunction,OtherDrill,Free Pad (96mm,41mm)*%
%ADD136C,3.20000*%
%TA.AperFunction,OtherDrill,Free Pad (96mm,4mm)*%
%ADD137C,3.20000*%
%TA.AperFunction,ViaDrill,NotFilled*%
%ADD138C,0.30000*%
D126*
X370000Y1003000D02*
D03*
Y1253000D02*
D03*
Y1503000D02*
D03*
Y1753000D02*
D03*
D127*
X3417000Y1857000D02*
D03*
X2917000D02*
D03*
X877000Y3356000D02*
D03*
X377000D02*
D03*
D128*
X3278000Y4130000D02*
D03*
X3028000Y4130000D02*
D03*
X4310000Y1523000D02*
D03*
X4560000Y1523000D02*
D03*
X2039000Y3497000D02*
D03*
X2289000Y3497000D02*
D03*
D129*
X6463989Y3014809D02*
D03*
X6323989D02*
D03*
X6603989D02*
D03*
X6323989Y2874809D02*
D03*
X6463989D02*
D03*
X6603989D02*
D03*
X6393989Y3084809D02*
D03*
X6533989D02*
D03*
X6393989Y2944809D02*
D03*
X6533989D02*
D03*
X6393989Y2804809D02*
D03*
X6533989D02*
D03*
D130*
X588000Y2624000D02*
D03*
Y2274000D02*
D03*
D131*
X3024000Y2766000D02*
D03*
Y3020000D02*
D03*
Y3274000D02*
D03*
D132*
X1967999Y361000D02*
D03*
X2218000D02*
D03*
X1045000Y362000D02*
D03*
X2862000Y361000D02*
D03*
X3112000D02*
D03*
X1295000Y362000D02*
D03*
D133*
X3760000Y361000D02*
D03*
X4010000D02*
D03*
X4260000D02*
D03*
X5420000Y364000D02*
D03*
X5170000D02*
D03*
X4920000D02*
D03*
X8894000Y4132000D02*
D03*
X8644000D02*
D03*
X8394000D02*
D03*
X8144000D02*
D03*
D134*
X400000Y400000D02*
D03*
D135*
Y4100000D02*
D03*
D136*
X9600000D02*
D03*
D137*
Y400000D02*
D03*
D138*
X8028000Y3444000D02*
D03*
X7808000Y3611000D02*
D03*
X8484401Y2813870D02*
D03*
X7818000Y1839000D02*
D03*
X9789000Y2112000D02*
D03*
X9783000Y2580000D02*
D03*
X4922000Y1052000D02*
D03*
X8022000Y2951000D02*
D03*
X7483424Y1842398D02*
D03*
X5616809Y2192809D02*
D03*
X6543001Y429707D02*
D03*
X8267000Y3476000D02*
D03*
X9056000Y3141000D02*
D03*
X7913043Y2282043D02*
D03*
X7701000Y3127000D02*
D03*
X7677000Y3204000D02*
D03*
X7731000Y3043000D02*
D03*
X7853000Y2896000D02*
D03*
X4920000Y2187000D02*
D03*
X5593000Y2827000D02*
D03*
X5853000Y3329000D02*
D03*
Y3209000D02*
D03*
X7787329Y2325000D02*
D03*
X8546000Y1006647D02*
D03*
X8161000Y1008647D02*
D03*
X7656500Y1572794D02*
D03*
X7655000Y1035000D02*
D03*
X9041999Y1572999D02*
D03*
X7367000Y1468000D02*
D03*
X5025000Y963000D02*
D03*
X5242500Y1460000D02*
D03*
Y2575000D02*
D03*
X5215000Y2700809D02*
D03*
X5538191D02*
D03*
X1478000Y1251000D02*
D03*
X8860000Y1648000D02*
D03*
X9677300Y981500D02*
D03*
X8334000Y1695000D02*
D03*
X5532000Y2574000D02*
D03*
X7912000Y2190281D02*
D03*
X7899000Y2065281D02*
D03*
X8087000Y2712999D02*
D03*
X8464000Y2278000D02*
D03*
X5642000Y1572000D02*
D03*
X6233989Y1649000D02*
D03*
X1484000Y1796000D02*
D03*
X6427000Y800000D02*
D03*
X6666000Y706000D02*
D03*
X6625000Y437000D02*
D03*
X6892001Y430999D02*
D03*
X6341000Y439000D02*
D03*
X9128000Y1801000D02*
D03*
X8539000Y2591000D02*
D03*
X9136000Y2601000D02*
D03*
X9132201Y2499504D02*
D03*
X6243000Y420000D02*
D03*
X6993001Y425707D02*
D03*
X6729000Y427706D02*
D03*
X8454000Y2415000D02*
D03*
X8446000Y2635000D02*
D03*
X7900000Y94000D02*
D03*
X7912000Y244000D02*
D03*
X5915489Y1467489D02*
D03*
X7912000Y686000D02*
D03*
X5133000Y932000D02*
D03*
X5750000Y1205000D02*
D03*
X6042929Y1394000D02*
D03*
X6366000Y929000D02*
D03*
X7334000Y801000D02*
D03*
X6039000Y930000D02*
D03*
Y736000D02*
D03*
X7489000Y836000D02*
D03*
X7900000Y536000D02*
D03*
X5642000Y1291500D02*
D03*
X5417500Y2317000D02*
D03*
X6968001Y3711000D02*
D03*
X7068001D02*
D03*
X7168001D02*
D03*
X7268002D02*
D03*
X7368002D02*
D03*
X7608002D02*
D03*
X6268001D02*
D03*
X6368001D02*
D03*
X6468001D02*
D03*
X6568001D02*
D03*
X6668001D02*
D03*
X6768001D02*
D03*
X6868001D02*
D03*
X5618000D02*
D03*
X5868000D02*
D03*
X5968000D02*
D03*
X6068000D02*
D03*
X6168001D02*
D03*
X5110000Y3214000D02*
D03*
X5365000Y3217000D02*
D03*
X5596000Y3085000D02*
D03*
X5227000D02*
D03*
X5593000Y2956000D02*
D03*
X5207000D02*
D03*
X2073000Y896000D02*
D03*
X5605000Y2319809D02*
D03*
X7628809Y3589809D02*
D03*
X7623809Y3462809D02*
D03*
X5581000Y3462380D02*
D03*
X4694000Y3348000D02*
D03*
X5518000Y4411000D02*
D03*
Y4311000D02*
D03*
Y4211000D02*
D03*
Y4111000D02*
D03*
Y4011000D02*
D03*
Y3911000D02*
D03*
Y3811000D02*
D03*
Y3711000D02*
D03*
X7708000Y4411000D02*
D03*
Y4311000D02*
D03*
Y4211000D02*
D03*
Y4111000D02*
D03*
Y4011000D02*
D03*
Y3911000D02*
D03*
Y3811000D02*
D03*
Y3711000D02*
D03*
X5418000Y4411000D02*
D03*
X7808000D02*
D03*
X5418000Y3711000D02*
D03*
Y3811000D02*
D03*
Y3911000D02*
D03*
Y4011000D02*
D03*
Y4111000D02*
D03*
Y4211000D02*
D03*
Y4311000D02*
D03*
X7808000Y3711000D02*
D03*
Y3811000D02*
D03*
Y3911000D02*
D03*
Y4011000D02*
D03*
Y4111000D02*
D03*
Y4211000D02*
D03*
Y4311000D02*
D03*
X1250000Y3351000D02*
D03*
X3915000Y3400000D02*
D03*
X4431000Y4434000D02*
D03*
X4131000Y1051000D02*
D03*
X2914000Y952000D02*
D03*
X1186600Y1517000D02*
D03*
X1186600Y1796000D02*
D03*
X1184600Y1252000D02*
D03*
X1459000Y3348000D02*
D03*
X1482600Y1523000D02*
D03*
X1484000Y982000D02*
D03*
X3203000Y953000D02*
D03*
X7269000Y1711000D02*
D03*
X4015000Y1040000D02*
D03*
X3709000Y1042000D02*
D03*
X3821000Y1052000D02*
D03*
%TF.MD5,904623fdcfe2d46e158c6e374b4eaaa7*%
M02*
